<?xml version="1.0" encoding="UTF-8"?>
<svg id="Layer_1" xmlns="http://www.w3.org/2000/svg" version="1.1" viewBox="0 0 45.2 35.7">
  <!-- Generator: Adobe Illustrator 29.3.1, SVG Export Plug-In . SVG Version: 2.1.0 Build 151)  -->
  <defs>
    <style>
      .st0, .st1, .st2, .st3, .st4 {
        stroke-linecap: round;
      }

      .st0, .st3, .st5 {
        stroke: #3492cf;
        stroke-miterlimit: 10;
      }

      .st0, .st5 {
        fill: #3492cf;
      }

      .st1 {
        stroke: #231f20;
      }

      .st1, .st2, .st3 {
        fill: none;
      }

      .st1, .st2, .st4 {
        stroke-linejoin: round;
      }

      .st2, .st4 {
        stroke: #f37746;
      }

      .st4 {
        fill: #f37746;
      }
    </style>
  </defs>
  <path class="st1" d="M22.2.5s-.1,23.1,0,32.5"/>
  <path class="st0" d="M.5,24.2c4.9,2.8,10,5.6,13.7,7.6"/>
  <polygon class="st4" points="44.7 .5 44.7 35.2 37.5 31.3 37.5 .5 44.7 .5"/>
  <path class="st4" d="M30.2,31.2V.5h-8l-.8,34.7c1,0,1.7,0,2-.2,1.9-1,4.2-2.3,6.8-3.7"/>
  <path class="st5" d="M14.2,31.9c2.5,1.4,4.3,2.4,5,2.7.6.3,3,1.4,3,0V.5s-.5,0-.5,0h-6.7v1.1c0,8.6,0,26.6-.1,28.4,0,.8-.3,1.4-.7,1.8"/>
  <line class="st3" x1=".5" y1=".5" x2="15.1" y2=".5"/>
  <line class="st2" x1="30.2" y1="17.1" x2="37.5" y2="17.1"/>
  <path class="st4" d="M37.5,31.3c2.5,1.4,4.7,2.6,6.6,3.6.2,0,.4.2.6.2"/>
</svg>