<?xml version="1.0" encoding="UTF-8"?>
<svg id="Layer_1" data-name="Layer 1" xmlns="http://www.w3.org/2000/svg" viewBox="0 0 102.44 34.1">
  <defs>
    <style>
      .cls-1 {
        fill: #f37746;
      }
    </style>
  </defs>
  <path class="cls-1" d="M4.83,9.86c0,.52-.05,1-.14,1.43-.09.43-.26.8-.49,1.1s-.53.54-.91.7c-.38.17-.84.25-1.39.25-.19,0-.38-.02-.56-.05s-.36-.07-.51-.12-.29-.1-.41-.16c-.11-.06-.19-.11-.23-.15-.04-.04-.07-.08-.09-.12-.02-.04-.04-.09-.06-.15-.02-.06-.03-.13-.04-.21,0-.08-.01-.19-.01-.31,0-.15,0-.27.02-.37.01-.1.03-.18.06-.23.03-.06.06-.1.1-.12.04-.02.08-.04.14-.04s.12.02.21.08.19.11.3.17c.12.06.25.12.41.17.15.05.34.08.55.08.23,0,.43-.03.59-.09.16-.06.3-.16.41-.32.11-.15.19-.37.24-.64.05-.27.08-.63.08-1.07V.31s.01-.09.04-.13c.03-.04.07-.07.14-.1.07-.03.16-.05.27-.06.11-.01.25-.02.42-.02s.3,0,.42.02c.11.01.2.03.27.06.06.03.11.06.14.1s.05.08.05.13v9.55Z"/>
  <path class="cls-1" d="M18.95,12.45c0,.12,0,.23-.02.32-.01.09-.04.17-.07.23-.03.06-.07.1-.12.13s-.09.04-.15.04h-6.29c-.16,0-.3-.05-.44-.16-.14-.1-.21-.29-.21-.55V.77c0-.26.07-.45.21-.55.14-.1.29-.16.44-.16h6.22c.05,0,.1.01.15.04.04.03.08.07.11.13.03.06.05.14.07.23.02.09.03.2.03.34,0,.12,0,.23-.03.32-.02.09-.04.17-.07.22-.03.06-.06.1-.11.13-.04.03-.09.04-.15.04h-5.12v4.11h4.4c.05,0,.1.02.15.05s.08.07.11.13c.03.05.05.13.07.22.01.09.02.21.02.33,0,.12,0,.23-.02.31-.01.09-.04.16-.07.21-.03.05-.07.09-.11.12-.04.02-.09.04-.15.04h-4.4v4.69h5.19c.05,0,.1.01.15.04.04.03.08.07.12.13.03.06.06.13.07.22.01.09.02.2.02.34Z"/>
  <path class="cls-1" d="M35.07,12.45c0,.13-.02.25-.07.34-.04.09-.1.17-.18.23-.07.06-.16.1-.25.13s-.18.04-.27.04h-.58c-.18,0-.34-.02-.48-.06s-.27-.1-.39-.2c-.12-.1-.24-.23-.37-.4-.12-.17-.25-.38-.39-.65l-4-7.45c-.21-.38-.42-.79-.63-1.21-.21-.42-.41-.83-.59-1.23h-.02c.01.49.02.98.03,1.49s.01,1.01.01,1.51v7.91s-.01.09-.04.14c-.03.04-.08.08-.14.1-.07.02-.16.04-.27.06-.11.02-.25.02-.42.02s-.31,0-.42-.02c-.11-.02-.2-.04-.26-.06-.06-.02-.11-.06-.14-.1-.03-.04-.04-.09-.04-.14V.81c0-.27.08-.46.23-.58s.32-.17.5-.17h.86c.2,0,.37.02.51.05.14.03.26.09.37.17s.21.19.31.32c.1.14.21.31.32.52l3.07,5.75c.19.35.37.69.55,1.03.18.33.35.66.51.99.16.32.32.64.48.96s.32.63.47.95h0c-.01-.53-.02-1.09-.03-1.67,0-.58,0-1.13,0-1.67V.35s.01-.09.04-.13.08-.08.14-.11c.07-.03.16-.05.27-.07.11-.01.25-.02.43-.02.16,0,.29,0,.41.02.11.01.2.04.27.07.06.03.11.07.14.11s.04.08.04.13v12.09Z"/>
  <path class="cls-1" d="M51.83,12.45c0,.13-.02.25-.07.34-.04.09-.1.17-.18.23-.07.06-.16.1-.25.13s-.18.04-.27.04h-.58c-.18,0-.34-.02-.48-.06s-.27-.1-.39-.2c-.12-.1-.24-.23-.37-.4-.12-.17-.25-.38-.39-.65l-4-7.45c-.21-.38-.42-.79-.63-1.21-.21-.42-.41-.83-.59-1.23h-.02c.01.49.02.98.03,1.49s0,1.01,0,1.51v7.91s-.01.09-.04.14-.08.08-.14.1c-.07.02-.16.04-.27.06-.11.02-.25.02-.42.02s-.31,0-.42-.02c-.11-.02-.2-.04-.26-.06-.06-.02-.11-.06-.14-.1s-.04-.09-.04-.14V.81c0-.27.08-.46.23-.58s.32-.17.5-.17h.86c.2,0,.37.02.51.05.14.03.26.09.37.17.11.08.21.19.31.32.1.14.21.31.32.52l3.07,5.75c.19.35.37.69.55,1.03.18.33.35.66.51.99.16.32.32.64.48.96s.32.63.47.95h0c-.01-.53-.02-1.09-.03-1.67,0-.58,0-1.13,0-1.67V.35s.01-.09.04-.13.08-.08.14-.11c.07-.03.16-.05.27-.07.11-.01.25-.02.43-.02.16,0,.29,0,.41.02.11.01.2.04.27.07.06.03.11.07.14.11.03.04.04.08.04.13v12.09Z"/>
  <path class="cls-1" d="M60.43,12.9c0,.05-.01.1-.04.14-.03.04-.08.07-.14.1-.07.02-.16.04-.27.06-.11.02-.25.02-.42.02s-.3,0-.42-.02c-.11-.02-.21-.04-.27-.06-.07-.02-.11-.06-.14-.1s-.04-.09-.04-.14V.32c0-.05.01-.1.04-.14s.08-.07.15-.1c.07-.02.16-.04.27-.06.11-.02.24-.02.4-.02.17,0,.31,0,.42.02.11.02.2.04.27.06s.12.06.14.1c.03.04.04.09.04.14v12.58Z"/>
  <path class="cls-1" d="M74.18.81c0,.13,0,.24-.02.33-.01.09-.04.17-.07.23-.03.06-.07.1-.12.13s-.09.04-.14.04h-4.8v4.46h4.54s.09.01.14.04c.04.02.08.06.12.12.03.05.06.13.07.22s.02.21.02.35c0,.13,0,.24-.02.33-.01.09-.04.17-.07.22-.03.06-.07.1-.12.13-.04.03-.09.05-.14.05h-4.54v5.46s-.01.09-.04.14c-.03.04-.08.08-.14.1-.07.02-.16.04-.26.06-.11.02-.25.02-.43.02-.16,0-.3,0-.42-.02-.11-.02-.21-.04-.27-.06-.07-.02-.11-.06-.14-.1s-.04-.09-.04-.14V.77c0-.26.07-.45.21-.55.14-.1.29-.16.44-.16h5.89s.09.01.14.04.08.07.12.13c.03.06.06.14.07.24.01.1.02.21.02.34Z"/>
  <path class="cls-1" d="M87.49,12.45c0,.12,0,.23-.02.32-.01.09-.04.17-.07.23-.03.06-.07.1-.12.13s-.09.04-.15.04h-6.29c-.16,0-.3-.05-.44-.16-.14-.1-.21-.29-.21-.55V.77c0-.26.07-.45.21-.55.14-.1.29-.16.44-.16h6.22c.05,0,.1.01.15.04s.08.07.11.13c.03.06.05.14.07.23.02.09.03.2.03.34,0,.12,0,.23-.03.32-.02.09-.04.17-.07.22-.03.06-.06.1-.11.13s-.09.04-.15.04h-5.12v4.11h4.39c.05,0,.1.02.15.05s.08.07.11.13c.03.05.05.13.07.22.01.09.02.21.02.33,0,.12,0,.23-.02.31s-.04.16-.07.21c-.03.05-.07.09-.11.12-.04.02-.09.04-.15.04h-4.39v4.69h5.2c.05,0,.1.01.15.04.04.03.08.07.12.13.03.06.06.13.07.22.01.09.02.2.02.34Z"/>
  <path class="cls-1" d="M102.44,12.9c0,.05,0,.1-.03.14s-.06.07-.13.1c-.07.03-.16.05-.28.06-.12.01-.28.02-.49.02-.18,0-.32,0-.43-.02-.11-.01-.2-.04-.27-.07s-.12-.07-.16-.13-.07-.12-.1-.2l-1.21-3.09c-.14-.35-.29-.67-.44-.97-.15-.29-.33-.55-.54-.76-.21-.21-.46-.38-.74-.5s-.62-.18-1.02-.18h-1.17v5.58c0,.05-.01.1-.05.14-.03.04-.08.07-.14.1-.06.02-.15.04-.26.06-.11.02-.25.02-.42.02s-.31,0-.42-.02c-.11-.02-.2-.04-.27-.06-.07-.02-.11-.06-.14-.1s-.04-.09-.04-.14V.77c0-.26.07-.45.21-.55.14-.1.29-.16.44-.16h2.79c.33,0,.61,0,.83.03.22.02.42.04.59.06.51.09.95.23,1.34.42.39.19.71.43.98.72.26.29.46.62.59,1,.13.38.2.79.2,1.24s-.06.83-.18,1.18-.29.65-.51.92c-.22.27-.49.5-.8.69-.31.2-.66.36-1.04.5.22.09.41.21.59.36.18.15.34.32.49.52.15.2.29.44.43.7.13.26.27.56.4.89l1.17,2.89c.09.24.16.41.18.51.03.1.04.17.04.23ZM99.82,3.7c0-.51-.12-.95-.34-1.3s-.61-.61-1.15-.76c-.17-.05-.36-.08-.57-.1-.21-.02-.49-.03-.83-.03h-1.47v4.42h1.7c.46,0,.86-.06,1.19-.17.33-.11.61-.27.83-.47s.39-.43.49-.7.16-.56.16-.88Z"/>
  <path class="cls-1" d="M11.11,33.64c0,.05-.01.1-.04.14-.03.04-.07.07-.14.1s-.16.04-.27.06-.25.03-.41.03c-.18,0-.32,0-.43-.03-.11-.02-.2-.04-.26-.06-.07-.02-.12-.06-.14-.1-.03-.04-.04-.09-.04-.14v-5.81H3.41v5.81c0,.05-.01.1-.04.14-.03.04-.07.07-.14.1-.07.02-.16.04-.27.06s-.25.03-.42.03-.3,0-.42-.03-.21-.04-.27-.06-.11-.06-.14-.1c-.03-.04-.04-.09-.04-.14v-12.58c0-.05.01-.1.04-.14.03-.04.07-.07.14-.1s.16-.04.27-.06.25-.03.42-.03.31,0,.42.03.2.04.27.06c.07.02.11.06.14.1.03.04.04.09.04.14v5.25h5.96v-5.25c0-.05.01-.1.04-.14.03-.04.07-.07.14-.1.07-.02.15-.04.26-.06.11-.02.25-.03.43-.03.16,0,.3,0,.41.03s.2.04.27.06.11.06.14.1c.03.04.04.09.04.14v12.58Z"/>
  <path class="cls-1" d="M27.99,27.2c0,1.06-.12,2.02-.37,2.87-.25.85-.62,1.57-1.12,2.17s-1.12,1.06-1.87,1.38c-.75.32-1.62.48-2.62.48s-1.84-.15-2.56-.44c-.72-.29-1.31-.72-1.78-1.28-.47-.56-.82-1.26-1.05-2.09s-.34-1.79-.34-2.87.12-1.97.37-2.82c.25-.84.62-1.56,1.12-2.15.5-.59,1.12-1.05,1.87-1.37.75-.32,1.62-.48,2.62-.48s1.81.15,2.52.44c.72.29,1.31.71,1.79,1.27.48.56.83,1.25,1.06,2.07s.35,1.76.35,2.82ZM26.15,27.32c0-.74-.07-1.43-.2-2.07-.13-.64-.35-1.19-.66-1.66-.31-.47-.72-.84-1.23-1.1-.51-.26-1.15-.4-1.9-.4s-1.39.14-1.9.43c-.51.28-.93.66-1.25,1.13s-.55,1.02-.69,1.66c-.14.63-.21,1.29-.21,1.99,0,.77.06,1.48.19,2.13.13.65.34,1.21.65,1.68.3.47.71.83,1.22,1.09.51.26,1.15.39,1.92.39s1.4-.14,1.92-.43c.52-.28.94-.67,1.25-1.15.32-.48.54-1.04.68-1.68.13-.63.2-1.31.2-2.01Z"/>
  <path class="cls-1" d="M39.96,33.14c0,.14,0,.25-.02.34-.01.09-.04.17-.07.23-.03.06-.07.11-.11.14s-.1.05-.16.05h-5.79c-.16,0-.3-.05-.44-.16-.14-.1-.21-.29-.21-.55v-12.13c0-.05.01-.1.04-.14.03-.04.07-.07.14-.1s.16-.04.27-.06c.12-.02.25-.03.42-.03s.31,0,.42.03.2.04.27.06.12.06.14.1c.03.04.04.09.04.14v11.33h4.7c.06,0,.11.02.16.05s.08.07.11.13c.03.06.05.13.07.23.01.09.02.21.02.34Z"/>
  <path class="cls-1" d="M52.83,32.05c0,.11,0,.2-.01.28s-.02.15-.04.21c-.02.06-.04.11-.07.16-.03.05-.08.11-.14.17s-.21.17-.42.31-.48.27-.8.41c-.32.13-.69.24-1.1.33s-.87.14-1.36.14c-.85,0-1.62-.14-2.3-.43-.69-.28-1.27-.7-1.75-1.25-.48-.55-.85-1.24-1.11-2.05s-.39-1.75-.39-2.81.14-2.06.42-2.91.67-1.57,1.18-2.16c.51-.59,1.11-1.04,1.82-1.35.71-.31,1.49-.47,2.34-.47.38,0,.75.04,1.1.11.36.07.69.16.99.27.3.11.57.23.81.37.24.14.4.26.49.35.09.09.15.16.18.21.03.05.05.1.07.17.02.06.03.14.04.23.01.09.02.19.02.31,0,.13,0,.25-.02.34s-.03.17-.06.24c-.03.06-.06.11-.1.14-.04.03-.08.05-.14.05-.1,0-.23-.07-.4-.2-.17-.13-.39-.28-.66-.43-.27-.16-.59-.3-.98-.44-.38-.13-.84-.2-1.38-.2-.58,0-1.11.12-1.59.35-.48.23-.89.58-1.23,1.03-.34.45-.6,1-.79,1.66-.19.65-.28,1.4-.28,2.23s.09,1.56.27,2.2.44,1.17.77,1.6c.34.43.75.75,1.24.97.49.22,1.04.33,1.66.33.52,0,.98-.06,1.37-.19.39-.13.72-.27,1-.43.27-.16.5-.3.68-.43.18-.13.32-.19.42-.19.05,0,.09.01.12.03.03.02.06.06.08.12.02.06.04.14.05.24,0,.1.02.23.02.38Z"/>
  <path class="cls-1" d="M68.36,27.2c0,1.06-.12,2.02-.38,2.87s-.62,1.57-1.12,2.17c-.5.6-1.12,1.06-1.87,1.38-.75.32-1.62.48-2.62.48s-1.84-.15-2.56-.44c-.72-.29-1.31-.72-1.78-1.28-.47-.56-.82-1.26-1.05-2.09s-.34-1.79-.34-2.87.12-1.97.37-2.82.62-1.56,1.12-2.15c.5-.59,1.12-1.05,1.87-1.37.75-.32,1.62-.48,2.62-.48s1.81.15,2.52.44,1.31.71,1.79,1.27c.48.56.83,1.25,1.06,2.07.23.82.35,1.76.35,2.82ZM66.51,27.32c0-.74-.07-1.43-.2-2.07-.13-.64-.35-1.19-.66-1.66-.31-.47-.72-.84-1.23-1.1-.51-.26-1.15-.4-1.9-.4s-1.39.14-1.9.43c-.51.28-.93.66-1.25,1.13s-.55,1.02-.69,1.66c-.14.63-.21,1.29-.21,1.99,0,.77.06,1.48.19,2.13.13.65.34,1.21.65,1.68.3.47.71.83,1.22,1.09.51.26,1.15.39,1.92.39s1.4-.14,1.92-.43c.52-.28.94-.67,1.25-1.15.32-.48.54-1.04.68-1.68.14-.63.2-1.31.2-2.01Z"/>
  <path class="cls-1" d="M87.78,33.64c0,.05-.01.1-.04.14-.03.04-.08.07-.15.1s-.16.04-.27.06c-.11.02-.25.03-.42.03-.16,0-.3,0-.41-.03-.11-.02-.21-.04-.27-.06-.07-.02-.11-.06-.14-.1-.03-.04-.04-.09-.04-.14v-11.41h-.02l-4.62,11.46s-.05.09-.09.12c-.04.03-.09.06-.16.09-.07.02-.16.04-.25.05-.1,0-.21.01-.35.01-.14,0-.26,0-.37-.02-.1-.01-.19-.03-.25-.06-.07-.02-.12-.05-.16-.09-.04-.03-.06-.07-.08-.11l-4.42-11.46h0v11.41c0,.05-.01.1-.04.14-.03.04-.08.07-.15.1-.07.02-.16.04-.27.06s-.25.03-.43.03-.31,0-.42-.03-.2-.04-.27-.06c-.07-.02-.11-.06-.14-.1-.02-.04-.04-.09-.04-.14v-12.05c0-.28.08-.49.23-.61.15-.12.32-.18.5-.18h1.07c.22,0,.41.02.58.06.16.04.31.1.43.19s.23.2.31.33c.08.14.15.29.22.48l3.75,9.49h.05l3.9-9.46c.08-.2.16-.38.25-.52.09-.14.19-.25.29-.34.11-.08.22-.15.35-.18.13-.04.28-.06.45-.06h1.12c.1,0,.2.02.29.05.09.03.17.08.24.14s.12.15.16.24.06.22.06.36v12.05Z"/>
  <path class="cls-1" d="M102.32,30.15c0,.41-.05.79-.16,1.14s-.25.66-.44.94c-.19.28-.42.52-.68.73-.27.21-.57.38-.9.53-.33.14-.69.25-1.07.32-.38.07-.82.11-1.31.11h-3.42c-.16,0-.3-.05-.44-.16-.14-.1-.21-.29-.21-.55v-11.69c0-.26.07-.45.21-.55s.29-.16.44-.16h2.98c.78,0,1.42.07,1.92.22.5.15.92.36,1.25.65.33.28.58.63.75,1.04s.25.88.25,1.4c0,.31-.04.61-.11.89-.07.28-.18.55-.33.79-.14.24-.33.45-.55.64-.22.19-.47.34-.75.47.36.07.69.19,1,.37s.58.41.82.68c.23.28.42.6.55.97.13.37.2.78.2,1.23ZM99.7,24.28c0-.32-.04-.6-.13-.86-.09-.26-.23-.47-.41-.65s-.43-.32-.74-.41-.7-.14-1.2-.14h-1.8v4.24h1.98c.45,0,.82-.06,1.09-.18.28-.12.5-.28.69-.48s.31-.43.4-.7c.08-.27.13-.54.13-.83ZM100.49,30.25c0-.39-.06-.74-.19-1.03-.12-.3-.31-.55-.55-.75-.24-.2-.54-.36-.9-.46s-.81-.16-1.36-.16h-2.08v4.62h2.53c.4,0,.74-.05,1.04-.14.3-.09.56-.23.78-.42s.4-.42.53-.69c.13-.28.19-.6.19-.96Z"/>
</svg>