<?xml version="1.0" encoding="UTF-8"?>
<svg id="Layer_1" xmlns="http://www.w3.org/2000/svg" version="1.1" viewBox="0 0 400 88">
  <!-- Generator: Adobe Illustrator 29.3.1, SVG Export Plug-In . SVG Version: 2.1.0 Build 151)  -->
  <defs>
    <style>
      .st0, .st1, .st2, .st3, .st4 {
        stroke-linecap: round;
      }

      .st0, .st2, .st5 {
        stroke: #3492cf;
        stroke-miterlimit: 10;
      }

      .st0, .st5 {
        fill: #3492cf;
      }

      .st6, .st4 {
        fill: #f47846;
      }

      .st1 {
        stroke: #231f20;
      }

      .st1, .st2, .st3 {
        fill: none;
      }

      .st1, .st3, .st4 {
        stroke-linejoin: round;
      }

      .st3, .st4 {
        stroke: #f47846;
      }
    </style>
  </defs>
  <g>
    <path class="st1" d="M54.9,1.7s-.3,56.3-.1,79.3"/>
    <path class="st0" d="M1.9,59.5c12,6.7,24.4,13.7,33.4,18.6"/>
    <polygon class="st4" points="109.6 1.7 109.6 86.2 92.1 76.8 92.1 1.7 109.6 1.7"/>
    <path class="st4" d="M74.4,76.5V1.7h-19.4l-2,84.6c2.4,0,4.2-.2,4.9-.6,4.6-2.5,10.4-5.7,16.5-9.1"/>
    <path class="st5" d="M35.3,78.1c6.1,3.3,10.6,5.8,12.3,6.6,1.5.7,7.3,3.3,7.3-.3V1.7c0,0-1.2,0-1.2,0h-16.3v2.8c0,20.9,0,64.9-.4,69.2-.2,2-.8,3.4-1.7,4.3"/>
    <line class="st2" x1="1.9" y1="1.7" x2="37.4" y2="1.7"/>
    <line class="st3" x1="74.4" y1="42.1" x2="92.1" y2="42.1"/>
    <path class="st4" d="M92.1,76.8c6,3.3,11.6,6.4,16,8.8.4.2.9.4,1.5.6"/>
  </g>
  <g>
    <path class="st6" d="M160.6,26.9c0,1.3-.1,2.4-.4,3.5-.2,1-.6,2-1.2,2.7-.6.7-1.3,1.3-2.2,1.7-.9.4-2.1.6-3.4.6s-.9,0-1.4-.1-.9-.2-1.2-.3c-.4-.1-.7-.2-1-.4-.3-.1-.5-.3-.6-.4,0,0-.2-.2-.2-.3s-.1-.2-.1-.4,0-.3,0-.5c0-.2,0-.5,0-.8s0-.7,0-.9,0-.4.1-.6c0-.1.1-.2.2-.3s.2,0,.3,0,.3,0,.5.2c.2.1.4.3.7.4.3.1.6.3,1,.4.4.1.8.2,1.3.2s1,0,1.4-.2c.4-.1.7-.4,1-.8.3-.4.5-.9.6-1.6s.2-1.5.2-2.6V3.6c0-.1,0-.2.1-.3s.2-.2.3-.2c.2,0,.4-.1.6-.2.3,0,.6,0,1,0s.7,0,1,0,.5,0,.6.2.3.2.4.2c0,0,.1.2.1.3v23.3h0Z"/>
    <path class="st6" d="M195.1,33.2c0,.3,0,.6,0,.8s0,.4-.2.6-.2.3-.3.3c-.1,0-.2,0-.4,0h-15.3c-.4,0-.7-.1-1.1-.4-.3-.2-.5-.7-.5-1.3V4.7c0-.6.2-1.1.5-1.3.3-.2.7-.4,1.1-.4h15.2c.1,0,.2,0,.4,0s.2.2.3.3c0,.2.1.3.2.6,0,.2,0,.5,0,.8s0,.6,0,.8c0,.2-.1.4-.2.5s-.1.2-.3.3-.2,0-.4,0h-12.5v10h10.7c.1,0,.2,0,.4.1s.2.2.3.3.1.3.2.5c0,.2,0,.5,0,.8s0,.5,0,.8c0,.2,0,.4-.2.5s-.2.2-.3.3c-.1,0-.2,0-.4,0h-10.7v11.4h12.7c.1,0,.2,0,.4.1s.2.2.3.3.1.3.2.5,0,.5,0,.8h0Z"/>
    <path class="st6" d="M234.3,33.2c0,.3,0,.6-.2.8s-.2.4-.4.6-.4.3-.6.3c-.2,0-.4,0-.7,0h-1.4c-.4,0-.8,0-1.2-.1s-.6-.3-.9-.5c-.3-.2-.6-.6-.9-1-.3-.4-.6-.9-.9-1.6l-9.8-18.2c-.5-.9-1-1.9-1.5-2.9-.5-1-1-2-1.4-3h0c0,1.2,0,2.4,0,3.6s0,2.5,0,3.7v19.3c0,.1,0,.2-.1.3,0,.1-.2.2-.4.2-.2,0-.4.1-.6.2-.3,0-.6,0-1,0s-.8,0-1,0-.5,0-.6-.2-.3-.1-.3-.2c0-.1-.1-.2-.1-.3V4.8c0-.7.2-1.1.6-1.4.4-.3.8-.4,1.2-.4h2.1c.5,0,.9,0,1.2.1.3,0,.6.2.9.4s.5.5.8.8c.2.3.5.8.8,1.3l7.5,14c.5.9.9,1.7,1.3,2.5.4.8.8,1.6,1.2,2.4.4.8.8,1.6,1.2,2.3.4.8.8,1.5,1.2,2.3h0c0-1.3,0-2.6,0-4.1,0-1.4,0-2.8,0-4.1V3.7c0-.1,0-.2.1-.3,0,0,.2-.2.4-.3.2,0,.4-.1.6-.2.3,0,.6,0,1.1,0s.7,0,1,0,.5,0,.6.2c.2,0,.3.2.3.3,0,0,.1.2.1.3v29.5h0Z"/>
    <path class="st6" d="M275.2,33.2c0,.3,0,.6-.2.8-.1.2-.2.4-.4.6s-.4.3-.6.3c-.2,0-.4,0-.7,0h-1.4c-.4,0-.8,0-1.2-.1-.3,0-.6-.3-.9-.5-.3-.2-.6-.6-.9-1-.3-.4-.6-.9-1-1.6l-9.8-18.2c-.5-.9-1-1.9-1.5-2.9-.5-1-1-2-1.4-3h0c0,1.2,0,2.4,0,3.6s0,2.5,0,3.7v19.3c0,.1,0,.2-.1.3,0,.1-.2.2-.4.2-.2,0-.4.1-.6.2-.3,0-.6,0-1,0s-.8,0-1,0-.5,0-.6-.2-.3-.1-.3-.2c0-.1-.1-.2-.1-.3V4.8c0-.7.2-1.1.6-1.4.4-.3.8-.4,1.2-.4h2.1c.5,0,.9,0,1.2.1.3,0,.6.2.9.4s.5.5.8.8c.2.3.5.8.8,1.3l7.5,14c.5.9.9,1.7,1.3,2.5.4.8.8,1.6,1.2,2.4.4.8.8,1.6,1.2,2.3.4.8.8,1.5,1.2,2.3h0c0-1.3,0-2.6,0-4.1,0-1.4,0-2.8,0-4.1V3.7c0-.1,0-.2.1-.3,0,0,.2-.2.4-.3.2,0,.4-.1.6-.2.3,0,.6,0,1,0s.7,0,1,0,.5,0,.6.2c.2,0,.3.2.3.3s.1.2.1.3v29.5h0Z"/>
    <path class="st6" d="M296.2,34.3c0,.1,0,.2-.1.3s-.2.2-.4.2c-.2,0-.4.1-.6.2s-.6,0-1,0-.7,0-1,0-.5,0-.7-.2c-.2,0-.3-.1-.4-.2,0,0-.1-.2-.1-.3V3.6c0-.1,0-.2.1-.3,0,0,.2-.2.4-.2.2,0,.4-.1.7-.2s.6,0,1,0,.8,0,1,0,.5,0,.6.2c.2,0,.3.1.4.2,0,0,.1.2.1.3v30.7h0Z"/>
    <path class="st6" d="M329.7,4.8c0,.3,0,.6,0,.8s0,.4-.2.6c0,.1-.2.2-.3.3-.1,0-.2,0-.3,0h-11.7v10.9h11.1c.1,0,.2,0,.3,0,.1,0,.2.1.3.3,0,.1.1.3.2.5s0,.5,0,.9,0,.6,0,.8,0,.4-.2.5c0,.1-.2.2-.3.3-.1,0-.2.1-.3.1h-11.1v13.3c0,.1,0,.2-.1.3,0,.1-.2.2-.4.2-.2,0-.4.1-.6.2s-.6,0-1,0-.7,0-1,0-.5,0-.7-.2c-.2,0-.3-.1-.4-.2s-.1-.2-.1-.3V4.7c0-.6.2-1.1.5-1.3.3-.2.7-.4,1.1-.4h14.4c.1,0,.2,0,.3,0,.1,0,.2.2.3.3,0,.2.1.3.2.6s0,.5,0,.8h0Z"/>
    <path class="st6" d="M362.1,33.2c0,.3,0,.6,0,.8s0,.4-.2.6c0,.2-.2.3-.3.3-.1,0-.2,0-.4,0h-15.3c-.4,0-.7-.1-1.1-.4-.3-.2-.5-.7-.5-1.3V4.7c0-.6.2-1.1.5-1.3.3-.2.7-.4,1.1-.4h15.2c.1,0,.2,0,.4,0s.2.2.3.3c0,.2.1.3.2.6,0,.2,0,.5,0,.8s0,.6,0,.8c0,.2-.1.4-.2.5s-.1.2-.3.3c-.1,0-.2,0-.4,0h-12.5v10h10.7c.1,0,.2,0,.4.1s.2.2.3.3c0,.1.1.3.2.5,0,.2,0,.5,0,.8s0,.5,0,.8c0,.2,0,.4-.2.5s-.2.2-.3.3c-.1,0-.2,0-.4,0h-10.7v11.4h12.7c.1,0,.2,0,.4.1s.2.2.3.3.1.3.2.5,0,.5,0,.8h0Z"/>
    <path class="st6" d="M398.6,34.3c0,.1,0,.2,0,.3,0,0-.2.2-.3.2-.2,0-.4.1-.7.2-.3,0-.7,0-1.2,0s-.8,0-1,0-.5,0-.6-.2c-.2,0-.3-.2-.4-.3s-.2-.3-.2-.5l-2.9-7.5c-.4-.9-.7-1.6-1.1-2.4s-.8-1.3-1.3-1.9-1.1-.9-1.8-1.2c-.7-.3-1.5-.4-2.5-.4h-2.8v13.6c0,.1,0,.2-.1.3,0,0-.2.2-.4.2-.2,0-.4.1-.6.2-.3,0-.6,0-1,0s-.8,0-1,0-.5,0-.6-.2-.3-.1-.4-.2c0,0-.1-.2-.1-.3V4.7c0-.6.2-1.1.5-1.3.3-.2.7-.4,1.1-.4h6.8c.8,0,1.5,0,2,0s1,0,1.4.1c1.2.2,2.3.5,3.3,1,1,.5,1.7,1.1,2.4,1.8.6.7,1.1,1.5,1.4,2.4.3.9.5,1.9.5,3s-.1,2-.4,2.9c-.3.9-.7,1.6-1.2,2.2-.5.6-1.2,1.2-2,1.7-.8.5-1.6.9-2.5,1.2.5.2,1,.5,1.4.9.4.4.8.8,1.2,1.3s.7,1.1,1,1.7c.3.6.7,1.4,1,2.2l2.9,7c.2.6.4,1,.4,1.2,0,.2.1.4.1.6h0ZM392.2,11.9c0-1.2-.3-2.3-.8-3.2-.6-.9-1.5-1.5-2.8-1.9-.4-.1-.9-.2-1.4-.2s-1.2,0-2,0h-3.6v10.8h4.1c1.1,0,2.1-.1,2.9-.4s1.5-.6,2-1.1c.5-.5.9-1.1,1.2-1.7.2-.7.4-1.4.4-2.1h0Z"/>
    <path class="st6" d="M175.9,84.8c0,.1,0,.2-.1.3s-.2.2-.4.2c-.2,0-.4.1-.6.2-.3,0-.6,0-1,0s-.8,0-1,0c-.3,0-.5,0-.6-.2-.2,0-.3-.1-.4-.2,0,0-.1-.2-.1-.3v-14.2h-14.5v14.2c0,.1,0,.2-.1.3s-.2.2-.4.2c-.2,0-.4.1-.6.2-.3,0-.6,0-1,0s-.7,0-1,0-.5,0-.7-.2c-.2,0-.3-.1-.4-.2s-.1-.2-.1-.3v-30.7c0-.1,0-.2.1-.3s.2-.2.4-.2c.2,0,.4-.1.7-.2s.6,0,1,0,.8,0,1,0,.5,0,.6.2c.2,0,.3.1.4.2,0,0,.1.2.1.3v12.8h14.5v-12.8c0-.1,0-.2.1-.3s.2-.2.4-.2c.2,0,.4-.1.6-.2s.6,0,1,0,.7,0,1,0,.5,0,.6.2c.2,0,.3.1.4.2,0,0,.1.2.1.3v30.7Z"/>
    <path class="st6" d="M217.1,69.2c0,2.6-.3,4.9-.9,7-.6,2.1-1.5,3.8-2.7,5.3-1.2,1.5-2.7,2.6-4.6,3.4-1.8.8-4,1.2-6.4,1.2s-4.5-.4-6.2-1.1-3.2-1.8-4.3-3.1c-1.1-1.4-2-3.1-2.6-5.1s-.8-4.3-.8-7,.3-4.8.9-6.9c.6-2.1,1.5-3.8,2.7-5.2s2.7-2.5,4.6-3.3,4-1.2,6.4-1.2,4.4.3,6.1,1.1c1.8.7,3.2,1.7,4.4,3.1,1.2,1.4,2,3,2.6,5,.6,2,.9,4.3.9,6.9h0ZM212.6,69.4c0-1.8-.2-3.5-.5-5.1-.3-1.6-.9-2.9-1.6-4-.8-1.1-1.8-2-3-2.7s-2.8-1-4.6-1-3.4.3-4.6,1-2.3,1.6-3,2.8c-.8,1.2-1.3,2.5-1.7,4s-.5,3.2-.5,4.8.2,3.6.5,5.2.8,2.9,1.6,4.1c.7,1.1,1.7,2,3,2.7,1.2.6,2.8.9,4.7.9s3.4-.3,4.7-1,2.3-1.6,3.1-2.8c.8-1.2,1.3-2.5,1.6-4.1.3-1.6.5-3.2.5-4.9h0Z"/>
    <path class="st6" d="M246.3,83.6c0,.3,0,.6,0,.8,0,.2,0,.4-.2.6,0,.2-.2.3-.3.3s-.2.1-.4.1h-14.1c-.4,0-.7-.1-1.1-.4-.3-.2-.5-.7-.5-1.3v-29.6c0-.1,0-.2.1-.3s.2-.2.4-.2c.2,0,.4-.1.7-.2s.6,0,1,0,.8,0,1,0,.5,0,.6.2c.2,0,.3.1.4.2,0,0,.1.2.1.3v27.6h11.5c.1,0,.3,0,.4.1s.2.2.3.3.1.3.2.6c0,.2,0,.5,0,.8h0Z"/>
    <path class="st6" d="M277.6,81c0,.3,0,.5,0,.7,0,.2,0,.4,0,.5,0,.2-.1.3-.2.4s-.2.2-.4.4-.5.4-1,.8c-.5.3-1.2.7-2,1s-1.7.6-2.7.8-2.1.3-3.3.3c-2.1,0-4-.3-5.6-1-1.7-.7-3.1-1.7-4.3-3.1s-2.1-3-2.7-5c-.6-2-.9-4.3-.9-6.8s.3-5,1-7.1c.7-2.1,1.6-3.8,2.9-5.3,1.2-1.4,2.7-2.5,4.4-3.3s3.6-1.1,5.7-1.1,1.8,0,2.7.3,1.7.4,2.4.7c.7.3,1.4.6,2,.9s1,.6,1.2.8c.2.2.4.4.4.5,0,.1.1.2.2.4s0,.3.1.6,0,.5,0,.8,0,.6,0,.8,0,.4-.1.6c0,.2-.1.3-.2.3,0,0-.2.1-.3.1-.2,0-.5-.2-1-.5-.4-.3-1-.7-1.6-1.1s-1.5-.7-2.4-1.1c-.9-.3-2.1-.5-3.4-.5s-2.7.3-3.9.8c-1.2.6-2.2,1.4-3,2.5-.8,1.1-1.5,2.5-1.9,4s-.7,3.4-.7,5.4.2,3.8.7,5.4c.4,1.6,1.1,2.9,1.9,3.9.8,1.1,1.8,1.8,3,2.4,1.2.5,2.5.8,4,.8s2.4-.2,3.3-.5,1.8-.7,2.4-1.1,1.2-.7,1.6-1.1c.4-.3.8-.5,1-.5s.2,0,.3,0c0,0,.1.1.2.3,0,.1,0,.3.1.6s0,.6,0,.9h0Z"/>
    <path class="st6" d="M315.5,69.2c0,2.6-.3,4.9-.9,7-.6,2.1-1.5,3.8-2.7,5.3-1.2,1.5-2.7,2.6-4.5,3.4-1.8.8-4,1.2-6.4,1.2s-4.5-.4-6.2-1.1-3.2-1.8-4.3-3.1c-1.1-1.4-2-3.1-2.6-5.1s-.8-4.3-.8-7,.3-4.8.9-6.9c.6-2.1,1.5-3.8,2.7-5.2s2.7-2.5,4.6-3.3,4-1.2,6.4-1.2,4.4.3,6.1,1.1c1.8.7,3.2,1.7,4.4,3.1,1.2,1.4,2,3,2.6,5,.6,2,.9,4.3.9,6.9h0ZM311,69.4c0-1.8-.2-3.5-.5-5.1-.3-1.6-.9-2.9-1.6-4-.8-1.1-1.8-2-3-2.7s-2.8-1-4.6-1-3.4.3-4.6,1-2.3,1.6-3,2.8c-.8,1.2-1.3,2.5-1.7,4s-.5,3.2-.5,4.8.2,3.6.5,5.2.8,2.9,1.6,4.1c.7,1.1,1.7,2,3,2.7,1.2.6,2.8.9,4.7.9s3.4-.3,4.7-1,2.3-1.6,3.1-2.8c.8-1.2,1.3-2.5,1.6-4.1s.5-3.2.5-4.9h0Z"/>
    <path class="st6" d="M362.9,84.8c0,.1,0,.2-.1.3s-.2.2-.4.2c-.2,0-.4.1-.6.2s-.6,0-1,0-.7,0-1,0-.5,0-.7-.2-.3-.1-.3-.2c0,0-.1-.2-.1-.3v-27.8h0l-11.3,27.9c0,.1-.1.2-.2.3,0,0-.2.2-.4.2s-.4,0-.6.1c-.2,0-.5,0-.9,0s-.6,0-.9,0c-.2,0-.5,0-.6-.1-.2,0-.3-.1-.4-.2s-.1-.2-.2-.3l-10.8-28h0v27.8c0,.1,0,.2-.1.3s-.2.2-.4.2c-.2,0-.4.1-.7.2s-.6,0-1,0-.8,0-1,0-.5,0-.6-.2c-.2,0-.3-.1-.3-.2s0-.2,0-.3v-29.4c0-.7.2-1.2.5-1.5.4-.3.8-.4,1.2-.4h2.6c.5,0,1,0,1.4.2s.8.3,1,.5.5.5.8.8c.2.3.4.7.5,1.2l9.1,23.1h.1l9.5-23.1c.2-.5.4-.9.6-1.3s.5-.6.7-.8c.3-.2.5-.3.9-.4s.7-.1,1.1-.1h2.7c.2,0,.5,0,.7.1.2,0,.4.2.6.3.2.2.3.3.4.6s.1.5.1.9v29.4h0Z"/>
    <path class="st6" d="M398.3,76.3c0,1-.1,1.9-.4,2.8s-.6,1.6-1.1,2.3c-.5.7-1,1.3-1.7,1.8-.6.5-1.4.9-2.2,1.3-.8.3-1.7.6-2.6.8s-2,.3-3.2.3h-8.3c-.4,0-.7-.1-1.1-.4-.3-.2-.5-.7-.5-1.3v-28.5c0-.6.2-1.1.5-1.3.3-.2.7-.4,1.1-.4h7.3c1.9,0,3.5.2,4.7.5s2.2.9,3,1.6,1.4,1.5,1.8,2.5.6,2.1.6,3.4,0,1.5-.3,2.2c-.2.7-.5,1.3-.8,1.9-.4.6-.8,1.1-1.3,1.6s-1.1.8-1.8,1.1c.9.2,1.7.5,2.4.9.8.4,1.4,1,2,1.7.6.7,1,1.5,1.4,2.4.3.9.5,1.9.5,3h0ZM391.9,62c0-.8-.1-1.5-.3-2.1-.2-.6-.5-1.2-1-1.6s-1.1-.8-1.8-1-1.7-.3-2.9-.3h-4.4v10.3h4.8c1.1,0,2-.1,2.7-.4s1.2-.7,1.7-1.2.8-1.1,1-1.7c.2-.7.3-1.3.3-2ZM393.8,76.6c0-.9-.1-1.8-.5-2.5-.3-.7-.8-1.3-1.3-1.8-.6-.5-1.3-.9-2.2-1.1s-2-.4-3.3-.4h-5.1v11.3h6.2c1,0,1.8-.1,2.5-.3s1.4-.6,1.9-1c.5-.4,1-1,1.3-1.7.3-.7.5-1.5.5-2.3h0Z"/>
  </g>
</svg>