<?xml version="1.0" encoding="UTF-8"?>
<svg id="Layer_1" data-name="Layer 1" xmlns="http://www.w3.org/2000/svg" version="1.1" viewBox="0 0 270 72">
  <defs>
    <style>
      .cls-1 {
        fill: #fff200;
      }

      .cls-1, .cls-2 {
        stroke-width: 0px;
      }

      .cls-2 {
        fill: #2e3192;
      }

      .cls-3 {
        fill: none;
        stroke: #fff200;
        stroke-miterlimit: 10;
        stroke-width: 1.83px;
      }
    </style>
  </defs>
  <g>
    <path class="cls-2" d="M264.94,14.28c2.23,0,3.08.95,2.4,3.81l-6.83,34.2c-1.13,4.44-.45,5.04-4.2,5.1h-9.11c-2.77-.03-2.42-.22-2.55-2.25-.04-.57-.05-.88-.1-2.47l1.67-.64c.04.11.09.2.14.25.28.29.99.24,1.99.24h3.57c1.49.01,2.3.1,2.68-.22.44-.36.66-1.59,1.09-3.42l5.48-26.96c.2-1.02.44-1.85.21-2.08-.36-.36-.46-.26-1.82-.26h-3.99c-.89,0-1.78-.1-2.05.27-.09.11-.18.5-.27.91l-1.47-.27c.12-.53.34-1.85.54-3.09.46-2.78.69-3.16,3.26-3.14h9.36Z"/>
    <path class="cls-1" d="M261.38,19.86c.23.23,0,1.06-.21,2.08l-5.48,26.96c-.43,1.83-.65,3.06-1.09,3.42-.38.31-1.19.23-2.68.22h-3.57c-1,0-1.71.05-1.99-.24-.05-.06-.1-.15-.14-.25-.17-.5-.27-1.4-.28-1.78l-.51-8.16c0-.47-.09-1.82-.14-2.89-.18,1.21-.42,2.42-.51,2.89l-1.61,8.56c-.17.76-.25,1.45-.48,1.7-.19.21-1.01.18-1.63.18h-4.75c-.62,0-1.25,0-1.42-.33-.18-.37.07-1.28.12-1.62l5.48-28.41c.19-.93.34-2.06.74-2.31.41-.25,1.3-.26,2.04-.26h4.6c.52,0,1.56-.04,1.81.13.3.2.25.98.3,1.71l.63,10.42c.02.38.11,1.75.18,2.37.17-.88.35-1.99.43-2.42l1.89-10.32c.04-.22.1-.48.14-.72.09-.41.18-.79.27-.91.27-.37,1.16-.27,2.05-.27h3.99c1.36,0,1.46-.1,1.82.26Z"/>
    <path class="cls-2" d="M209.33,30.72c-.03.06-.19.31-.88.42-2.43.36-4.04.19-6.23.12,2.27,2.06,3.26,3.12,4.04,7.33l3.07-7.87ZM217.85,51.98l-.73,2.76c-.63,2.51-1.42,2.55-3.58,2.67,0,0-9-.01-9.8-.06-.79-.04-1.35-.32-1.43-.6-.63.77-1.71,2.6-4.32,4.35-3.44,2.3-8.44,3.3-13.99,3.53-1.42.06-4.93-.3-7.71-1.09-6.3-1.8-8.82-6.07-9.88-8.61-1.47-3.54-2.06-6.9-1.39-10.58-3.03.11-12.04,0-13.45-.06-2.04-.08-2.72-.05-2.2-2.93l-2.18,11.25c-.76,3.69-.79,4.78-2.93,4.79h-15.54c-2.17.01-1.66-1.92-1.24-4.67-.8,2.77-.66,4.67-3.4,4.67h-19.14c-2.17,0-3.56-.37-2.68-4.67-.88,3.38-.97,4.67-3.45,4.67h-18.11c-3.09.07-2.8-1.15-2.1-4.57l.02-.1c-.95,3.36-.3,4.67-4.74,4.67h-16.72c-1.74-.03-2.11-.64-2.11-.64-.57.89-1.72,2.11-3.02,3.16-2.81,2.27-5.62,3.64-11.36,4.43-4.94.67-11.09.31-11.09.31-6.04-.17-9.97.1-11.54-4.08-.58-1.56-15.62-47.2-16.04-48.59-1.02-3.44.13-6.34,8.18-6.81,6.67-.39,7.83-.43,11.99-.44,4.02-.01,7.09-.17,11.7,1.02,3.72.95,6.27,3.36,7.64,7.75,1.02,3.27.21,5.73.03,7.24-.02.17.18.41.39.45,2.11.38,3.33.65,5.2,1.3,1.8.62,3.9,2.12,5.38,3.79,1.61,1.82,1.89,2.63,3,4.84.67,1.33,1.46,3.59,1.5,3.8,2.18-9.77,1.4-7.54,3-14.96.95-4.37,1.49-5.74,5.19-5.69h18.83c2.46.01,1.4,2.79.97,4.91.44-1.58.84-4.96,4.55-4.9h11.25c3.39,0,4.56.9,3.19,5.17,0,0-4.36,14.6-5.64,20.43h5.46s5.29-21.33,5.29-21.33c.48-2.06.65-4.12,3.67-4.28h12.16c2.44.05,2.56.77,2.63,1.49l.08,1.12c.23-1.22-.22-2.55,2.62-2.61h9.49c2.39.11,3.07.64,3.3,3.2,0,0,.1,2.59.12,2.59.33-1.03.86-2.44.86-2.44.86-2.01,1.65-3.35,3.84-3.35l9.02.03c4.9.08,4.11,2.18,2.91,4.69-.72,1.52-4.37,8.58-6.9,13.33.09-.17.79-.2,1.33-.2.39,0,10.66-.08,14.6-.01,1.77.03,2.78.25,1.41,4.33-.02.05-.2.48-.26.83.43-.73,2.24-.21,6.16-.21-2.48-2.47-3.55-6.81-3.68-10.9-.04-1.42.56-7.04,4.05-12.01,1.64-2.33,3.92-4.56,6.67-6.08,3.55-1.97,8.01-2.68,11.16-2.67,10.55.02,15.31,5.15,17.12,9.55,1.08,2.62.72,5.39.76,8.06,0,.49.03.78-.02,1.29l2.52-6.51c.91-2.22,1.88-3.49,3.59-3.49h12.88c2.19,0,2.95.16,2.95,3.95v12.07l2.01-12.11c.56-2.76.58-3.9,4.4-3.9h7.85c3.94,0,3.38.63,3.38,4.76v1.47s1.45.27,1.45.27c-.04.25-.1.51-.14.72l-1.89,10.32c-.08.43-.26,1.54-.43,2.42-.08-.63-.17-1.99-.18-2.37l-.63-10.42c-.04-.72,0-1.51-.3-1.71-.25-.17-1.29-.13-1.81-.13h-4.6c-.74,0-1.63,0-2.04.26-.4.25-.55,1.38-.74,2.31l-5.48,28.41c-.05.34-.3,1.24-.12,1.62.17.33.79.33,1.42.33h4.75c.62,0,1.43.03,1.63-.18.22-.24.31-.93.48-1.7l1.61-8.56c.1-.47.34-1.68.51-2.89.05,1.07.14,2.42.14,2.89l.51,8.16c.01.38.11,1.29.28,1.78l-1.67.64-.23,1.61c-.55,2.71-.13,3.08-2.72,3.12h-9.2c-1.8.02-.99-1.71-.65-4.67-.66,2.91-.81,4.71-2.2,4.67h-10.18c-2.43-.04-1.89-1.36-1.81-2.65,0,0,.26-2.46.3-2.77ZM129.28,40.19l.07-.42c.19-.81.22-1.65.03-2.84l-1.92-17.15c-.16,1.02-4.89,19.35-5.02,19.98.61.03,6.15.14,6.15.14.13,0,.39.1.7.29ZM228.83,50.26c.05-1.23.19-25.07.1-28.92-.01-.46-.06-1.27-.29-1.53-.3-.32-.95-.3-1.76-.3h-6.15c-.64,0-1.6-.1-2.03.36-.2.21-.61,1.06-.89,1.76l-10.95,28.24c-.27.7-.8,1.91-.69,2.26.17.5,1.36.41,2.01.41h5.11c.56,0,1.28.01,1.47-.17.21-.21.52-1.17.74-1.73l1.37-4.38c.05-.13.11-.34.18-.4.06-.07.23-.07.34-.07h2.59c.13,0,.52.02.57.06.07.05.06.23.06.34l-.42,4.7c-.03.35-.09,1.16.04,1.38.15.24.84.27,1.42.27h5.07c.31,0,1.58.04,1.79-.17.36-.36.28-.88.32-2.11ZM206.73,23.57c.23-7.46-1.16-13.21-12.72-13.22-7.59-.01-14.21,5.57-15.38,11.93-.84,4.61.6,10.06,4.67,13.78,5.22,4.77,5.49,6.91,4.98,9.45-.35,1.75-1.95,2.53-3.44,2.44-1.66-.1-2.55-1.25-2.65-1.92-.17-1.09.48-2.94.13-3.33-.51-.57-2.55-.66-4.46-.86l-4.06-.18c-1.14-.02-1.6-.15-2.23.33-.48.36-1.02,2.1-1.2,3.52-.49,3.85.61,7.13,2.39,9.17,2.11,2.42,4.29,4.08,8.09,4.5,7.1.77,13.68-.74,17.58-5.9,1.49-1.96,3.21-4.9,3.5-8.21.46-5.28-.65-8.95-5.45-13.09-3.54-3.06-6.5-6.27-5.97-8.41.17-.67.63-2.22,2.7-2.38,1.22-.1,2.66,1,2.44,2.69-.06.47-.04,1.54.73,1.92.5.25,1.47.22,2.49.22l4.18.07c1.32-.05,2.36.06,2.74-.12.39-.19.6-.44.74-.76.17-.38.2-.84.22-1.66ZM165.38,36.78c.07-.29.2-.81,0-.97-.26-.22-.98-.17-1.35-.17h-8.82c-.39,0-1.07,0-1.3.13-.25.16-.35.58-.41.82-.15.57-.59,2.31-.69,2.69-.07.29-.14.66-.04.91.15.36,1.07.3,1.58.3.98,0,7.83,0,8.42,0,.49,0,1.4.03,1.59-.14.23-.2.3-.72.41-1.06.12-.37.55-2.24.62-2.51ZM152.45,22.82c.38-.77,1.45-2.58,1.38-3.09-.07-.48-1.1-.35-2.44-.37h-4.22c-.5,0-1.45-.1-1.76.34-.15.21-.5.93-.76,1.56l-3.57,8.69c-.23.52-.21.44-.74,1.74.02-1.14.05-1.82.05-2.06l.14-8.1c.02-1.09.07-1.62-.21-1.94-.22-.27-1.06-.23-1.4-.23h-5.03c-.71,0-2.08-.11-2.39.37-.17.27.03,1.59.18,2.62l2.15,15.31c.13,1.03.11,1.59-.03,2.29l-1.9,9.62c-.16.8-.5,2.27-.21,2.59.37.43,1.52.37,2.52.37h5.15c.48,0,1.67.08,1.97-.39.19-.29.36-1.13.57-2.16l1.75-9.46c.1-.51.58-1.82.88-2.48l7.94-15.22ZM125.18,46.16c.13-.79.39-1.62.06-1.93-.33-.31-1.75-.26-1.95-.26h-6.64c-.26-.04-.32-.01-.22-.33l5.38-21.43c.26-1.24.53-2.36.29-2.57-.34-.29-1.23-.27-2.11-.27h-4.13c-.74,0-1.58,0-1.99.25-.26.16-.39,1.23-.5,1.68l-6.53,28.18c-.22.97-.44,2.27-.02,2.72.37.41,1.94.35,3,.35h10.79c.7,0,2.35-.04,2.72-.3.44-.3.72-.71.97-1.9l.88-4.18ZM101.25,46.16c.22-.86.39-1.62.06-1.93-.33-.31-1.75-.26-1.95-.26h-6.84c-.26-.04-.32-.01-.22-.33l6.01-21.43c.26-1.24.53-2.36.29-2.57-.34-.29-1.23-.27-2.11-.27h-4.13c-.74,0-1.5-.05-1.91.21-.26.16-.47,1.27-.57,1.72l-7.16,28.18c-.22.97-.44,2.27-.02,2.72.37.41,1.94.35,3,.35h10.79c.7,0,2.22.04,2.59-.22.44-.29.59-.37,1.07-1.95l1.11-4.22ZM81.17,22.07c.24-.99.36-1.85-.1-2.27-.51-.47-1.53-.44-2.22-.44h-9.85c-.79,0-2.59-.23-3.03.57-.18.34-.68,2.1-.95,3.4l-6.24,25.41c-.23,1.22-.6,2.63-.02,3.28.47.52,2.1.52,2.85.52h10.37c.9,0,2.42.12,3-.31.47-.36.73-.97,1.15-2.74l.9-3.6c.23-1.23-.04-1.3-.3-1.57-.25-.28-1.3-.34-1.84-.33l-7.29.03c-.07,0-.18,0-.23-.05-.04-.06-.01-.18,0-.27l.79-3.66c.03-.13.06-.28.14-.34.07-.05.18-.03.27-.03l4.27-.03c.13,0,1.04.02,1.19-.22.16-.26.31-.8.43-1.29l1.09-4.43c.1-.49.27-1.17.17-1.32-.18-.27-1.01-.2-1.13-.2h-4.37c-.07.01-.22,0-.28-.06-.05-.06,0-.17,0-.26l.87-4.04c.02-.09.05-.22.09-.26.06-.08.21-.06.31-.06l5.21-.03c.74,0,2.7.06,3.1-.29.36-.32.65-1.11.81-1.8l.84-3.3ZM53.46,45.96c.62-4.11-.36-8.5-1.75-11.54-1.57-3.42-3.09-4.95-5.08-6.44-1.1-.83-3.05-1.66-5.08-2.03-2.18-.39-3.13-.5-6.22-.47.8-1.56,2.74-6.51,1.99-9.72-.41-1.74-.88-3.43-3.94-4.98-2.34-1.19-5.17-1.29-8.7-1.23-4.46.08-8.45-.04-12.19.49-3.87.55-4.75,1.84-3.84,5.25,0,0,12.73,37.25,14.35,42.05.68,2.02,3.4,1.97,6.18,2.02,0,0,5.62-.02,7.45-.01,3.44.01,9.97-1.24,13.17-4.98,2.37-2.77,3.08-4.54,3.66-8.41Z"/>
    <path class="cls-1" d="M228.92,21.34c.1,3.85-.04,27.69-.1,28.92-.04,1.23.03,1.75-.32,2.11-.21.22-1.48.17-1.79.17h-5.07c-.58,0-1.27-.03-1.42-.27-.13-.22-.07-1.03-.04-1.38l.42-4.7c0-.11,0-.29-.06-.34-.04-.04-.43-.06-.57-.06h-2.59c-.1,0-.28,0-.34.07-.06.06-.13.27-.18.4l-1.37,4.38c-.22.56-.53,1.52-.74,1.73-.18.18-.91.17-1.47.17h-5.11c-.65,0-1.84.08-2.01-.41-.11-.35.41-1.56.69-2.26l10.95-28.24c.28-.7.69-1.56.89-1.76.43-.45,1.38-.36,2.03-.36h6.15c.81,0,1.46-.03,1.76.3.23.26.28,1.07.29,1.53ZM221.49,34.87c.05-.83.01-.12.35-4.16-.73,2.16-1.63,4.65-1.99,5.61l-1.43,4.21c-.08.19-.13.37-.08.44s.25.11.39.11c1.6,0,2.08.04,2.25-.04.08-.04.1-.29.11-.45l.39-5.71Z"/>
    <path class="cls-2" d="M221.84,30.71c-.34,4.04-.3,3.33-.35,4.16l-.39,5.71c-.01.16-.03.41-.11.45-.18.08-.65.04-2.25.04-.15,0-.34-.03-.39-.11s0-.25.08-.44l1.43-4.21c.36-.95,1.26-3.44,1.99-5.61Z"/>
    <path class="cls-1" d="M194.01,10.35c11.56.02,12.95,5.76,12.72,13.22-.03.81-.05,1.28-.22,1.66-.14.31-.35.57-.74.76-.37.18-1.42.07-2.74.12l-4.18-.07c-1.02,0-1.99.03-2.49-.22-.77-.39-.79-1.45-.73-1.92.22-1.68-1.23-2.78-2.44-2.69-2.06.16-2.53,1.71-2.7,2.38-.53,2.14,2.44,5.35,5.97,8.41,4.8,4.14,5.91,7.8,5.45,13.09-.29,3.31-2.01,6.25-3.5,8.21-3.9,5.16-10.48,6.67-17.58,5.9-3.81-.41-5.98-2.08-8.09-4.5-1.78-2.04-2.88-5.32-2.39-9.17.18-1.43.72-3.17,1.2-3.52.63-.48,1.1-.35,2.23-.33l4.06.18c1.92.2,3.96.29,4.46.86.34.39-.3,2.24-.13,3.33.1.67,1,1.82,2.65,1.92,1.49.09,3.09-.7,3.44-2.44.51-2.55.24-4.68-4.98-9.45-4.08-3.73-5.52-9.17-4.67-13.78,1.17-6.36,7.8-11.94,15.38-11.93Z"/>
    <path class="cls-1" d="M165.38,35.81c.2.16.07.68,0,.97-.07.27-.5,2.13-.62,2.51-.1.34-.18.86-.41,1.06-.19.17-1.1.15-1.59.14-.6,0-7.45,0-8.42,0-.51,0-1.43.05-1.58-.3-.1-.25-.03-.62.04-.91.1-.37.54-2.12.69-2.69.06-.24.16-.66.41-.82.23-.14.91-.13,1.3-.13h8.82c.37,0,1.09-.05,1.35.17Z"/>
    <path class="cls-1" d="M153.83,19.73c.07.51-1,2.32-1.38,3.09l-7.94,15.22c-.3.66-.78,1.97-.88,2.48l-1.75,9.46c-.22,1.03-.38,1.87-.57,2.16-.3.46-1.49.39-1.97.39h-5.15c-1,0-2.15.06-2.52-.37-.29-.32.05-1.79.21-2.59l1.9-9.62c.13-.7.15-1.26.03-2.29l-2.15-15.31c-.15-1.02-.35-2.34-.18-2.62.31-.49,1.68-.37,2.39-.37h5.03c.34,0,1.17-.04,1.4.23.28.32.23.85.21,1.94l-.14,8.1c0,.23-.03.92-.05,2.06.53-1.3.51-1.22.74-1.74l3.57-8.69c.27-.63.61-1.35.76-1.56.3-.44,1.26-.34,1.76-.34h4.22c1.34.02,2.37-.11,2.44.37Z"/>
    <path class="cls-1" d="M125.24,44.23c.34.31.08,1.14-.06,1.93l-.88,4.18c-.25,1.19-.53,1.61-.97,1.9-.37.25-2.02.3-2.72.3h-10.79c-1.06,0-2.62.06-3-.35-.42-.46-.2-1.76.02-2.72l6.53-28.18c.1-.45.23-1.52.5-1.68.41-.26,1.24-.25,1.99-.25h4.13c.88,0,1.77-.02,2.11.27.24.21-.03,1.33-.29,2.57l-5.38,21.43c-.1.32-.04.29.22.33h6.64c.2,0,1.62-.05,1.95.26Z"/>
    <path class="cls-1" d="M101.31,44.23c.34.31.17,1.07-.06,1.93l-1.11,4.22c-.48,1.57-.62,1.66-1.07,1.95-.37.25-1.89.22-2.59.22h-10.79c-1.06,0-2.62.06-3-.35-.42-.46-.2-1.76.02-2.72l7.16-28.18c.1-.45.31-1.56.57-1.72.41-.26,1.17-.21,1.91-.21h4.13c.88,0,1.77-.02,2.11.27.24.21-.03,1.33-.29,2.57l-6.01,21.43c-.1.32-.04.29.22.33h6.84c.2,0,1.62-.05,1.95.26Z"/>
    <path class="cls-1" d="M81.06,19.8c.46.41.34,1.28.1,2.27l-.84,3.3c-.16.69-.44,1.49-.81,1.8-.41.36-2.37.29-3.1.29l-5.21.03c-.1,0-.25-.01-.31.06-.04.04-.07.17-.09.26l-.87,4.04c-.01.1-.06.2,0,.26.06.06.21.07.28.07h4.37c.12-.01.95-.08,1.13.19.1.15-.06.83-.17,1.32l-1.09,4.43c-.11.49-.27,1.03-.43,1.29-.15.23-1.06.22-1.19.22l-4.27.03c-.08,0-.2-.02-.27.03-.08.06-.11.22-.14.34l-.79,3.66c-.02.1-.04.22,0,.27.04.06.16.05.23.05l7.29-.03c.55,0,1.59.05,1.84.33.25.27.53.35.3,1.57l-.9,3.6c-.42,1.77-.68,2.38-1.15,2.74-.58.43-2.1.31-3,.31h-10.37c-.75,0-2.38,0-2.85-.52-.58-.65-.21-2.06.02-3.28l6.24-25.41c.27-1.3.77-3.06.95-3.4.44-.79,2.24-.57,3.03-.57h9.85c.69,0,1.7-.03,2.22.44Z"/>
    <path class="cls-1" d="M51.71,34.42c1.4,3.04,2.37,7.43,1.75,11.54-.58,3.87-1.29,5.64-3.66,8.41-3.2,3.74-9.73,4.99-13.17,4.98-1.83,0-7.45.01-7.45.01-2.79-.04-5.5,0-6.18-2.02-1.62-4.8-14.35-42.05-14.35-42.05-.91-3.41-.03-4.7,3.84-5.25,3.74-.53,7.73-.41,12.19-.49,3.54-.06,6.36.04,8.7,1.23,3.07,1.56,3.54,3.24,3.94,4.98.74,3.21-1.19,8.16-1.99,9.72,3.09-.03,4.04.08,6.22.47,2.03.36,3.98,1.2,5.08,2.03,1.99,1.49,3.51,3.02,5.08,6.44ZM36.52,47.48c3.29-.66,5.03-3.42,4.13-6.58-1.1-3.88-3.16-5.2-6.23-5.19-1.24,0-3.39.06-4.94.19-.93.07-1.38.13-1.59.46-.19.29.1,1.08.1,1.08l3.17,9.71s.17.53.69.53c.88,0,3.17.11,4.69-.2ZM27.16,25.18c1.04-1.74.69-4.23-.21-5.59-.9-1.37-2.64-1.67-5.41-.93-.08.02-.17.24-.17.24l2.98,8.79s.14.2.27.18c.58-.11,1.34-.69,2.53-2.69Z"/>
    <path class="cls-2" d="M40.65,40.89c.9,3.17-.84,5.92-4.13,6.58-1.52.3-3.82.2-4.69.2-.52,0-.69-.53-.69-.53l-3.17-9.71s-.29-.79-.1-1.08c.22-.32.66-.39,1.59-.46,1.55-.13,3.7-.19,4.94-.19,3.08-.01,5.13,1.31,6.23,5.19Z"/>
    <path class="cls-2" d="M26.95,19.6c.9,1.36,1.25,3.85.21,5.59-1.19,2-1.96,2.58-2.53,2.69-.13.03-.27-.18-.27-.18l-2.98-8.79s.1-.22.17-.24c2.77-.74,4.51-.44,5.41.93Z"/>
  </g>
  <g>
    <path class="cls-3" d="M131.67,22.35c-.15-1.02-.35-2.34-.18-2.62.31-.49,1.68-.37,2.39-.37h5.03c.34,0,1.17-.04,1.4.23.28.32.23.85.21,1.94l-.14,8.1c0,.23-.03.92-.05,2.06.53-1.3.51-1.22.74-1.74l3.57-8.69c.27-.63.61-1.35.76-1.56.3-.44,1.26-.34,1.76-.34h4.22c1.34.02,2.37-.11,2.44.37.07.51-1,2.32-1.38,3.09l-7.94,15.22c-.3.66-.78,1.97-.88,2.48l-1.75,9.46c-.22,1.03-.38,1.87-.57,2.16-.3.46-1.49.39-1.97.39h-5.15c-1,0-2.15.06-2.52-.37-.29-.32.05-1.79.21-2.59l1.9-9.62c.13-.7.15-1.26.03-2.29l-2.15-15.31Z"/>
    <path class="cls-3" d="M99.36,43.97c.2,0,1.62-.05,1.95.26.34.31.17,1.07-.06,1.93l-1.11,4.22c-.48,1.57-.62,1.66-1.07,1.95-.37.25-1.89.22-2.59.22h-10.79c-1.06,0-2.62.06-3-.35-.42-.46-.2-1.76.02-2.72l7.16-28.18c.1-.45.31-1.56.57-1.72.41-.26,1.17-.21,1.91-.21h4.13c.88,0,1.77-.02,2.11.27.24.21-.03,1.33-.29,2.57l-6.01,21.43c-.1.32-.04.29.22.33h6.84Z"/>
    <path class="cls-3" d="M123.29,43.97c.2,0,1.62-.05,1.95.26.34.31.08,1.14-.06,1.93l-.88,4.18c-.25,1.19-.53,1.61-.97,1.9-.37.25-2.02.3-2.72.3h-10.79c-1.06,0-2.62.06-3-.35-.42-.46-.2-1.76.02-2.72l6.53-28.18c.1-.45.23-1.52.5-1.68.41-.26,1.24-.25,1.99-.25h4.13c.88,0,1.77-.02,2.11.27.24.21-.03,1.33-.29,2.57l-5.38,21.43c-.1.32-.04.29.22.33h6.64Z"/>
    <path class="cls-3" d="M65.01,23.32c.27-1.3.77-3.06.95-3.4.44-.79,2.24-.57,3.03-.57h9.85c.69,0,1.7-.03,2.22.44.46.41.34,1.28.1,2.27l-.84,3.3c-.16.69-.44,1.49-.81,1.8-.41.36-2.37.29-3.1.29l-5.21.03c-.1,0-.25-.01-.31.06-.04.04-.07.17-.09.26l-.87,4.04c-.01.1-.06.2,0,.26.06.06.21.07.28.07h4.37c.12-.01.95-.08,1.13.19.1.15-.06.83-.17,1.32l-1.09,4.43c-.11.49-.27,1.03-.43,1.29-.15.23-1.06.22-1.19.22l-4.27.03c-.08,0-.2-.02-.27.03-.08.06-.11.22-.14.34l-.79,3.66c-.02.1-.04.22,0,.27.04.06.16.05.23.05l7.29-.03c.55,0,1.59.05,1.84.33.25.27.53.35.3,1.57l-.9,3.6c-.42,1.77-.68,2.38-1.15,2.74-.58.43-2.1.31-3,.31h-10.37c-.75,0-2.38,0-2.85-.52-.58-.65-.21-2.06.02-3.28l6.24-25.41Z"/>
    <path class="cls-3" d="M226.87,19.51c.81,0,1.46-.03,1.76.3.23.26.28,1.07.29,1.53.1,3.85-.04,27.69-.1,28.92-.04,1.23.03,1.75-.32,2.11-.21.22-1.48.17-1.79.17h-5.07c-.58,0-1.27-.03-1.42-.27-.13-.22-.07-1.03-.04-1.38l.42-4.7c0-.11,0-.29-.06-.34-.04-.04-.43-.06-.57-.06h-2.59c-.1,0-.28,0-.34.07-.06.06-.13.27-.18.4l-1.37,4.38c-.22.56-.53,1.52-.74,1.73-.18.18-.91.17-1.47.17h-5.11c-.65,0-1.84.08-2.01-.41-.11-.35.41-1.56.69-2.26l10.95-28.24c.28-.7.69-1.56.89-1.76.43-.45,1.38-.36,2.03-.36h6.15Z"/>
    <path class="cls-3" d="M246.21,52.03c-.17-.5-.27-1.4-.28-1.78l-.51-8.16c0-.47-.09-1.82-.14-2.89-.18,1.21-.42,2.42-.51,2.89l-1.61,8.56c-.17.76-.25,1.45-.48,1.7-.19.21-1.01.18-1.63.18h-4.75c-.62,0-1.25,0-1.42-.33-.18-.37.07-1.28.12-1.62l5.48-28.41c.19-.93.34-2.06.74-2.31.41-.25,1.3-.26,2.04-.26h4.6c.52,0,1.56-.04,1.81.13.3.2.25.98.3,1.71l.63,10.42c.02.38.11,1.75.18,2.37.17-.88.35-1.99.43-2.42l1.89-10.32c.04-.22.1-.48.14-.72.09-.41.18-.79.27-.91.27-.37,1.16-.27,2.05-.27h3.99c1.36,0,1.46-.1,1.82.26.23.23,0,1.06-.21,2.08l-5.48,26.96c-.43,1.83-.65,3.06-1.09,3.42-.38.31-1.19.23-2.68.22h-3.57c-1,0-1.71.05-1.99-.24-.05-.06-.1-.15-.14-.25Z"/>
    <path class="cls-3" d="M198.86,26.04c-1.02,0-1.99.03-2.49-.22-.77-.39-.79-1.45-.73-1.92.22-1.68-1.23-2.78-2.44-2.69-2.06.16-2.53,1.71-2.7,2.38-.53,2.14,2.44,5.35,5.97,8.41,4.8,4.14,5.91,7.8,5.45,13.09-.29,3.31-2.01,6.25-3.5,8.21-3.9,5.16-10.48,6.67-17.58,5.9-3.81-.41-5.98-2.08-8.09-4.5-1.78-2.04-2.88-5.32-2.39-9.17.18-1.43.72-3.17,1.2-3.52.63-.48,1.1-.35,2.23-.33l4.06.18c1.92.2,3.96.29,4.46.86.34.39-.3,2.24-.13,3.33.1.67,1,1.82,2.65,1.92,1.49.09,3.09-.7,3.44-2.44.51-2.55.24-4.68-4.98-9.45-4.08-3.73-5.52-9.17-4.67-13.78,1.17-6.36,7.8-11.94,15.38-11.93,11.56.02,12.95,5.76,12.72,13.22-.03.81-.05,1.28-.22,1.66-.14.31-.35.57-.74.76-.37.18-1.42.07-2.74.12l-4.18-.07Z"/>
    <path class="cls-3" d="M51.71,34.42c-1.57-3.42-3.09-4.95-5.08-6.44-1.1-.83-3.05-1.66-5.08-2.03-2.18-.39-3.13-.5-6.22-.47.8-1.56,2.74-6.51,1.99-9.72-.41-1.74-.88-3.43-3.94-4.98-2.34-1.19-5.17-1.29-8.7-1.23-4.46.08-8.45-.04-12.19.49-3.87.55-4.75,1.84-3.84,5.25,0,0,12.73,37.25,14.35,42.05.68,2.02,3.4,1.97,6.18,2.02,0,0,5.62-.02,7.45-.01,3.44.01,9.97-1.24,13.17-4.98,2.37-2.77,3.08-4.54,3.66-8.41.62-4.11-.36-8.5-1.75-11.54Z"/>
  </g>
</svg>