<?xml version="1.0" encoding="UTF-8"?>
<svg xmlns="http://www.w3.org/2000/svg" version="1.1" viewBox="0 0 720 460">
  <defs>
    <style>
      .cls-1 {
        fill: #fff;
      }

      .cls-1, .cls-2, .cls-3, .cls-4, .cls-5, .cls-6 {
        stroke-miterlimit: 10;
        stroke-width: 2.5px;
      }

      .cls-1, .cls-3, .cls-4, .cls-5, .cls-6 {
        stroke: #b9a99d;
      }

      .cls-2 {
        stroke: #232323;
      }

      .cls-2, .cls-3, .cls-4, .cls-5, .cls-6 {
        fill: none;
      }

      .cls-3 {
        stroke-dasharray: 12;
      }

      .cls-4 {
        stroke-dasharray: 12.3 12.3;
      }

      .cls-7 {
        font-size: 12px;
      }

      .cls-7, .cls-8 {
        fill: #232323;
        font-family: Inconsolata-SemiBold, Inconsolata;
        font-weight: 600;
      }

      .cls-5 {
        stroke-dasharray: 11.8 11.8;
      }

      .cls-8 {
        font-size: 14px;
      }
    </style>
  </defs>
  <!-- Generator: Adobe Illustrator 28.6.0, SVG Export Plug-In . SVG Version: 1.2.0 Build 709)  -->
  <g>
    <g id="Layer_1">
      <g>
        <rect class="cls-1" x="318.6" y="3.9" width="113.9" height="30.5"/>
        <text class="cls-8" transform="translate(361.6 23.1)"><tspan x="0" y="0">Home</tspan></text>
      </g>
      <g>
        <rect class="cls-1" x="451.1" y="3.9" width="113.9" height="30.5"/>
        <text class="cls-8" transform="translate(462.5 23.1)"><tspan x="0" y="0">Shopping List</tspan></text>
      </g>
      <g>
        <rect class="cls-1" x="174.9" y="81.9" width="113.9" height="30.5"/>
        <text class="cls-8" transform="translate(203.9 101.1)"><tspan x="0" y="0">Invoices</tspan></text>
      </g>
      <g>
        <rect class="cls-1" x="31.2" y="81.9" width="113.9" height="30.5"/>
        <text class="cls-8" transform="translate(70.6 101.1)"><tspan x="0" y="0">Goods</tspan></text>
      </g>
      <g>
        <rect class="cls-1" x="31.2" y="163.1" width="113.9" height="30.5"/>
        <text class="cls-7" transform="translate(37.1 181)"><tspan x="0" y="0">Goods by Category</tspan></text>
      </g>
      <g>
        <rect class="cls-1" x="31.2" y="215.8" width="113.9" height="30.5"/>
        <text class="cls-7" transform="translate(67.1 233.6)"><tspan x="0" y="0">Product</tspan></text>
      </g>
      <g>
        <rect class="cls-1" x="453.4" y="81.9" width="113.9" height="30.5"/>
        <text class="cls-8" transform="translate(485.8 101.1)"><tspan x="0" y="0">Reports</tspan></text>
      </g>
      <g>
        <rect class="cls-1" x="588.1" y="81.9" width="113.9" height="30.5"/>
        <text class="cls-8" transform="translate(620.5 101.1)"><tspan x="0" y="0">Account</tspan></text>
      </g>
      <g>
        <rect class="cls-1" x="318.7" y="81.9" width="113.9" height="30.5"/>
        <text class="cls-8" transform="translate(323.1 101.1)"><tspan x="0" y="0">Count Inventory</tspan></text>
      </g>
      <polyline class="cls-6" points="308.3 63.9 240.9 63.9 88.1 63.9 88.1 81.9"/>
      <line class="cls-6" x1="231.9" y1="63.9" x2="231.9" y2="81.9"/>
      <polyline class="cls-6" points="308.3 63.9 375.6 63.9 510.3 63.9 510.3 81.9"/>
      <line class="cls-6" x1="451.1" y1="19.2" x2="432.5" y2="19.2"/>
      <polyline class="cls-6" points="510.3 63.9 645 63.9 645 81.9"/>
      <polyline class="cls-6" points="31.2 95.2 18 95.2 18 146.2 18 231"/>
      <line class="cls-6" x1="31.2" y1="178.4" x2="18" y2="178.4"/>
      <g>
        <rect class="cls-1" x="318.6" y="163.1" width="113.9" height="30.5"/>
        <text class="cls-7" transform="translate(324.6 181)"><tspan x="0" y="0">Goods by Category</tspan></text>
      </g>
      <g>
        <rect class="cls-1" x="453.3" y="163.1" width="113.9" height="30.5"/>
        <text class="cls-7" transform="translate(462.3 181)"><tspan x="0" y="0">Past Inventories</tspan></text>
      </g>
      <g>
        <rect class="cls-1" x="453.3" y="215.8" width="113.9" height="30.5"/>
        <text class="cls-7" transform="translate(477.3 233.6)"><tspan x="0" y="0">Edit Report</tspan></text>
      </g>
      <g>
        <rect class="cls-1" x="31.2" y="334.6" width="113.9" height="30.5"/>
        <text class="cls-7" transform="translate(43.1 352.4)"><tspan x="0" y="0">Add New Product</tspan></text>
      </g>
      <g>
        <rect class="cls-1" x="31.2" y="401.5" width="113.9" height="30.5"/>
        <text class="cls-7" transform="translate(40.1 419.3)"><tspan x="0" y="0">Search Inventory</tspan></text>
      </g>
      <g>
        <rect class="cls-1" x="318.7" y="334.6" width="113.9" height="30.5"/>
        <text class="cls-7" transform="translate(327.6 352.4)"><tspan x="0" y="0">Search Inventory</tspan></text>
      </g>
      <polyline class="cls-6" points="18 231 18 349.8 31.2 349.8"/>
      <g>
        <rect class="cls-1" x="174.9" y="163.1" width="113.9" height="30.5"/>
        <text class="cls-7" transform="translate(198.8 181)"><tspan x="0" y="0">Add Invoice</tspan></text>
      </g>
      <g>
        <rect class="cls-1" x="174.9" y="215.8" width="113.9" height="30.5"/>
        <text class="cls-7" transform="translate(195.9 233.6)"><tspan x="0" y="0">Edit Invoice</tspan></text>
      </g>
      <line class="cls-6" x1="231.9" y1="215.8" x2="231.9" y2="194.5"/>
      <g>
        <rect class="cls-1" x="318.7" y="215.8" width="113.9" height="30.5"/>
        <text class="cls-7" transform="translate(336.6 233.6)"><tspan x="0" y="0">Product Count </tspan></text>
      </g>
      <line class="cls-6" x1="375.6" y1="215.8" x2="375.6" y2="194.5"/>
      <line class="cls-6" x1="510.3" y1="215.8" x2="510.3" y2="194.5"/>
      <g>
        <rect class="cls-1" x="318.7" y="267.6" width="113.9" height="30.5"/>
        <text class="cls-7" transform="translate(336.6 281.2)"><tspan x="0" y="0">Product Count </tspan><tspan x="15" y="11">Expanded</tspan></text>
      </g>
      <line class="cls-6" x1="375.6" y1="267.6" x2="375.6" y2="246.3"/>
      <line class="cls-6" x1="88.1" y1="215.8" x2="88.1" y2="194.5"/>
      <g>
        <rect class="cls-1" x="31.2" y="267.6" width="113.9" height="30.5"/>
        <text class="cls-7" transform="translate(52.1 285.5)"><tspan x="0" y="0">Edit Product</tspan></text>
      </g>
      <g>
        <rect class="cls-1" x="588.1" y="163.1" width="113.9" height="30.5"/>
        <text class="cls-7" transform="translate(609 181)"><tspan x="0" y="0">User Profile</tspan></text>
      </g>
      <g>
        <rect class="cls-1" x="588.1" y="215.8" width="113.9" height="30.5"/>
        <text class="cls-7" transform="translate(606 233.6)"><tspan x="0" y="0">Store Profile</tspan></text>
      </g>
      <g>
        <rect class="cls-1" x="588.1" y="267.6" width="113.9" height="30.5"/>
        <text class="cls-7" transform="translate(621 285.5)"><tspan x="0" y="0">Language</tspan></text>
      </g>
      <g>
        <rect class="cls-1" x="588.1" y="320.3" width="113.9" height="30.5"/>
        <text class="cls-7" transform="translate(630 338.1)"><tspan x="0" y="0">Login</tspan></text>
      </g>
      <g>
        <rect class="cls-1" x="588.1" y="372.9" width="113.9" height="30.5"/>
        <text class="cls-7" transform="translate(600 390.8)"><tspan x="0" y="0">Forgot password</tspan></text>
      </g>
      <g>
        <rect class="cls-1" x="588.1" y="425.6" width="113.9" height="30.5"/>
        <text class="cls-7" transform="translate(603 443.4)"><tspan x="0" y="0">Create account</tspan></text>
      </g>
      <polyline class="cls-6" points="702 95.2 715.2 95.2 715.2 224.9 715.2 440.8 702 440.8"/>
      <line class="cls-6" x1="715.2" y1="178.4" x2="702" y2="178.4"/>
      <line class="cls-6" x1="715.2" y1="231" x2="702" y2="231"/>
      <line class="cls-6" x1="715.2" y1="282.9" x2="702" y2="282.9"/>
      <line class="cls-6" x1="715.2" y1="334.6" x2="702" y2="334.6"/>
      <line class="cls-6" x1="715.2" y1="386.3" x2="702" y2="386.3"/>
      <line class="cls-6" x1="88.1" y1="267.6" x2="88.1" y2="246.3"/>
      <line class="cls-6" x1="231.9" y1="112.4" x2="231.9" y2="163.1"/>
      <line class="cls-6" x1="375.6" y1="112.4" x2="375.6" y2="163.1"/>
      <line class="cls-6" x1="375.6" y1="34.4" x2="375.6" y2="63.9"/>
      <line class="cls-6" x1="510.3" y1="112.4" x2="510.3" y2="163.1"/>
      <polyline class="cls-6" points="18 349.8 18 416.7 31.2 416.7"/>
      <polyline class="cls-6" points="432.5 97.2 441 97.2 441 349.8 432.5 349.8"/>
      <path class="cls-2" d="M602.5,26.2"/>
      <g>
        <line class="cls-6" x1="345.1" y1="34.4" x2="345.1" y2="40.4"/>
        <line class="cls-5" x1="345.1" y1="52.2" x2="345.1" y2="70"/>
        <line class="cls-6" x1="345.1" y1="75.9" x2="345.1" y2="81.9"/>
      </g>
      <polyline class="cls-3" points="345.1 48.3 133.8 48.3 4.8 48.3 4.8 342.3 31.2 342.3"/>
      <g>
        <line class="cls-6" x1="163.8" y1="48.3" x2="163.8" y2="54.3"/>
        <line class="cls-4" x1="163.8" y1="66.6" x2="163.8" y2="158.7"/>
        <polyline class="cls-6" points="163.8 164.9 163.8 170.9 174.9 170.9"/>
      </g>
    </g>
  </g>
</svg>