<?xml version="1.0" encoding="utf-8"?>
<!-- Generator: Adobe Illustrator 28.3.0, SVG Export Plug-In . SVG Version: 6.00 Build 0)  -->
<svg version="1.1" id="Layer_1" xmlns="http://www.w3.org/2000/svg" xmlns:xlink="http://www.w3.org/1999/xlink" x="0px" y="0px"
	 viewBox="0 0 165 37" style="enable-background:new 0 0 165 37;" xml:space="preserve">
<style type="text/css">
	.st0{fill:none;stroke:#231F20;stroke-linecap:round;stroke-linejoin:round;}
	.st1{fill:#6288C1;stroke:#6288C1;stroke-linecap:round;stroke-miterlimit:10;}
	.st2{fill:#F37746;stroke:#F37746;stroke-linecap:round;stroke-linejoin:round;}
	.st3{fill:#6288C1;stroke:#6288C1;stroke-miterlimit:10;}
	.st4{fill:#F37746;}
</style>
<g>
	<g>
		<path class="st0" d="M23.14,1.15c0,0-0.11,23.1-0.05,32.54"/>
		<path class="st1" d="M1.39,24.87c4.91,2.75,10.01,5.6,13.7,7.63"/>
		<polygon class="st2" points="45.56,1.15 45.56,35.82 38.39,31.95 38.39,1.15 		"/>
		<path class="st2" d="M31.12,31.84l0-30.39l0-0.3l-7.97,0l-0.84,34.69c0.97,0.04,1.71-0.08,2.02-0.25
			C26.22,34.56,28.58,33.25,31.12,31.84"/>
		<path class="st3" d="M15.08,32.5c2.49,1.37,4.33,2.36,5.04,2.69c0.61,0.28,2.99,1.37,2.99-0.1l0.04-33.94l-0.53,0l-6.68,0v1.14
			c0.04,8.56,0.01,26.64-0.15,28.39c-0.08,0.82-0.34,1.39-0.71,1.78"/>
		<line class="st1" x1="1.39" y1="1.15" x2="15.95" y2="1.15"/>
		<line class="st2" x1="31.12" y1="17.73" x2="38.39" y2="17.73"/>
		<path class="st2" d="M38.39,31.95c2.46,1.36,4.74,2.61,6.58,3.62c0.18,0.1,0.38,0.18,0.6,0.23"/>
	</g>
</g>
<g>
	<path class="st4" d="M66.5,11.48c0,0.52-0.05,1-0.14,1.43c-0.09,0.43-0.26,0.8-0.49,1.1s-0.53,0.54-0.91,0.7
		c-0.38,0.17-0.84,0.25-1.39,0.25c-0.19,0-0.38-0.02-0.56-0.05s-0.36-0.07-0.51-0.12s-0.29-0.1-0.41-0.16
		c-0.11-0.06-0.19-0.11-0.23-0.15c-0.04-0.04-0.07-0.08-0.09-0.12c-0.02-0.04-0.04-0.09-0.06-0.15c-0.02-0.06-0.03-0.13-0.04-0.21
		c-0.01-0.08-0.01-0.19-0.01-0.31c0-0.15,0.01-0.27,0.02-0.37c0.01-0.1,0.03-0.18,0.06-0.23c0.03-0.06,0.06-0.1,0.1-0.12
		c0.04-0.02,0.08-0.04,0.14-0.04c0.05,0,0.12,0.02,0.21,0.08s0.19,0.11,0.3,0.17c0.12,0.06,0.25,0.12,0.41,0.17
		c0.15,0.05,0.34,0.08,0.55,0.08c0.23,0,0.43-0.03,0.59-0.09c0.16-0.06,0.3-0.16,0.41-0.32c0.11-0.15,0.19-0.37,0.24-0.64
		c0.05-0.27,0.08-0.63,0.08-1.07V1.93c0-0.05,0.01-0.09,0.04-0.13c0.03-0.04,0.07-0.07,0.14-0.1C65,1.67,65.09,1.65,65.2,1.64
		c0.11-0.01,0.25-0.02,0.42-0.02c0.16,0,0.3,0.01,0.42,0.02c0.11,0.01,0.2,0.03,0.27,0.06c0.06,0.03,0.11,0.06,0.14,0.1
		s0.05,0.08,0.05,0.13V11.48z"/>
	<path class="st4" d="M80.62,14.06c0,0.12-0.01,0.23-0.02,0.32c-0.01,0.09-0.04,0.17-0.07,0.23c-0.03,0.06-0.07,0.1-0.12,0.13
		s-0.09,0.04-0.15,0.04h-6.29c-0.16,0-0.3-0.05-0.44-0.16c-0.14-0.1-0.21-0.29-0.21-0.55V2.39c0-0.26,0.07-0.45,0.21-0.55
		c0.14-0.1,0.29-0.16,0.44-0.16h6.22c0.05,0,0.1,0.01,0.15,0.04c0.04,0.03,0.08,0.07,0.11,0.13c0.03,0.06,0.05,0.14,0.07,0.23
		c0.02,0.09,0.03,0.2,0.03,0.34c0,0.12-0.01,0.23-0.03,0.32c-0.02,0.09-0.04,0.17-0.07,0.22c-0.03,0.06-0.06,0.1-0.11,0.13
		c-0.04,0.03-0.09,0.04-0.15,0.04h-5.12v4.11h4.4c0.05,0,0.1,0.02,0.15,0.05s0.08,0.07,0.11,0.13c0.03,0.05,0.05,0.13,0.07,0.22
		c0.01,0.09,0.02,0.21,0.02,0.33c0,0.12-0.01,0.23-0.02,0.31c-0.01,0.09-0.04,0.16-0.07,0.21c-0.03,0.05-0.07,0.09-0.11,0.12
		c-0.04,0.02-0.09,0.04-0.15,0.04h-4.4v4.69h5.19c0.05,0,0.1,0.01,0.15,0.04c0.04,0.03,0.08,0.07,0.12,0.13
		c0.03,0.06,0.06,0.13,0.07,0.22C80.61,13.81,80.62,13.93,80.62,14.06z"/>
	<path class="st4" d="M96.73,14.06c0,0.13-0.02,0.25-0.07,0.34c-0.04,0.09-0.1,0.17-0.18,0.23c-0.07,0.06-0.16,0.1-0.25,0.13
		s-0.18,0.04-0.27,0.04h-0.58c-0.18,0-0.34-0.02-0.48-0.06s-0.27-0.1-0.39-0.2c-0.12-0.1-0.24-0.23-0.37-0.4
		c-0.12-0.17-0.25-0.38-0.39-0.65l-4-7.45c-0.21-0.38-0.42-0.79-0.63-1.21c-0.21-0.42-0.41-0.83-0.59-1.23h-0.02
		c0.01,0.49,0.02,0.98,0.03,1.49s0.01,1.01,0.01,1.51v7.91c0,0.05-0.01,0.09-0.04,0.14c-0.03,0.04-0.08,0.08-0.14,0.1
		c-0.07,0.02-0.16,0.04-0.27,0.06c-0.11,0.02-0.25,0.02-0.42,0.02c-0.17,0-0.31-0.01-0.42-0.02c-0.11-0.02-0.2-0.04-0.26-0.06
		c-0.06-0.02-0.11-0.06-0.14-0.1c-0.03-0.04-0.04-0.09-0.04-0.14V2.43c0-0.27,0.08-0.46,0.23-0.58s0.32-0.17,0.5-0.17h0.86
		c0.2,0,0.37,0.02,0.51,0.05c0.14,0.03,0.26,0.09,0.37,0.17s0.21,0.19,0.31,0.32c0.1,0.14,0.21,0.31,0.32,0.52L93,8.49
		c0.19,0.35,0.37,0.69,0.55,1.03c0.18,0.33,0.35,0.66,0.51,0.99c0.16,0.32,0.32,0.64,0.48,0.96s0.32,0.63,0.47,0.95h0.01
		C95.01,11.88,95,11.32,95,10.75c0-0.58,0-1.13,0-1.67V1.97c0-0.05,0.01-0.09,0.04-0.13s0.08-0.08,0.14-0.11
		c0.07-0.03,0.16-0.05,0.27-0.07c0.11-0.01,0.25-0.02,0.43-0.02c0.16,0,0.29,0.01,0.41,0.02c0.11,0.01,0.2,0.04,0.27,0.07
		c0.06,0.03,0.11,0.07,0.14,0.11s0.04,0.08,0.04,0.13V14.06z"/>
	<path class="st4" d="M113.5,14.06c0,0.13-0.02,0.25-0.07,0.34c-0.04,0.09-0.1,0.17-0.18,0.23c-0.07,0.06-0.16,0.1-0.25,0.13
		s-0.18,0.04-0.27,0.04h-0.58c-0.18,0-0.34-0.02-0.48-0.06s-0.27-0.1-0.39-0.2c-0.12-0.1-0.24-0.23-0.37-0.4
		c-0.12-0.17-0.25-0.38-0.39-0.65l-4-7.45c-0.21-0.38-0.42-0.79-0.63-1.21c-0.21-0.42-0.41-0.83-0.59-1.23h-0.02
		c0.01,0.49,0.02,0.98,0.03,1.49s0.01,1.01,0.01,1.51v7.91c0,0.05-0.01,0.09-0.04,0.14s-0.08,0.08-0.14,0.1
		c-0.07,0.02-0.16,0.04-0.27,0.06c-0.11,0.02-0.25,0.02-0.42,0.02s-0.31-0.01-0.42-0.02c-0.11-0.02-0.2-0.04-0.26-0.06
		c-0.06-0.02-0.11-0.06-0.14-0.1s-0.04-0.09-0.04-0.14V2.43c0-0.27,0.08-0.46,0.23-0.58s0.32-0.17,0.5-0.17h0.86
		c0.2,0,0.37,0.02,0.51,0.05c0.14,0.03,0.26,0.09,0.37,0.17c0.11,0.08,0.21,0.19,0.31,0.32c0.1,0.14,0.21,0.31,0.32,0.52l3.07,5.75
		c0.19,0.35,0.37,0.69,0.55,1.03c0.18,0.33,0.35,0.66,0.51,0.99c0.16,0.32,0.32,0.64,0.48,0.96s0.32,0.63,0.47,0.95h0.01
		c-0.01-0.53-0.02-1.09-0.03-1.67c0-0.58,0-1.13,0-1.67V1.97c0-0.05,0.01-0.09,0.04-0.13s0.08-0.08,0.14-0.11
		c0.07-0.03,0.16-0.05,0.27-0.07c0.11-0.01,0.25-0.02,0.43-0.02c0.16,0,0.29,0.01,0.41,0.02c0.11,0.01,0.2,0.04,0.27,0.07
		c0.06,0.03,0.11,0.07,0.14,0.11c0.03,0.04,0.04,0.08,0.04,0.13V14.06z"/>
	<path class="st4" d="M122.1,14.52c0,0.05-0.01,0.1-0.04,0.14c-0.03,0.04-0.08,0.07-0.14,0.1c-0.07,0.02-0.16,0.04-0.27,0.06
		c-0.11,0.02-0.25,0.02-0.42,0.02c-0.16,0-0.3-0.01-0.42-0.02c-0.11-0.02-0.21-0.04-0.27-0.06c-0.07-0.02-0.11-0.06-0.14-0.1
		s-0.04-0.09-0.04-0.14V1.94c0-0.05,0.01-0.1,0.04-0.14s0.08-0.07,0.15-0.1c0.07-0.02,0.16-0.04,0.27-0.06
		c0.11-0.02,0.24-0.02,0.4-0.02c0.17,0,0.31,0.01,0.42,0.02c0.11,0.02,0.2,0.04,0.27,0.06s0.12,0.06,0.14,0.1
		c0.03,0.04,0.04,0.09,0.04,0.14V14.52z"/>
	<path class="st4" d="M135.85,2.43c0,0.13-0.01,0.24-0.02,0.33c-0.01,0.09-0.04,0.17-0.07,0.23c-0.03,0.06-0.07,0.1-0.12,0.13
		s-0.09,0.04-0.14,0.04h-4.8v4.46h4.54c0.05,0,0.09,0.01,0.14,0.04c0.04,0.02,0.08,0.06,0.12,0.12c0.03,0.05,0.06,0.13,0.07,0.22
		s0.02,0.21,0.02,0.35c0,0.13-0.01,0.24-0.02,0.33c-0.01,0.09-0.04,0.17-0.07,0.22c-0.03,0.06-0.07,0.1-0.12,0.13
		c-0.04,0.03-0.09,0.05-0.14,0.05h-4.54v5.46c0,0.05-0.01,0.09-0.04,0.14c-0.03,0.04-0.08,0.08-0.14,0.1
		c-0.07,0.02-0.16,0.04-0.26,0.06c-0.11,0.02-0.25,0.02-0.43,0.02c-0.16,0-0.3-0.01-0.42-0.02c-0.11-0.02-0.21-0.04-0.27-0.06
		c-0.07-0.02-0.11-0.06-0.14-0.1s-0.04-0.09-0.04-0.14V2.39c0-0.26,0.07-0.45,0.21-0.55c0.14-0.1,0.29-0.16,0.44-0.16h5.89
		c0.05,0,0.09,0.01,0.14,0.04s0.08,0.07,0.12,0.13c0.03,0.06,0.06,0.14,0.07,0.24C135.84,2.19,135.85,2.3,135.85,2.43z"/>
	<path class="st4" d="M149.16,14.06c0,0.12-0.01,0.23-0.02,0.32c-0.01,0.09-0.04,0.17-0.07,0.23c-0.03,0.06-0.07,0.1-0.12,0.13
		s-0.09,0.04-0.15,0.04h-6.29c-0.16,0-0.3-0.05-0.44-0.16c-0.14-0.1-0.21-0.29-0.21-0.55V2.39c0-0.26,0.07-0.45,0.21-0.55
		c0.14-0.1,0.29-0.16,0.44-0.16h6.22c0.05,0,0.1,0.01,0.15,0.04s0.08,0.07,0.11,0.13c0.03,0.06,0.05,0.14,0.07,0.23
		c0.02,0.09,0.03,0.2,0.03,0.34c0,0.12-0.01,0.23-0.03,0.32c-0.02,0.09-0.04,0.17-0.07,0.22c-0.03,0.06-0.06,0.1-0.11,0.13
		s-0.09,0.04-0.15,0.04h-5.12v4.11H148c0.05,0,0.1,0.02,0.15,0.05s0.08,0.07,0.11,0.13c0.03,0.05,0.05,0.13,0.07,0.22
		c0.01,0.09,0.02,0.21,0.02,0.33c0,0.12-0.01,0.23-0.02,0.31s-0.04,0.16-0.07,0.21c-0.03,0.05-0.07,0.09-0.11,0.12
		c-0.04,0.02-0.09,0.04-0.15,0.04h-4.39v4.69h5.2c0.05,0,0.1,0.01,0.15,0.04c0.04,0.03,0.08,0.07,0.12,0.13
		c0.03,0.06,0.06,0.13,0.07,0.22C149.15,13.81,149.16,13.93,149.16,14.06z"/>
	<path class="st4" d="M164.11,14.52c0,0.05-0.01,0.1-0.03,0.14s-0.06,0.07-0.13,0.1c-0.07,0.03-0.16,0.05-0.28,0.06
		c-0.12,0.01-0.28,0.02-0.49,0.02c-0.18,0-0.32-0.01-0.43-0.02c-0.11-0.01-0.2-0.04-0.27-0.07s-0.12-0.07-0.16-0.13
		s-0.07-0.12-0.1-0.2l-1.21-3.09c-0.14-0.35-0.29-0.67-0.44-0.97c-0.15-0.29-0.33-0.55-0.54-0.76c-0.21-0.21-0.46-0.38-0.74-0.5
		s-0.62-0.18-1.02-0.18h-1.17v5.58c0,0.05-0.01,0.1-0.05,0.14c-0.03,0.04-0.08,0.07-0.14,0.1c-0.06,0.02-0.15,0.04-0.26,0.06
		c-0.11,0.02-0.25,0.02-0.42,0.02s-0.31-0.01-0.42-0.02c-0.11-0.02-0.2-0.04-0.27-0.06c-0.07-0.02-0.11-0.06-0.14-0.1
		s-0.04-0.09-0.04-0.14V2.39c0-0.26,0.07-0.45,0.21-0.55c0.14-0.1,0.29-0.16,0.44-0.16h2.79c0.33,0,0.61,0.01,0.83,0.03
		c0.22,0.02,0.42,0.04,0.59,0.06c0.51,0.09,0.95,0.23,1.34,0.42c0.39,0.19,0.71,0.43,0.98,0.72c0.26,0.29,0.46,0.62,0.59,1
		c0.13,0.38,0.2,0.79,0.2,1.24c0,0.44-0.06,0.83-0.18,1.18s-0.29,0.65-0.51,0.92c-0.22,0.27-0.49,0.5-0.8,0.69
		c-0.31,0.2-0.66,0.36-1.04,0.5c0.22,0.09,0.41,0.21,0.59,0.36c0.18,0.15,0.34,0.32,0.49,0.52c0.15,0.2,0.29,0.44,0.43,0.7
		c0.13,0.26,0.27,0.56,0.4,0.89l1.17,2.89c0.09,0.24,0.16,0.41,0.18,0.51C164.1,14.39,164.11,14.46,164.11,14.52z M161.49,5.31
		c0-0.51-0.12-0.95-0.34-1.3s-0.61-0.61-1.15-0.76c-0.17-0.05-0.36-0.08-0.57-0.1c-0.21-0.02-0.49-0.03-0.83-0.03h-1.47v4.42h1.7
		c0.46,0,0.86-0.06,1.19-0.17c0.33-0.11,0.61-0.27,0.83-0.47s0.39-0.43,0.49-0.7S161.49,5.63,161.49,5.31z"/>
	<path class="st4" d="M72.77,35.26c0,0.05-0.01,0.1-0.04,0.14c-0.03,0.04-0.07,0.07-0.14,0.1s-0.16,0.04-0.27,0.06
		s-0.25,0.03-0.41,0.03c-0.18,0-0.32-0.01-0.43-0.03c-0.11-0.02-0.2-0.04-0.26-0.06c-0.07-0.02-0.12-0.06-0.14-0.1
		c-0.03-0.04-0.04-0.09-0.04-0.14v-5.81h-5.96v5.81c0,0.05-0.01,0.1-0.04,0.14c-0.03,0.04-0.07,0.07-0.14,0.1
		c-0.07,0.02-0.16,0.04-0.27,0.06s-0.25,0.03-0.42,0.03c-0.16,0-0.3-0.01-0.42-0.03s-0.21-0.04-0.27-0.06s-0.11-0.06-0.14-0.1
		c-0.03-0.04-0.04-0.09-0.04-0.14V22.68c0-0.05,0.01-0.1,0.04-0.14c0.03-0.04,0.07-0.07,0.14-0.1s0.16-0.04,0.27-0.06
		s0.25-0.03,0.42-0.03c0.17,0,0.31,0.01,0.42,0.03s0.2,0.04,0.27,0.06c0.07,0.02,0.11,0.06,0.14,0.1c0.03,0.04,0.04,0.09,0.04,0.14
		v5.25h5.96v-5.25c0-0.05,0.01-0.1,0.04-0.14c0.03-0.04,0.07-0.07,0.14-0.1c0.07-0.02,0.15-0.04,0.26-0.06
		c0.11-0.02,0.25-0.03,0.43-0.03c0.16,0,0.3,0.01,0.41,0.03s0.2,0.04,0.27,0.06s0.11,0.06,0.14,0.1c0.03,0.04,0.04,0.09,0.04,0.14
		V35.26z"/>
	<path class="st4" d="M89.66,28.82c0,1.06-0.12,2.02-0.37,2.87c-0.25,0.85-0.62,1.57-1.12,2.17s-1.12,1.06-1.87,1.38
		c-0.75,0.32-1.62,0.48-2.62,0.48c-0.99,0-1.84-0.15-2.56-0.44c-0.72-0.29-1.31-0.72-1.78-1.28c-0.47-0.56-0.82-1.26-1.05-2.09
		c-0.23-0.83-0.34-1.79-0.34-2.87c0-1.03,0.12-1.97,0.37-2.82c0.25-0.84,0.62-1.56,1.12-2.15c0.5-0.59,1.12-1.05,1.87-1.37
		c0.75-0.32,1.62-0.48,2.62-0.48c0.97,0,1.81,0.15,2.52,0.44c0.72,0.29,1.31,0.71,1.79,1.27c0.48,0.56,0.83,1.25,1.06,2.07
		S89.66,27.76,89.66,28.82z M87.81,28.94c0-0.74-0.07-1.43-0.2-2.07c-0.13-0.64-0.35-1.19-0.66-1.66c-0.31-0.47-0.72-0.84-1.23-1.1
		c-0.51-0.26-1.15-0.4-1.9-0.4c-0.76,0-1.39,0.14-1.9,0.43c-0.51,0.28-0.93,0.66-1.25,1.13s-0.55,1.02-0.69,1.66
		c-0.14,0.63-0.21,1.29-0.21,1.99c0,0.77,0.06,1.48,0.19,2.13c0.13,0.65,0.34,1.21,0.65,1.68c0.3,0.47,0.71,0.83,1.22,1.09
		c0.51,0.26,1.15,0.39,1.92,0.39c0.76,0,1.4-0.14,1.92-0.43c0.52-0.28,0.94-0.67,1.25-1.15c0.32-0.48,0.54-1.04,0.68-1.68
		C87.75,30.32,87.81,29.65,87.81,28.94z"/>
	<path class="st4" d="M101.63,34.76c0,0.14-0.01,0.25-0.02,0.34c-0.01,0.09-0.04,0.17-0.07,0.23c-0.03,0.06-0.07,0.11-0.11,0.14
		s-0.1,0.05-0.16,0.05h-5.79c-0.16,0-0.3-0.05-0.44-0.16c-0.14-0.1-0.21-0.29-0.21-0.55V22.68c0-0.05,0.01-0.1,0.04-0.14
		c0.03-0.04,0.07-0.07,0.14-0.1s0.16-0.04,0.27-0.06c0.12-0.02,0.25-0.03,0.42-0.03c0.17,0,0.31,0.01,0.42,0.03s0.2,0.04,0.27,0.06
		s0.12,0.06,0.14,0.1c0.03,0.04,0.04,0.09,0.04,0.14v11.33h4.7c0.06,0,0.11,0.02,0.16,0.05s0.08,0.07,0.11,0.13
		c0.03,0.06,0.05,0.13,0.07,0.23C101.62,34.51,101.63,34.63,101.63,34.76z"/>
	<path class="st4" d="M114.5,33.67c0,0.11,0,0.2-0.01,0.28s-0.02,0.15-0.04,0.21c-0.02,0.06-0.04,0.11-0.07,0.16
		c-0.03,0.05-0.08,0.11-0.14,0.17s-0.21,0.17-0.42,0.31s-0.48,0.27-0.8,0.41c-0.32,0.13-0.69,0.24-1.1,0.33s-0.87,0.14-1.36,0.14
		c-0.85,0-1.62-0.14-2.3-0.43c-0.69-0.28-1.27-0.7-1.75-1.25c-0.48-0.55-0.85-1.24-1.11-2.05c-0.26-0.81-0.39-1.75-0.39-2.81
		c0-1.09,0.14-2.06,0.42-2.91s0.67-1.57,1.18-2.16c0.51-0.59,1.11-1.04,1.82-1.35c0.71-0.31,1.49-0.47,2.34-0.47
		c0.38,0,0.75,0.04,1.1,0.11c0.36,0.07,0.69,0.16,0.99,0.27c0.3,0.11,0.57,0.23,0.81,0.37c0.24,0.14,0.4,0.26,0.49,0.35
		c0.09,0.09,0.15,0.16,0.18,0.21c0.03,0.05,0.05,0.1,0.07,0.17c0.02,0.06,0.03,0.14,0.04,0.23c0.01,0.09,0.02,0.19,0.02,0.31
		c0,0.13-0.01,0.25-0.02,0.34s-0.03,0.17-0.06,0.24c-0.03,0.06-0.06,0.11-0.1,0.14c-0.04,0.03-0.08,0.05-0.14,0.05
		c-0.1,0-0.23-0.07-0.4-0.2c-0.17-0.13-0.39-0.28-0.66-0.43c-0.27-0.16-0.59-0.3-0.98-0.44c-0.38-0.13-0.84-0.2-1.38-0.2
		c-0.58,0-1.11,0.12-1.59,0.35c-0.48,0.23-0.89,0.58-1.23,1.03c-0.34,0.45-0.6,1-0.79,1.66c-0.19,0.65-0.28,1.4-0.28,2.23
		c0,0.83,0.09,1.56,0.27,2.2s0.44,1.17,0.77,1.6c0.34,0.43,0.75,0.75,1.24,0.97c0.49,0.22,1.04,0.33,1.66,0.33
		c0.52,0,0.98-0.06,1.37-0.19c0.39-0.13,0.72-0.27,1-0.43c0.27-0.16,0.5-0.3,0.68-0.43c0.18-0.13,0.32-0.19,0.42-0.19
		c0.05,0,0.09,0.01,0.12,0.03c0.03,0.02,0.06,0.06,0.08,0.12c0.02,0.06,0.04,0.14,0.05,0.24C114.49,33.38,114.5,33.51,114.5,33.67z"
		/>
	<path class="st4" d="M130.02,28.82c0,1.06-0.12,2.02-0.38,2.87c-0.25,0.85-0.62,1.57-1.12,2.17c-0.5,0.6-1.12,1.06-1.87,1.38
		c-0.75,0.32-1.62,0.48-2.62,0.48c-0.99,0-1.84-0.15-2.56-0.44c-0.72-0.29-1.31-0.72-1.78-1.28c-0.47-0.56-0.82-1.26-1.05-2.09
		c-0.23-0.83-0.34-1.79-0.34-2.87c0-1.03,0.12-1.97,0.37-2.82s0.62-1.56,1.12-2.15c0.5-0.59,1.12-1.05,1.87-1.37
		c0.75-0.32,1.62-0.48,2.62-0.48c0.97,0,1.81,0.15,2.52,0.44s1.31,0.71,1.79,1.27c0.48,0.56,0.83,1.25,1.06,2.07
		C129.91,26.82,130.02,27.76,130.02,28.82z M128.18,28.94c0-0.74-0.07-1.43-0.2-2.07c-0.13-0.64-0.35-1.19-0.66-1.66
		c-0.31-0.47-0.72-0.84-1.23-1.1c-0.51-0.26-1.15-0.4-1.9-0.4c-0.75,0-1.39,0.14-1.9,0.43c-0.51,0.28-0.93,0.66-1.25,1.13
		s-0.55,1.02-0.69,1.66c-0.14,0.63-0.21,1.29-0.21,1.99c0,0.77,0.06,1.48,0.19,2.13c0.13,0.65,0.34,1.21,0.65,1.68
		c0.3,0.47,0.71,0.83,1.22,1.09c0.51,0.26,1.15,0.39,1.92,0.39c0.76,0,1.4-0.14,1.92-0.43c0.52-0.28,0.94-0.67,1.25-1.15
		c0.32-0.48,0.54-1.04,0.68-1.68C128.11,30.32,128.18,29.65,128.18,28.94z"/>
	<path class="st4" d="M149.45,35.26c0,0.05-0.01,0.1-0.04,0.14c-0.03,0.04-0.08,0.07-0.15,0.1s-0.16,0.04-0.27,0.06
		c-0.11,0.02-0.25,0.03-0.42,0.03c-0.16,0-0.3-0.01-0.41-0.03c-0.11-0.02-0.21-0.04-0.27-0.06c-0.07-0.02-0.11-0.06-0.14-0.1
		c-0.03-0.04-0.04-0.09-0.04-0.14V23.84h-0.02l-4.62,11.46c-0.02,0.05-0.05,0.09-0.09,0.12c-0.04,0.03-0.09,0.06-0.16,0.09
		c-0.07,0.02-0.16,0.04-0.25,0.05c-0.1,0.01-0.21,0.01-0.35,0.01c-0.14,0-0.26-0.01-0.37-0.02c-0.1-0.01-0.19-0.03-0.25-0.06
		c-0.07-0.02-0.12-0.05-0.16-0.09c-0.04-0.03-0.06-0.07-0.08-0.11l-4.42-11.46h-0.01v11.41c0,0.05-0.01,0.1-0.04,0.14
		c-0.03,0.04-0.08,0.07-0.15,0.1c-0.07,0.02-0.16,0.04-0.27,0.06s-0.25,0.03-0.43,0.03c-0.17,0-0.31-0.01-0.42-0.03
		s-0.2-0.04-0.27-0.06c-0.07-0.02-0.11-0.06-0.14-0.1c-0.02-0.04-0.04-0.09-0.04-0.14V23.21c0-0.28,0.08-0.49,0.23-0.61
		c0.15-0.12,0.32-0.18,0.5-0.18H137c0.22,0,0.41,0.02,0.58,0.06c0.16,0.04,0.31,0.1,0.43,0.19s0.23,0.2,0.31,0.33
		c0.08,0.14,0.15,0.29,0.22,0.48l3.75,9.49h0.05l3.9-9.46c0.08-0.2,0.16-0.38,0.25-0.52c0.09-0.14,0.19-0.25,0.29-0.34
		c0.11-0.08,0.22-0.15,0.35-0.18c0.13-0.04,0.28-0.06,0.45-0.06h1.12c0.1,0,0.2,0.02,0.29,0.05c0.09,0.03,0.17,0.08,0.24,0.14
		s0.12,0.15,0.16,0.24s0.06,0.22,0.06,0.36V35.26z"/>
	<path class="st4" d="M163.99,31.76c0,0.41-0.05,0.79-0.16,1.14s-0.25,0.66-0.44,0.94c-0.19,0.28-0.42,0.52-0.68,0.73
		c-0.27,0.21-0.57,0.38-0.9,0.53c-0.33,0.14-0.69,0.25-1.07,0.32c-0.38,0.07-0.82,0.11-1.31,0.11H156c-0.16,0-0.3-0.05-0.44-0.16
		c-0.14-0.1-0.21-0.29-0.21-0.55V23.13c0-0.26,0.07-0.45,0.21-0.55s0.29-0.16,0.44-0.16h2.98c0.78,0,1.42,0.07,1.92,0.22
		c0.5,0.15,0.92,0.36,1.25,0.65c0.33,0.28,0.58,0.63,0.75,1.04s0.25,0.88,0.25,1.4c0,0.31-0.04,0.61-0.11,0.89
		c-0.07,0.28-0.18,0.55-0.33,0.79c-0.14,0.24-0.33,0.45-0.55,0.64c-0.22,0.19-0.47,0.34-0.75,0.47c0.36,0.07,0.69,0.19,1,0.37
		s0.58,0.41,0.82,0.68c0.23,0.28,0.42,0.6,0.55,0.97C163.92,30.91,163.99,31.32,163.99,31.76z M161.37,25.9
		c0-0.32-0.04-0.6-0.13-0.86c-0.09-0.26-0.23-0.47-0.41-0.65s-0.43-0.32-0.74-0.41s-0.7-0.14-1.2-0.14h-1.8v4.24h1.98
		c0.45,0,0.82-0.06,1.09-0.18c0.28-0.12,0.5-0.28,0.69-0.48s0.31-0.43,0.4-0.7C161.32,26.46,161.37,26.18,161.37,25.9z
		 M162.16,31.86c0-0.39-0.06-0.74-0.19-1.03c-0.12-0.3-0.31-0.55-0.55-0.75c-0.24-0.2-0.54-0.36-0.9-0.46s-0.81-0.16-1.36-0.16
		h-2.08v4.62h2.53c0.4,0,0.74-0.05,1.04-0.14c0.3-0.09,0.56-0.23,0.78-0.42s0.4-0.42,0.53-0.69
		C162.09,32.55,162.16,32.23,162.16,31.86z"/>
</g>
</svg>
