<?xml version="1.0" encoding="UTF-8"?>
<svg id="Layer_1" data-name="Layer 1" xmlns="http://www.w3.org/2000/svg" version="1.1" viewBox="0 0 400 88">
  <defs>
    <style>
      .cls-1 {
        stroke: #f47846;
      }

      .cls-1, .cls-2 {
        stroke-linejoin: round;
      }

      .cls-1, .cls-2, .cls-3 {
        stroke-linecap: round;
      }

      .cls-1, .cls-4 {
        fill: #f47846;
      }

      .cls-2 {
        fill: none;
        stroke: #231f20;
      }

      .cls-4 {
        stroke-width: 0px;
      }

      .cls-3, .cls-5 {
        fill: #6289c2;
        stroke: #6289c2;
        stroke-miterlimit: 10;
      }
    </style>
  </defs>
  <g>
    <path class="cls-2" d="M54.93,1.7s-.26,56.31-.12,79.33"/>
    <path class="cls-3" d="M1.9,59.54c11.97,6.71,24.41,13.66,33.4,18.6"/>
    <polygon class="cls-1" points="109.58 1.7 109.58 86.22 92.1 76.78 92.1 1.7 109.58 1.7"/>
    <path class="cls-1" d="M74.37,76.53V2.44s0-.74,0-.74h-19.44s-2.04,84.57-2.04,84.57c2.38.1,4.17-.19,4.94-.62,4.6-2.51,10.36-5.71,16.54-9.13"/>
    <path class="cls-5" d="M35.26,78.14c6.06,3.33,10.56,5.75,12.29,6.56,1.48.69,7.29,3.33,7.29-.26l.09-82.73h-1.28s-16.29,0-16.29,0v2.77c.1,20.86.02,64.94-.37,69.22-.18,2-.83,3.4-1.73,4.34"/>
    <line class="cls-3" x1="1.9" y1="1.7" x2="37.4" y2="1.7"/>
    <line class="cls-1" x1="74.37" y1="42.13" x2="92.1" y2="42.13"/>
    <path class="cls-1" d="M92.1,76.78c6.01,3.32,11.55,6.37,16.04,8.82.43.24.92.43,1.47.55"/>
  </g>
  <g>
    <path class="cls-4" d="M160.62,26.89c0,1.27-.12,2.43-.35,3.48-.23,1.05-.63,1.95-1.19,2.69-.56.74-1.3,1.31-2.21,1.72-.91.4-2.05.6-3.39.6-.46,0-.92-.04-1.37-.11-.45-.07-.87-.17-1.25-.3-.38-.12-.71-.25-.99-.4-.28-.14-.47-.26-.56-.36-.09-.1-.17-.2-.22-.3s-.11-.22-.15-.36c-.04-.14-.07-.31-.09-.52-.02-.21-.02-.46-.02-.75,0-.36.01-.66.04-.9s.07-.43.14-.57c.07-.14.14-.24.23-.3s.2-.09.33-.09.3.06.51.19c.21.12.45.26.74.41.29.15.62.28,1,.41.38.12.82.19,1.33.19.56,0,1.04-.07,1.43-.21.4-.14.72-.4.99-.78.26-.38.46-.9.59-1.57s.2-1.53.2-2.6V3.61c0-.12.03-.22.1-.32.07-.1.18-.18.34-.25.17-.07.38-.12.65-.15.27-.03.61-.05,1.03-.05s.73.02,1.01.05c.28.03.5.08.65.15s.27.15.35.25c.07.1.11.21.11.32v23.28Z"/>
    <path class="cls-4" d="M195.05,33.18c0,.3-.02.56-.05.78s-.09.41-.17.56c-.08.15-.18.26-.28.32-.11.07-.23.1-.36.1h-15.33c-.38,0-.74-.13-1.07-.38-.34-.25-.51-.7-.51-1.35V4.72c0-.64.17-1.09.51-1.35.34-.25.7-.38,1.07-.38h15.16c.13,0,.25.03.36.1.11.07.19.17.26.32.07.15.12.33.16.56.04.22.06.5.06.83,0,.3-.02.56-.06.78-.04.22-.1.4-.16.54s-.15.24-.26.31c-.11.07-.23.1-.36.1h-12.49v10.02h10.71c.13,0,.25.04.36.11.11.07.2.18.27.31.07.13.13.31.16.54.03.23.05.5.05.81,0,.3-.02.55-.05.77-.03.21-.09.39-.16.52s-.17.23-.27.28c-.11.06-.23.09-.36.09h-10.71v11.43h12.67c.13,0,.25.03.36.1.11.07.2.17.28.31.08.14.14.32.17.54s.05.5.05.83Z"/>
    <path class="cls-4" d="M234.34,33.18c0,.33-.06.61-.17.84-.11.23-.25.42-.43.57-.18.15-.38.26-.6.32-.22.07-.44.1-.66.1h-1.4c-.44,0-.83-.05-1.16-.14-.33-.09-.65-.26-.94-.49-.3-.24-.6-.56-.89-.98-.3-.41-.61-.94-.95-1.58l-9.75-18.17c-.51-.94-1.02-1.92-1.54-2.95-.52-1.03-1-2.03-1.45-3h-.05c.03,1.19.06,2.39.07,3.63s.02,2.46.02,3.68v19.28c0,.12-.03.23-.1.33-.07.11-.19.19-.35.25-.17.06-.38.11-.65.15-.27.04-.61.06-1.03.06s-.76-.02-1.03-.06c-.27-.04-.48-.09-.64-.15-.16-.06-.27-.14-.34-.25-.07-.11-.1-.22-.1-.33V4.81c0-.66.19-1.13.56-1.41.37-.28.78-.42,1.22-.42h2.09c.49,0,.9.04,1.24.12.33.08.63.22.89.41.26.19.52.45.76.79.25.34.5.76.78,1.27l7.49,14.02c.46.86.91,1.69,1.34,2.51.43.81.84,1.62,1.24,2.41.4.79.79,1.57,1.18,2.33.39.77.78,1.54,1.16,2.31h.02c-.03-1.3-.05-2.65-.06-4.06,0-1.41-.01-2.76-.01-4.06V3.7c0-.12.04-.22.1-.32.07-.1.19-.19.35-.26.17-.07.38-.13.65-.16.27-.03.62-.05,1.05-.05.38,0,.71.02.99.05.28.03.49.09.65.16.16.07.27.16.34.26.07.1.1.21.1.32v29.48Z"/>
    <path class="cls-4" d="M275.21,33.18c0,.33-.06.61-.17.84-.11.23-.25.42-.43.57-.18.15-.38.26-.6.32-.22.07-.44.1-.66.1h-1.4c-.44,0-.83-.05-1.16-.14-.33-.09-.65-.26-.94-.49-.3-.24-.6-.56-.89-.98-.3-.41-.61-.94-.95-1.58l-9.75-18.17c-.51-.94-1.02-1.92-1.54-2.95-.52-1.03-1-2.03-1.45-3h-.05c.03,1.19.06,2.39.07,3.63s.02,2.46.02,3.68v19.28c0,.12-.03.23-.1.33-.07.11-.19.19-.35.25-.17.06-.38.11-.65.15-.27.04-.61.06-1.03.06s-.76-.02-1.03-.06c-.27-.04-.48-.09-.64-.15-.16-.06-.27-.14-.34-.25-.07-.11-.1-.22-.1-.33V4.81c0-.66.19-1.13.56-1.41.37-.28.78-.42,1.22-.42h2.09c.49,0,.9.04,1.24.12.33.08.63.22.89.41.26.19.52.45.76.79.25.34.5.76.78,1.27l7.49,14.02c.46.86.91,1.69,1.34,2.51.43.81.84,1.62,1.24,2.41.4.79.79,1.57,1.18,2.33.39.77.78,1.54,1.16,2.31h.02c-.03-1.3-.05-2.65-.06-4.06,0-1.41-.01-2.76-.01-4.06V3.7c0-.12.04-.22.1-.32.07-.1.19-.19.35-.26.17-.07.38-.13.65-.16.27-.03.62-.05,1.05-.05.38,0,.71.02.99.05.28.03.49.09.65.16.16.07.27.16.34.26.07.1.1.21.1.32v29.48Z"/>
    <path class="cls-4" d="M296.18,34.29c0,.13-.03.25-.1.35-.07.1-.18.18-.35.23-.16.06-.38.11-.65.15-.27.04-.61.06-1.02.06s-.73-.02-1.01-.06c-.28-.04-.5-.09-.67-.15-.16-.06-.28-.14-.35-.23-.07-.1-.1-.21-.1-.35V3.63c0-.13.04-.25.11-.35.07-.1.2-.18.37-.23.17-.06.4-.11.67-.15s.6-.06.97-.06c.41,0,.75.02,1.02.06.27.04.49.09.65.15.17.06.28.14.35.23.07.1.1.21.1.35v30.66Z"/>
    <path class="cls-4" d="M329.7,4.81c0,.31-.02.58-.05.81s-.09.42-.17.56c-.08.14-.18.24-.28.31-.11.07-.22.1-.33.1h-11.7v10.86h11.06c.12,0,.23.03.33.09.11.06.2.15.28.28.08.13.14.31.17.53s.05.51.05.85c0,.31-.02.58-.05.8s-.09.4-.17.54c-.08.14-.18.25-.28.32-.11.07-.22.11-.33.11h-11.06v13.31c0,.12-.03.23-.1.33-.07.11-.18.19-.35.25-.16.06-.38.11-.64.15-.26.04-.61.06-1.04.06-.39,0-.73-.02-1.01-.06-.28-.04-.5-.09-.67-.15-.16-.06-.28-.14-.35-.25-.07-.11-.1-.22-.1-.33V4.72c0-.64.17-1.09.51-1.35.34-.25.7-.38,1.07-.38h14.37c.12,0,.23.03.33.1.11.07.2.17.28.32.08.15.14.34.17.58.03.24.05.51.05.83Z"/>
    <path class="cls-4" d="M362.15,33.18c0,.3-.02.56-.05.78s-.09.41-.17.56c-.08.15-.18.26-.28.32-.11.07-.23.1-.36.1h-15.33c-.38,0-.74-.13-1.07-.38-.34-.25-.51-.7-.51-1.35V4.72c0-.64.17-1.09.51-1.35.34-.25.7-.38,1.07-.38h15.16c.13,0,.25.03.36.1.11.07.19.17.26.32.07.15.12.33.16.56.04.22.06.5.06.83,0,.3-.02.56-.06.78-.04.22-.1.4-.16.54s-.15.24-.26.31c-.11.07-.23.1-.36.1h-12.49v10.02h10.71c.13,0,.25.04.36.11.11.07.2.18.27.31.07.13.13.31.16.54.03.23.05.5.05.81,0,.3-.02.55-.05.77-.03.21-.09.39-.16.52s-.17.23-.27.28c-.11.06-.23.09-.36.09h-10.71v11.43h12.67c.13,0,.25.03.36.1.11.07.2.17.28.31.08.14.14.32.17.54s.05.5.05.83Z"/>
    <path class="cls-4" d="M398.6,34.29c0,.13-.02.25-.07.35-.05.1-.16.18-.32.25-.17.07-.4.11-.69.15-.3.03-.69.05-1.19.05-.43,0-.78-.02-1.05-.05-.27-.03-.49-.09-.65-.16-.17-.07-.29-.18-.38-.31s-.17-.3-.23-.49l-2.94-7.53c-.35-.86-.7-1.64-1.07-2.36s-.81-1.33-1.32-1.85c-.51-.52-1.11-.92-1.8-1.21-.69-.29-1.52-.43-2.49-.43h-2.84v13.6c0,.13-.04.25-.11.35-.07.1-.19.18-.35.23-.16.06-.37.11-.64.15-.27.04-.61.06-1.02.06s-.75-.02-1.02-.06c-.27-.04-.49-.09-.65-.15-.16-.06-.28-.14-.35-.23-.07-.1-.1-.21-.1-.35V4.72c0-.64.17-1.09.51-1.35.34-.25.7-.38,1.07-.38h6.79c.81,0,1.48.02,2.01.06.53.04,1.02.09,1.44.14,1.23.21,2.33.55,3.27,1.01.95.46,1.74,1.05,2.38,1.75.64.71,1.12,1.52,1.44,2.43.32.91.48,1.92.48,3.02s-.14,2.03-.43,2.88c-.29.85-.7,1.6-1.25,2.25-.54.65-1.19,1.21-1.95,1.69-.76.48-1.6.88-2.54,1.21.53.23,1,.52,1.43.88.43.35.83.78,1.2,1.27s.72,1.06,1.05,1.7c.33.64.66,1.37.99,2.17l2.86,7.04c.23.59.38,1.01.44,1.25.07.24.1.42.1.56ZM392.21,11.85c0-1.25-.28-2.31-.84-3.17-.56-.86-1.5-1.49-2.81-1.86-.41-.12-.88-.2-1.39-.25s-1.2-.07-2.04-.07h-3.58v10.76h4.15c1.12,0,2.09-.14,2.9-.41.81-.27,1.49-.65,2.04-1.14.54-.49.94-1.06,1.2-1.72.25-.66.38-1.37.38-2.15Z"/>
    <path class="cls-4" d="M175.93,84.85c0,.13-.03.25-.1.35s-.18.18-.35.23c-.16.06-.38.11-.65.15-.27.04-.6.06-1,.06-.43,0-.77-.02-1.04-.06-.26-.04-.48-.09-.64-.15-.17-.06-.28-.14-.35-.23-.07-.1-.1-.21-.1-.35v-14.17h-14.54v14.17c0,.13-.03.25-.1.35s-.18.18-.35.23c-.16.06-.38.11-.65.15-.27.04-.61.06-1.02.06s-.73-.02-1.01-.06c-.28-.04-.5-.09-.67-.15-.16-.06-.28-.14-.35-.23s-.1-.21-.1-.35v-30.66c0-.13.03-.25.1-.35.07-.1.18-.18.35-.23.17-.06.39-.11.67-.15.28-.04.62-.06,1.01-.06s.75.02,1.02.06c.27.04.49.09.65.15.17.06.28.14.35.23.07.1.1.21.1.35v12.79h14.54v-12.79c0-.13.03-.25.1-.35.07-.1.18-.18.35-.23.16-.06.38-.11.64-.15.26-.04.61-.06,1.04-.06.39,0,.73.02,1,.06.27.04.49.09.65.15.17.06.28.14.35.23.07.1.1.21.1.35v30.66Z"/>
    <path class="cls-4" d="M217.09,69.15c0,2.58-.3,4.91-.91,6.99-.61,2.07-1.52,3.84-2.73,5.29-1.21,1.46-2.73,2.58-4.55,3.36-1.83.78-3.96,1.17-6.39,1.17s-4.48-.36-6.23-1.07-3.2-1.76-4.34-3.12c-1.14-1.37-2-3.06-2.56-5.09s-.84-4.35-.84-6.99.3-4.81.91-6.86c.61-2.06,1.52-3.81,2.74-5.25,1.22-1.44,2.74-2.55,4.57-3.33s3.96-1.17,6.39-1.17,4.4.35,6.15,1.06c1.75.71,3.2,1.74,4.36,3.1,1.16,1.36,2.02,3.04,2.59,5.04.57,2,.85,4.29.85,6.88ZM212.59,69.45c0-1.81-.16-3.49-.48-5.05-.32-1.56-.85-2.9-1.6-4.05-.75-1.14-1.75-2.04-3-2.68-1.25-.64-2.79-.96-4.64-.96s-3.39.35-4.64,1.04-2.26,1.61-3.04,2.77c-.78,1.15-1.34,2.5-1.68,4.04-.34,1.54-.5,3.16-.5,4.85,0,1.88.16,3.6.47,5.18s.84,2.94,1.58,4.09c.74,1.14,1.73,2.03,2.97,2.67,1.24.63,2.8.95,4.67.95s3.42-.35,4.69-1.04c1.27-.69,2.28-1.62,3.06-2.8.77-1.18,1.32-2.54,1.65-4.09.33-1.55.49-3.18.49-4.91Z"/>
    <path class="cls-4" d="M246.27,83.64c0,.33-.02.6-.05.83-.03.22-.09.41-.16.57-.07.16-.16.27-.27.35s-.23.11-.38.11h-14.12c-.38,0-.74-.13-1.07-.38-.34-.25-.51-.7-.51-1.35v-29.58c0-.13.03-.25.1-.35.07-.1.18-.18.35-.23.17-.06.39-.11.67-.15.28-.04.62-.06,1.01-.06s.75.02,1.02.06c.27.04.49.09.65.15.17.06.28.14.35.23.07.1.1.21.1.35v27.63h11.46c.15,0,.28.04.38.11s.2.18.27.32c.07.14.13.33.16.55.03.23.05.51.05.84Z"/>
    <path class="cls-4" d="M277.65,80.98c0,.26,0,.49-.02.69-.02.2-.05.37-.09.52-.04.15-.1.28-.16.4s-.18.25-.35.42-.51.42-1.04.75c-.53.34-1.18.67-1.96.99-.78.32-1.68.59-2.69.81-1.01.22-2.12.33-3.32.33-2.07,0-3.95-.34-5.62-1.04-1.67-.69-3.09-1.71-4.27-3.06s-2.08-3.02-2.72-5c-.63-1.98-.95-4.27-.95-6.85s.34-5.01,1.02-7.09,1.64-3.83,2.88-5.27c1.23-1.44,2.71-2.54,4.43-3.3,1.72-.76,3.62-1.14,5.72-1.14.92,0,1.82.09,2.69.26.87.17,1.68.39,2.42.65.74.26,1.4.57,1.97.91s.98.63,1.2.85c.22.22.37.39.43.51.07.12.12.25.16.41.04.16.07.34.1.56s.04.47.04.77c0,.33-.02.61-.05.84-.03.23-.08.42-.15.58-.07.16-.15.27-.24.35-.09.07-.2.11-.33.11-.23,0-.55-.16-.97-.48-.41-.32-.95-.67-1.6-1.06s-1.45-.74-2.38-1.06c-.94-.32-2.06-.48-3.36-.48-1.42,0-2.72.28-3.88.85-1.17.57-2.16,1.4-2.99,2.51-.83,1.1-1.47,2.45-1.92,4.04s-.68,3.4-.68,5.44.22,3.81.66,5.37c.44,1.56,1.07,2.86,1.89,3.9.82,1.05,1.82,1.84,3.02,2.37,1.19.54,2.54.8,4.05.8,1.27,0,2.39-.16,3.34-.47s1.76-.66,2.43-1.05,1.22-.74,1.65-1.05c.43-.31.77-.47,1.02-.47.12,0,.21.03.3.07.08.05.15.14.2.28.05.14.09.33.11.58s.04.56.04.94Z"/>
    <path class="cls-4" d="M315.5,69.15c0,2.58-.3,4.91-.91,6.99-.61,2.07-1.52,3.84-2.73,5.29-1.21,1.46-2.73,2.58-4.55,3.36-1.83.78-3.96,1.17-6.39,1.17s-4.48-.36-6.23-1.07-3.2-1.76-4.34-3.12c-1.14-1.37-2-3.06-2.56-5.09s-.84-4.35-.84-6.99.3-4.81.91-6.86c.61-2.06,1.52-3.81,2.74-5.25,1.22-1.44,2.74-2.55,4.57-3.33s3.96-1.17,6.39-1.17,4.4.35,6.15,1.06c1.75.71,3.2,1.74,4.36,3.1,1.16,1.36,2.02,3.04,2.59,5.04.57,2,.85,4.29.85,6.88ZM311.01,69.45c0-1.81-.16-3.49-.48-5.05-.32-1.56-.85-2.9-1.6-4.05-.75-1.14-1.75-2.04-3-2.68-1.25-.64-2.79-.96-4.64-.96s-3.39.35-4.64,1.04-2.26,1.61-3.04,2.77c-.78,1.15-1.34,2.5-1.68,4.04-.34,1.54-.5,3.16-.5,4.85,0,1.88.16,3.6.47,5.18s.84,2.94,1.58,4.09c.74,1.14,1.73,2.03,2.97,2.67,1.24.63,2.8.95,4.67.95s3.42-.35,4.69-1.04c1.27-.69,2.28-1.62,3.06-2.8.77-1.18,1.32-2.54,1.65-4.09.33-1.55.49-3.18.49-4.91Z"/>
    <path class="cls-4" d="M362.85,84.85c0,.13-.03.25-.1.35-.07.1-.19.18-.36.23-.17.06-.39.11-.65.15s-.61.06-1.03.06c-.39,0-.72-.02-1-.06-.28-.04-.5-.09-.66-.15s-.28-.14-.34-.23c-.07-.1-.1-.21-.1-.35v-27.82h-.05l-11.26,27.95c-.05.12-.12.21-.21.3-.09.08-.22.15-.39.21-.17.06-.38.1-.62.12-.24.02-.52.04-.85.04s-.64-.02-.89-.05c-.25-.03-.45-.08-.62-.14-.16-.06-.29-.13-.38-.21-.09-.08-.15-.17-.19-.27l-10.76-27.95h-.03v27.82c0,.13-.03.25-.1.35-.07.1-.19.18-.36.23-.17.06-.39.11-.66.15-.27.04-.62.06-1.04.06s-.75-.02-1.02-.06c-.27-.04-.49-.09-.65-.15-.16-.06-.27-.14-.33-.23s-.09-.21-.09-.35v-29.38c0-.69.18-1.19.55-1.48.37-.3.78-.44,1.23-.44h2.61c.53,0,1,.05,1.4.15s.75.26,1.05.47.55.49.75.81c.2.33.38.72.53,1.16l9.13,23.13h.12l9.5-23.06c.18-.49.38-.91.6-1.26.22-.35.46-.62.71-.83.26-.21.55-.35.87-.44.32-.09.69-.14,1.1-.14h2.73c.25,0,.49.04.71.11.23.07.42.19.58.35.16.16.29.35.39.59.1.24.15.53.15.88v29.38Z"/>
    <path class="cls-4" d="M398.31,76.33c0,1-.13,1.93-.38,2.78-.25.85-.61,1.61-1.07,2.28-.46.68-1.02,1.27-1.67,1.78-.65.51-1.38.94-2.2,1.28-.81.35-1.69.61-2.62.78-.93.17-2,.26-3.2.26h-8.34c-.38,0-.74-.13-1.07-.38-.34-.25-.51-.7-.51-1.35v-28.49c0-.64.17-1.09.51-1.35.34-.25.7-.38,1.07-.38h7.26c1.91,0,3.47.18,4.69.54,1.22.36,2.23.89,3.05,1.58s1.43,1.54,1.84,2.54.62,2.14.62,3.41c0,.76-.09,1.48-.27,2.17-.18.69-.45,1.33-.8,1.91-.35.58-.8,1.11-1.33,1.57-.53.46-1.15.84-1.84,1.14.87.16,1.69.47,2.44.9.76.44,1.42.99,1.99,1.67.57.68,1.02,1.47,1.35,2.37.33.91.49,1.9.49,2.99ZM391.91,62.04c0-.77-.11-1.47-.32-2.1-.21-.63-.55-1.16-1.01-1.59s-1.06-.77-1.8-1c-.74-.23-1.72-.35-2.93-.35h-4.38v10.34h4.83c1.1,0,1.99-.14,2.66-.43.67-.29,1.23-.67,1.67-1.16s.77-1.05.97-1.7c.21-.65.31-1.32.31-2.01ZM393.84,76.58c0-.95-.15-1.79-.46-2.52-.3-.72-.75-1.33-1.33-1.83-.58-.49-1.31-.87-2.19-1.12-.88-.25-1.98-.38-3.31-.38h-5.08v11.26h6.16c.97,0,1.81-.12,2.54-.35s1.36-.57,1.91-1.02c.55-.45.98-1.02,1.29-1.69.31-.67.47-1.46.47-2.34Z"/>
  </g>
</svg>