<?xml version="1.0" encoding="UTF-8"?>
<svg id="Layer_1" data-name="Layer 1" xmlns="http://www.w3.org/2000/svg" version="1.1" viewBox="0 0 302.4 302.4">
  <defs>
    <style>
      .cls-1, .cls-2 {
        stroke: #1c421f;
        stroke-miterlimit: 10;
        stroke-width: 1.22px;
      }

      .cls-1, .cls-3 {
        fill: #1c421f;
      }

      .cls-2 {
        fill: none;
      }

      .cls-3 {
        stroke-width: 0px;
      }
    </style>
  </defs>
  <g>
    <polygon class="cls-1" points="181.16 133.73 184.24 133.73 187.26 153.3 200.88 153.3 197.43 133.56 200.1 133.56 204.45 155.97 184.9 155.97 181.16 133.73"/>
    <polygon class="cls-1" points="144.68 155.97 114.45 155.97 104.4 99.82 106.97 99.82 116.76 152.59 143.95 152.91 144.68 155.97"/>
    <polygon class="cls-1" points="212.53 133.65 215.19 133.65 219.52 155.97 216.43 155.97 212.53 133.65"/>
    <path class="cls-1" d="M239.35,138.93h2.2s-2.75-6.52-6.51-6.52-5.87,9.64-5.05,11.28c.83,1.66,1.47,2.3,4.13,2.3h8.56c1.28,0,3.49,1.38,3.49,3.48s.45,4.04-1.02,4.04h-15.98v2.45h17.28s1.58.11,1.94-.61c.5-.99,0-6.49-.1-7.81-.13-1.65-2.39-3.85-3.68-3.85h-11.22c-1.01,0-1.55-1.56-1.01-3.03.55-1.46,1.31-5.66,2.87-5.66s4.1,3.92,4.1,3.92Z"/>
    <path class="cls-1" d="M278.61,151.94l-2.48,1.58h-11.79l6.42-15.84s-3.85-4.22-6.54-4.22-5.14.98-7.21,5.01c-2.08,4.03,0,17.5,0,17.5h20.36l2.9-1.97-1.66-2.07ZM259.11,153.52s-1.56-11.08-.03-13.82c.52-.94,1.77-3.03,3.71-3.71,2.59-.91,5.1,2,5.1,2l-6.29,15.54h-2.49Z"/>
    <path class="cls-1" d="M70.25,142.86l16.97,13.38h-4.58l-14.46-11.31s-2.22,2.14-2.48,2.48c-.26.33,1.69,8.84,1.69,8.84h-3.24l-10.09-56.42h2.6s8.21,43.45,8.21,43.45l10.28-9.92h4.59l-9.5,9.51Z"/>
    <path class="cls-1" d="M171.68,143.36l-.13-.53c-1.08-4.58-1.96-8.22-2.38-9.47,0,0-16.19-.91-17.47.36-1.08,1.08-.22,5.37.54,9.96,1.24,7.44,1.24,8.26,2.06,12.39,0,0,4.21.22,7.92.19.46,0,.95-.02,1.47-.02h.05c3.41,0,8.53-.16,9.61-1.6.61-.81-1.19-9.07-1.68-11.29ZM163.39,153.6l-6.65-.08c-.36-1.99-.78-4.47-1.61-9.01-.65-3.58-1.24-7.44-.83-8.34.14-.29,3.41-.39,6.61-.33,3.05.05,6.2,0,6.2,0,0,0,1.19,3.84,1.97,7.42l.09.42c.36,1.73,1.66,7.28,1.66,9.09,0,.75-4.95.83-7.44.83Z"/>
    <path class="cls-1" d="M51.43,143.36l-.12-.53c-1.08-4.58-1.96-8.22-2.38-9.47,0,0-16.19-.91-17.47.36-1.08,1.08-.22,5.37.54,9.96,1.24,7.44,1.24,8.26,2.07,12.39,0,0,4.2.22,7.91.19.46,0,.95-.02,1.47-.02h.06c3.41,0,8.52-.16,9.6-1.6.61-.81-1.19-9.07-1.68-11.29ZM43.16,153.6l-6.66-.08c-.36-1.99-.78-4.47-1.61-9.01-.64-3.58-1.23-7.44-.82-8.34.13-.29,3.41-.39,6.6-.33,3.06.05,6.2,0,6.2,0,0,0,1.19,3.84,1.97,7.42l.09.42c.36,1.73,1.66,7.28,1.66,9.09,0,.75-4.96.83-7.43.83Z"/>
  </g>
  <g>
    <path class="cls-3" d="M59.75,187.36h3.19l2.98,8.16h.05l2.95-8.16h3.21v11.48h-2.03v-9.22h-.03l-3.49,9.22h-1.43l-3.44-9.22h-.03v9.22h-1.95v-11.48Z"/>
    <path class="cls-3" d="M79.4,197.85h-.05c-.19.35-.51.63-.94.85-.43.22-.92.33-1.48.33-.31,0-.64-.04-.98-.12-.34-.08-.65-.22-.94-.41-.29-.19-.52-.44-.71-.75-.19-.31-.28-.69-.28-1.14,0-.58.16-1.05.49-1.39s.75-.61,1.27-.79c.52-.18,1.09-.3,1.73-.36s1.25-.09,1.86-.09v-.2c0-.49-.18-.84-.53-1.08-.35-.23-.77-.35-1.26-.35-.41,0-.81.09-1.18.26s-.69.38-.94.63l-1.01-1.18c.44-.41.95-.72,1.53-.92.58-.21,1.16-.31,1.76-.31.69,0,1.26.1,1.71.29.45.19.8.45,1.06.76s.44.67.54,1.05c.1.39.15.78.15,1.17v4.73h-1.82v-.99ZM79.36,195.29h-.44c-.31,0-.64.01-.99.04-.35.03-.67.09-.96.18-.29.09-.54.22-.73.39-.19.17-.29.4-.29.69,0,.18.04.34.12.46.08.12.19.22.32.3.13.08.28.13.44.16s.32.05.49.05c.67,0,1.18-.18,1.52-.54.35-.36.52-.84.52-1.46v-.28Z"/>
    <path class="cls-3" d="M91.39,198.84h-1.85v-1.17h-.03c-.27.45-.65.8-1.13,1.04-.48.24-1,.36-1.55.36-.59,0-1.13-.11-1.6-.33s-.87-.52-1.2-.89-.58-.81-.76-1.31c-.18-.5-.27-1.04-.27-1.61s.09-1.11.28-1.61c.18-.5.44-.93.78-1.3.33-.37.73-.66,1.2-.87.46-.21.97-.32,1.52-.32.36,0,.68.04.96.12.28.08.53.18.74.3.21.12.39.25.54.39.15.14.28.28.37.41h.05v-5.46h1.95v12.26ZM84.99,194.92c0,.3.05.6.14.91.09.3.23.57.41.81.18.24.42.43.7.58.28.15.61.23.99.23.36,0,.68-.07.96-.22.28-.15.52-.34.72-.58.2-.24.35-.5.45-.8.1-.3.15-.6.15-.9s-.05-.61-.15-.91-.25-.57-.45-.81c-.2-.24-.44-.43-.72-.58-.28-.15-.6-.23-.96-.23-.38,0-.71.07-.99.22-.28.15-.51.34-.7.58-.18.24-.32.51-.41.8-.09.3-.14.6-.14.9Z"/>
    <path class="cls-3" d="M101.19,195.05v.26c0,.09,0,.17-.02.26h-5.92c.02.28.09.54.22.77.12.23.29.43.49.6.21.17.44.3.7.4s.53.15.81.15c.49,0,.9-.09,1.23-.27.33-.18.61-.42.83-.74l1.3,1.04c-.77,1.04-1.88,1.56-3.34,1.56-.61,0-1.16-.09-1.67-.28-.51-.19-.95-.46-1.32-.8-.37-.35-.66-.77-.88-1.27-.21-.5-.32-1.07-.32-1.71s.11-1.2.32-1.71c.21-.51.5-.95.87-1.31.37-.36.8-.64,1.3-.84.5-.2,1.05-.3,1.63-.3.54,0,1.04.09,1.5.27s.86.44,1.19.79c.33.35.6.79.79,1.31s.28,1.14.28,1.84ZM99.24,194.17c0-.25-.04-.49-.11-.71-.07-.23-.18-.43-.33-.6s-.34-.31-.58-.41c-.23-.1-.51-.15-.82-.15-.58,0-1.08.18-1.48.53-.41.35-.63.8-.67,1.35h3.99Z"/>
    <path class="cls-3" d="M106.88,188.42c0-.31.12-.59.35-.82s.53-.35.88-.35.66.11.9.33c.24.22.36.5.36.83s-.12.61-.36.83c-.24.22-.54.33-.9.33s-.65-.12-.88-.35-.35-.5-.35-.82ZM107.15,191.06h1.95v7.78h-1.95v-7.78Z"/>
    <path class="cls-3" d="M111.46,191.06h1.85v1.25h.03c.17-.39.47-.73.9-1.03.43-.3.93-.45,1.52-.45.51,0,.94.09,1.31.27.36.18.66.41.89.71s.4.63.51,1c.11.38.16.77.16,1.17v4.86h-1.95v-4.31c0-.23-.02-.46-.05-.71-.03-.25-.1-.47-.21-.67s-.26-.37-.45-.5c-.19-.13-.44-.19-.75-.19s-.58.06-.81.19c-.23.12-.41.28-.56.48s-.26.42-.33.67-.11.51-.11.77v4.28h-1.95v-7.78Z"/>
    <path class="cls-3" d="M125.05,187.36h3.74c.66,0,1.25.06,1.78.18.53.12.98.31,1.36.58.38.27.67.62.88,1.04.21.42.31.93.31,1.52,0,.64-.12,1.17-.36,1.6-.24.43-.56.78-.96,1.05-.41.26-.88.46-1.42.58-.54.12-1.11.18-1.72.18h-1.57v4.75h-2.04v-11.48ZM128.52,192.37c.33,0,.65-.02.96-.07.3-.05.57-.13.81-.26s.43-.29.57-.51.21-.5.21-.84-.07-.61-.21-.82-.33-.38-.56-.49c-.23-.12-.5-.2-.79-.24-.3-.04-.6-.06-.92-.06h-1.49v3.29h1.43Z"/>
    <path class="cls-3" d="M133.33,194.92c0-.62.11-1.18.33-1.68.22-.5.52-.93.9-1.29.38-.36.83-.63,1.35-.83.52-.19,1.07-.29,1.65-.29s1.13.1,1.65.29c.52.19.97.47,1.35.83.38.36.68.79.9,1.29.22.5.33,1.06.33,1.68s-.11,1.18-.33,1.69c-.22.51-.52.94-.9,1.3-.38.36-.83.65-1.35.85-.52.21-1.07.31-1.65.31s-1.13-.1-1.65-.31c-.52-.21-.97-.49-1.35-.85-.38-.36-.68-.8-.9-1.3-.22-.51-.33-1.07-.33-1.69ZM135.31,194.92c0,.3.05.6.14.91.09.3.23.57.41.81.18.24.42.43.7.58.28.15.62.23,1.01.23s.72-.08,1-.23.51-.35.7-.58c.18-.24.32-.51.41-.81.09-.3.14-.6.14-.91s-.05-.6-.14-.9c-.09-.3-.23-.56-.41-.8-.18-.24-.42-.43-.7-.58s-.62-.22-1-.22-.72.07-1.01.22c-.28.15-.51.34-.7.58-.18.24-.32.51-.41.8-.09.3-.14.6-.14.9Z"/>
    <path class="cls-3" d="M143.68,191.06h1.86v1.3h.03c.22-.45.52-.82.91-1.1.39-.28.84-.42,1.36-.42.08,0,.16,0,.24,0,.09,0,.16.02.23.04v1.78c-.13-.03-.24-.05-.33-.06-.09-.01-.18-.02-.27-.02-.44,0-.8.08-1.07.24-.27.16-.48.36-.63.58-.15.23-.25.46-.31.7-.05.24-.08.43-.08.57v4.17h-1.95v-7.78Z"/>
    <path class="cls-3" d="M148.27,192.62v-1.56h1.36v-2.25h1.91v2.25h1.95v1.56h-1.95v3.62c0,.35.06.63.19.86s.4.34.83.34c.13,0,.27-.01.42-.04.15-.03.29-.07.41-.12l.06,1.52c-.17.07-.38.12-.62.15-.24.04-.46.06-.68.06-.52,0-.94-.07-1.26-.22-.32-.15-.58-.35-.77-.6s-.32-.55-.39-.88c-.07-.33-.1-.68-.1-1.06v-3.63h-1.36Z"/>
    <path class="cls-3" d="M154.93,186.59h1.95v12.26h-1.95v-12.26Z"/>
    <path class="cls-3" d="M164.07,197.85h-.05c-.19.35-.51.63-.94.85-.43.22-.92.33-1.47.33-.31,0-.64-.04-.98-.12-.34-.08-.65-.22-.94-.41-.29-.19-.52-.44-.71-.75-.19-.31-.28-.69-.28-1.14,0-.58.16-1.05.49-1.39.33-.35.75-.61,1.27-.79.52-.18,1.09-.3,1.73-.36.63-.06,1.25-.09,1.86-.09v-.2c0-.49-.18-.84-.53-1.08-.35-.23-.77-.35-1.26-.35-.41,0-.81.09-1.18.26-.38.17-.69.38-.94.63l-1-1.18c.44-.41.95-.72,1.53-.92.58-.21,1.16-.31,1.76-.31.69,0,1.26.1,1.71.29s.8.45,1.06.76c.26.31.44.67.54,1.05.1.39.15.78.15,1.17v4.73h-1.82v-.99ZM164.04,195.29h-.44c-.31,0-.64.01-.99.04s-.67.09-.96.18c-.29.09-.54.22-.73.39-.2.17-.29.4-.29.69,0,.18.04.34.12.46.08.12.19.22.32.3.13.08.28.13.44.16s.32.05.49.05c.67,0,1.18-.18,1.52-.54.35-.36.52-.84.52-1.46v-.28Z"/>
    <path class="cls-3" d="M168.16,191.06h1.85v1.25h.03c.17-.39.47-.73.9-1.03.43-.3.93-.45,1.52-.45.51,0,.94.09,1.3.27s.66.41.89.71.4.63.51,1c.11.38.16.77.16,1.17v4.86h-1.95v-4.31c0-.23-.02-.46-.05-.71-.03-.25-.1-.47-.21-.67-.11-.2-.26-.37-.45-.5-.19-.13-.44-.19-.75-.19s-.58.06-.81.19-.41.28-.56.48c-.15.19-.26.42-.33.67-.08.25-.11.51-.11.77v4.28h-1.95v-7.78Z"/>
    <path class="cls-3" d="M185.5,198.84h-1.85v-1.17h-.03c-.27.45-.65.8-1.13,1.04-.48.24-1,.36-1.55.36-.59,0-1.13-.11-1.6-.33-.47-.22-.87-.52-1.2-.89-.33-.37-.58-.81-.76-1.31-.18-.5-.27-1.04-.27-1.61s.09-1.11.28-1.61c.18-.5.44-.93.78-1.3.33-.37.73-.66,1.2-.87s.97-.32,1.52-.32c.36,0,.67.04.96.12s.53.18.74.3c.21.12.39.25.54.39.15.14.28.28.37.41h.05v-5.46h1.95v12.26ZM179.1,194.92c0,.3.05.6.14.91s.23.57.41.81c.18.24.42.43.7.58s.61.23.99.23c.36,0,.67-.07.96-.22.28-.15.52-.34.72-.58s.35-.5.45-.8c.1-.3.15-.6.15-.9s-.05-.61-.15-.91-.25-.57-.45-.81c-.2-.24-.44-.43-.72-.58-.28-.15-.6-.23-.96-.23-.38,0-.71.07-.99.22s-.51.34-.7.58c-.18.24-.32.51-.41.8-.09.3-.14.6-.14.9Z"/>
    <path class="cls-3" d="M188.23,196.61h1.88l-1.38,4.28h-1.64l1.13-4.28Z"/>
    <path class="cls-3" d="M195.2,193.07c0-.92.15-1.75.46-2.49.31-.74.73-1.37,1.28-1.89.55-.52,1.19-.92,1.95-1.2.75-.28,1.57-.42,2.46-.42s1.72.14,2.48.42c.76.28,1.41.68,1.96,1.2.55.52.98,1.15,1.29,1.89s.46,1.57.46,2.49-.15,1.72-.46,2.46-.74,1.38-1.29,1.91-1.21.95-1.96,1.25c-.76.3-1.58.45-2.48.45s-1.71-.15-2.46-.45c-.75-.3-1.4-.71-1.95-1.25s-.97-1.17-1.28-1.91c-.31-.74-.46-1.56-.46-2.46ZM197.42,193.07c0,.62.09,1.18.28,1.69.19.51.46.96.81,1.34.35.38.77.67,1.25.88s1.01.32,1.6.32,1.12-.11,1.61-.32.9-.5,1.26-.88c.35-.38.62-.82.81-1.34s.29-1.08.29-1.69-.1-1.15-.29-1.65-.46-.95-.8-1.33c-.35-.38-.76-.67-1.25-.89-.49-.22-1.03-.32-1.62-.32s-1.13.11-1.61.32c-.48.22-.89.51-1.24.89-.35.38-.61.82-.8,1.33-.19.51-.28,1.06-.28,1.65Z"/>
    <path class="cls-3" d="M209.42,191.06h1.86v1.3h.03c.22-.45.52-.82.91-1.1.39-.28.84-.42,1.36-.42.08,0,.16,0,.24,0,.09,0,.16.02.23.04v1.78c-.13-.03-.24-.05-.33-.06s-.18-.02-.27-.02c-.44,0-.8.08-1.07.24-.27.16-.48.36-.63.58-.15.23-.25.46-.31.7-.05.24-.08.43-.08.57v4.17h-1.95v-7.78Z"/>
    <path class="cls-3" d="M222.45,195.05v.26c0,.09,0,.17-.02.26h-5.92c.02.28.09.54.22.77.12.23.29.43.49.6.21.17.44.3.7.4.26.1.53.15.81.15.49,0,.9-.09,1.23-.27.33-.18.61-.42.83-.74l1.3,1.04c-.77,1.04-1.88,1.56-3.34,1.56-.61,0-1.16-.09-1.67-.28-.51-.19-.95-.46-1.32-.8-.37-.35-.67-.77-.88-1.27s-.32-1.07-.32-1.71.11-1.2.32-1.71c.21-.51.5-.95.87-1.31.37-.36.8-.64,1.31-.84.5-.2,1.04-.3,1.63-.3.54,0,1.04.09,1.5.27.46.18.86.44,1.19.79.33.35.6.79.79,1.31s.28,1.14.28,1.84ZM220.51,194.17c0-.25-.04-.49-.1-.71-.07-.23-.18-.43-.33-.6s-.34-.31-.58-.41-.51-.15-.82-.15c-.58,0-1.08.18-1.48.53-.41.35-.63.8-.67,1.35h3.99Z"/>
    <path class="cls-3" d="M232.24,191.06v7.08c0,.7-.09,1.34-.26,1.91s-.44,1.05-.8,1.44-.82.7-1.37.92c-.55.22-1.21.32-1.96.32-.31,0-.65-.03-1-.08-.35-.05-.7-.13-1.04-.24-.34-.11-.67-.24-.98-.41s-.59-.35-.84-.55l1.12-1.51c.38.36.8.63,1.28.82.48.19.96.28,1.44.28s.86-.07,1.18-.2c.32-.14.57-.32.76-.56.19-.24.32-.52.41-.85s.12-.68.12-1.07v-.57h-.03c-.28.38-.64.67-1.08.88-.44.2-.93.3-1.47.3-.58,0-1.11-.11-1.59-.32s-.88-.51-1.21-.88c-.33-.37-.59-.8-.77-1.29-.18-.49-.28-1.01-.28-1.56s.09-1.09.27-1.59c.18-.5.43-.93.76-1.3.33-.37.73-.66,1.2-.88.47-.22,1-.32,1.58-.32.55,0,1.06.11,1.54.34.48.23.85.58,1.13,1.05h.03v-1.17h1.85ZM228.09,192.42c-.36,0-.67.06-.95.19-.28.13-.51.3-.7.52-.19.22-.33.48-.44.78-.1.3-.15.62-.15.97,0,.31.05.61.15.9.1.29.25.55.44.78.19.23.42.42.7.56.28.14.59.21.93.21s.68-.07.96-.2.53-.32.73-.54c.2-.23.35-.49.46-.78.11-.3.16-.61.16-.93s-.05-.65-.16-.95c-.11-.3-.26-.57-.46-.79-.2-.23-.44-.4-.72-.53-.28-.13-.6-.19-.96-.19Z"/>
    <path class="cls-3" d="M234.12,194.92c0-.62.11-1.18.33-1.68.22-.5.52-.93.9-1.29.38-.36.83-.63,1.35-.83s1.07-.29,1.65-.29,1.13.1,1.65.29c.52.19.97.47,1.35.83.38.36.68.79.9,1.29.22.5.33,1.06.33,1.68s-.11,1.18-.33,1.69-.52.94-.9,1.3c-.38.36-.83.65-1.35.85-.52.21-1.07.31-1.65.31s-1.13-.1-1.65-.31-.97-.49-1.35-.85c-.38-.36-.68-.8-.9-1.3-.22-.51-.33-1.07-.33-1.69ZM236.1,194.92c0,.3.05.6.14.91s.23.57.41.81c.18.24.42.43.7.58s.62.23,1,.23.72-.08,1.01-.23c.28-.15.51-.35.7-.58.18-.24.32-.51.41-.81s.14-.6.14-.91-.05-.6-.14-.9c-.09-.3-.23-.56-.41-.8-.18-.24-.42-.43-.7-.58-.28-.15-.62-.22-1.01-.22s-.72.07-1,.22-.51.34-.7.58c-.18.24-.32.51-.41.8-.09.3-.14.6-.14.9Z"/>
    <path class="cls-3" d="M244.47,191.06h1.85v1.25h.03c.17-.39.47-.73.9-1.03.43-.3.93-.45,1.52-.45.51,0,.94.09,1.3.27s.66.41.89.71.4.63.51,1c.11.38.16.77.16,1.17v4.86h-1.95v-4.31c0-.23-.02-.46-.05-.71-.03-.25-.1-.47-.21-.67s-.26-.37-.45-.5c-.19-.13-.44-.19-.75-.19s-.58.06-.81.19c-.23.12-.41.28-.56.48s-.26.42-.33.67c-.08.25-.11.51-.11.77v4.28h-1.95v-7.78Z"/>
  </g>
  <circle class="cls-2" cx="151.2" cy="151.2" r="146.43"/>
</svg>