<?xml version="1.0" encoding="UTF-8"?>
<svg id="Layer_1" data-name="Layer 1" xmlns="http://www.w3.org/2000/svg" viewBox="0 0 45.18 35.7">
  <defs>
    <style>
      .cls-1, .cls-2 {
        fill: #78a0db;
        stroke: #78a0db;
        stroke-miterlimit: 10;
      }

      .cls-3 {
        fill: none;
        stroke: #231f20;
      }

      .cls-3, .cls-4 {
        stroke-linejoin: round;
      }

      .cls-3, .cls-4, .cls-2 {
        stroke-linecap: round;
      }

      .cls-4 {
        fill: #f37746;
        stroke: #f37746;
      }
    </style>
  </defs>
  <path class="cls-3" d="M22.25.5s-.11,23.1-.05,32.54"/>
  <path class="cls-2" d="M.5,24.22c4.91,2.75,10.01,5.6,13.7,7.63"/>
  <polygon class="cls-4" points="44.67 .5 44.67 35.17 37.5 31.29 37.5 .5 44.67 .5"/>
  <path class="cls-4" d="M30.23,31.19V.8s0-.3,0-.3h-7.97s-.84,34.69-.84,34.69c.97.04,1.71-.08,2.02-.25,1.89-1.03,4.25-2.34,6.78-3.74"/>
  <path class="cls-1" d="M14.18,31.85c2.49,1.37,4.33,2.36,5.04,2.69.61.28,2.99,1.37,2.99-.1l.04-33.94h-.53s-6.68,0-6.68,0v1.14c.04,8.56,0,26.64-.15,28.39-.08.82-.34,1.39-.71,1.78"/>
  <line class="cls-2" x1=".5" y1=".5" x2="15.06" y2=".5"/>
  <line class="cls-4" x1="30.23" y1="17.08" x2="37.5" y2="17.08"/>
  <path class="cls-4" d="M37.5,31.29c2.46,1.36,4.74,2.61,6.58,3.62.18.1.38.18.6.23"/>
</svg>