<?xml version="1.0" encoding="UTF-8"?>
<svg id="Layer_1" data-name="Layer 1" xmlns="http://www.w3.org/2000/svg" viewBox="0 0 250.83 249.75">
  <defs>
    <style>
      .cls-1 {
        fill: none;
      }
    </style>
  </defs>
  <path class="cls-1" d="M250.83,144.73c-.14,17.55-.67,36.87-2.22,60.67-2.15,33.02-13.7,44.35-36.74,44.35-11.69,0-21.18,0-54.81,0h-28.11s-7.08,0-7.08,0H38.95c-23.04,0-34.59-11.32-36.74-44.35-1.55-23.81-2.08-43.12-2.22-60.67v-39.72c.14-17.55.67-36.87,2.22-60.67C4.36,11.32,15.91,0,38.95,0h90s28.11,0,28.11,0c33.63,0,43.12,0,54.81,0,23.04,0,34.59,11.32,36.74,44.35,1.55,23.81,2.08,43.12,2.22,60.67v39.72Z"/>
</svg>

