<?xml version="1.0" encoding="UTF-8"?>
<svg id="Layer_1" data-name="Layer 1" xmlns="http://www.w3.org/2000/svg" xmlns:xlink="http://www.w3.org/1999/xlink" version="1.1" viewBox="0 0 845 710">
  <defs>
    <style>
      .cls-1 {
        clip-path: url(#clippath);
      }

      .cls-2 {
        fill: none;
      }

      .cls-2, .cls-3 {
        stroke-width: 0px;
      }

      .cls-4 {
        clip-path: url(#clippath-1);
      }

      .cls-3 {
        fill: #00306d;
      }
    </style>
    <clipPath id="clippath">
      <rect class="cls-2" x="5.13" y="250.55" width="694.12" height="208.91"/>
    </clipPath>
    <clipPath id="clippath-1">
      <rect class="cls-2" x="161.87" y="4.01" width="678" height="701.98"/>
    </clipPath>
  </defs>
  <g class="cls-1">
    <path class="cls-3" d="M645.43,345.57c.4,7.82,1.75,13.85,4.05,18.08,2.31,4.23,5.1,7.01,8.35,8.35,3.29,1.36,6.84,1.41,10.68.12,3.86-1.28,7.46-3.57,10.8-6.85,3.34-3.25,6.18-7.35,8.55-12.29,2.36-4.94,3.68-10.48,3.94-16.62.26-4.62-.09-9.11-1.07-13.47-.95-4.36-2.29-8.25-4.02-11.66-1.73-3.39-3.85-6.08-6.34-8.08-2.52-1.97-5.38-2.95-8.59-2.95s-5.83.76-8.27,2.29c-2.42,1.55-4.62,3.64-6.62,6.26-2,2.63-3.69,5.61-5.08,8.95-1.42,3.34-2.61,6.67-3.58,10-.95,3.34-1.66,6.57-2.13,9.69-.44,3.15-.67,5.88-.67,8.2ZM638.34,344.78c0-2.94.25-6.37.75-10.28.52-3.91,1.37-7.85,2.52-11.82,1.16-3.97,2.6-7.88,4.34-11.74,1.73-3.83,3.81-7.26,6.22-10.28,2.44-3.02,5.27-5.46,8.47-7.33,3.21-1.86,6.8-2.8,10.8-2.8s7.9,1.42,11.42,4.25c3.52,2.81,6.54,6.46,9.06,10.95,2.5,4.49,4.39,9.49,5.67,15.01,1.26,5.52,1.77,10.9,1.54,16.15,0,7.69-1.48,14.56-4.45,20.6-2.94,6.01-6.68,10.88-11.23,14.61-4.57,3.7-9.44,6.2-14.62,7.49-5.2,1.29-10.07.93-14.61-1.06-4.57-1.97-8.37-5.71-11.39-11.23-2.99-5.52-4.49-13.03-4.49-22.54ZM577.36,304.99c1.55-.66,2.9-.79,4.06-.39,1.15.39,2.11,1.1,2.88,2.12.76,1.02,1.34,2.21,1.73,3.55.39,1.34.71,2.65.95,3.94,1.68-2.81,4.08-5.08,7.21-6.81,3.15-1.73,6.53-2.89,10.12-3.47,3.57-.58,7.16-.71,10.75-.39,3.6.32,6.64,1.09,9.14,2.32,2.5,1.21,4.25,2.88,5.28,5,1.02,2.1.78,4.57-.75,7.41-3.34-1.95-6.83-3.49-10.48-4.65-3.65-1.16-7.21-1.53-10.68-1.14-3.47.39-6.67,1.71-9.61,3.94-2.97,2.26-5.41,5.82-7.32,10.68-1.92,4.89-3.1,11.33-3.55,19.34-.45,8.01.09,17.98,1.61,29.9h-7.28s-.11-1.05-.32-3.15c-.18-2.12-.37-4.92-.55-8.39-.21-3.46-.47-7.31-.79-11.54-.32-4.23-.61-8.52-.87-12.88-.26-4.36-.48-8.56-.67-12.61-.18-4.02-.41-7.51-.67-10.48,0-.37-.02-1.13-.08-2.29-.08-1.16-.12-2.42-.12-3.78v-6.23ZM514.68,281.12c0,2.7.02,5.21.08,7.52.05,2.31.25,4.56.59,6.74.32,2.18.72,4.41,1.22,6.7.52,2.31,1.23,4.95,2.12,7.92,3.99-.66,8.73-1.88,14.22-3.66,5.51-1.78,10.81-4.23,15.88-7.33,5.07-3.07,9.34-6.63,12.8-10.68,3.47-4.02,5.2-8.54,5.2-13.55,0-2.68-.65-5.08-1.93-7.21-1.28-2.13-2.93-3.89-4.93-5.28-1.97-1.42-4.18-2.51-6.62-3.27-2.44-.79-4.82-1.18-7.13-1.18-3.7,0-7.45.46-11.23,1.38-3.78.89-7.18,2.3-10.2,4.21-3.02,1.92-5.46,4.36-7.33,7.33-1.84,2.94-2.76,6.4-2.76,10.36ZM503.88,274.18c0-4.1,1.58-7.66,4.73-10.68,3.12-3,6.93-5.42,11.42-7.29,4.49-1.86,9.18-3.28,14.07-4.25,4.86-.95,9.02-1.42,12.49-1.42s6.96.58,10.48,1.73c3.55,1.16,6.66,2.78,9.34,4.88,2.71,2.13,4.79,4.82,6.27,8.08,1.47,3.28,1.94,7.04,1.42,11.27-.63,6.54-2.77,12.31-6.42,17.29-3.65,5.02-8.14,9.22-13.47,12.61-5.33,3.41-11.1,5.99-17.29,7.72-6.23,1.73-12.23,2.6-18,2.6,0,4.73.2,9.43.59,14.1.37,4.7.77,9.41,1.22,14.15.44,4.75.87,9.46,1.26,14.14.39,4.68.59,9.39.59,14.15,0,1.42-.13,2.73-.39,3.94-.26,1.23-1.42,2.17-3.47,2.8l-3.86-3.66c0-.13-.18-1.92-.55-5.35-.4-3.47-.95-7.96-1.66-13.47-.71-5.52-1.47-11.77-2.29-18.75-.84-6.98-1.64-14.01-2.4-21.07-.78-7.07-1.52-13.87-2.21-20.41-.71-6.54-1.32-12.18-1.85-16.9v-6.18ZM402.37,459.45l-8.67-.59c0-6.41.58-13.01,1.73-19.82,1.15-6.8,2.34-13.6,3.54-20.41,1.21-6.77,2.23-13.56,3.08-20.36.84-6.8.95-13.48.32-20.02l-47.91-81.15c2.81-2.58,5.05-4.02,6.74-4.33,1.65-.34,2.61-.38,2.88-.12.9,1.29,2.4,3.66,4.53,7.13,2.1,3.47,4.53,7.5,7.29,12.09,2.76,4.62,5.68,9.51,8.75,14.66,3.1,5.12,6.01,9.99,8.75,14.61,2.76,4.6,5.14,8.7,7.13,12.29,2,3.6,3.38,6.1,4.13,7.52l8.87-71.38,9.61,4.81-20.76,165.06ZM296.16,304.99c1.55-.66,2.9-.79,4.05-.39,1.16.39,2.12,1.1,2.88,2.12.79,1.02,1.37,2.21,1.73,3.55.4,1.34.72,2.65.98,3.94,1.66-2.81,4.06-5.08,7.21-6.81,3.12-1.73,6.49-2.89,10.09-3.47,3.6-.58,7.2-.71,10.79-.39,3.57.32,6.61,1.09,9.1,2.32,2.52,1.21,4.29,2.88,5.32,5,1.02,2.1.76,4.57-.79,7.41-3.34-1.95-6.83-3.49-10.48-4.65-3.65-1.16-7.21-1.53-10.68-1.14-3.47.39-6.67,1.71-9.61,3.94-2.94,2.26-5.38,5.82-7.33,10.68-1.92,4.89-3.1,11.33-3.54,19.34-.45,8.01.1,17.98,1.65,29.9h-7.33s-.09-1.05-.27-3.15c-.21-2.12-.41-4.92-.59-8.39-.18-3.46-.43-7.31-.75-11.54-.34-4.23-.63-8.52-.87-12.88-.26-4.36-.5-8.56-.71-12.61-.18-4.02-.41-7.51-.67-10.48,0-.37-.03-1.13-.08-2.29-.08-1.16-.12-2.42-.12-3.78v-6.23ZM247.9,310.19c-1.15-.4-2.72-.57-4.69-.52-2,.08-4.12.21-6.38.4-2.24.18-4.38.41-6.42.67-2.05.26-3.78.4-5.2.4-.63,0-1.05-.93-1.26-2.8-.18-1.87-.47-4.4-.87-7.6l27.14-1.93c.37-4.46.62-7.67.75-9.61.13-1.91.17-3.54.12-4.88-.08-1.34-.15-2.88-.2-4.61-.08-1.73-.12-4.46-.12-8.2,3.34-.5,5.87-.66,7.6-.47,1.73.18,2.93.67,3.59,1.46.63.76.92,1.88.87,3.35-.08,1.47-.28,3.29-.59,5.47-.31,2.18-.58,4.81-.78,7.88-.18,3.07-.08,6.54.31,10.4l23.09-.79v9.45c-1.02,0-2.62.07-4.8.2-2.18.11-4.53.22-7.05.36-2.5.13-4.79.26-6.9.39-2.13.13-3.7.4-4.73.79-1.03,4.6-2.12,9.54-3.27,14.81-1.15,5.25-1.93,10.44-2.32,15.56-.37,5.12-.23,9.9.4,14.34.66,4.41,2.26,8.06,4.81,10.95,2.58,2.89,6.22,4.89,10.95,5.99,4.75,1.08,11.04.72,18.87-1.06-.26,1.92-1,3.48-2.21,4.69-1.23,1.23-2.65,2.21-4.25,2.91-1.6.68-3.3,1.2-5.08,1.54-1.79.31-3.39.47-4.8.47-6.54,0-11.74-1.18-15.6-3.55-3.84-2.39-6.71-5.5-8.63-9.34-1.94-3.86-3.16-8.26-3.66-13.2-.53-4.94-.68-9.96-.47-15.09.18-5.12.53-10.19,1.06-15.21.5-4.99.75-9.54.75-13.63ZM149.26,379.05c-.26-2.07-.5-5.05-.71-8.94-.18-3.91-.37-8.34-.55-13.28-.21-4.94-.37-10.1-.47-15.48-.13-5.41-.26-10.55-.39-15.4-.13-4.89-.29-9.29-.47-13.2-.21-3.89-.5-6.87-.87-8.94,0-.11-.04-.42-.12-.95-.05-.53-.12-1.11-.2-1.73-.05-.63-.08-1.17-.08-1.61v-1.07c1.92-1.55,3.55-2.06,4.89-1.54,1.37.5,2.5,1.61,3.39,3.35.89,1.73,1.54,3.89,1.93,6.46.37,2.55.66,5.11.87,7.68.18,2.57.28,4.91.28,7.01v4.53c.26-2.18.65-4.74,1.14-7.68.53-2.97,1.3-5.99,2.32-9.06,1.03-3.07,2.27-6.12,3.74-9.14,1.47-3.02,3.3-5.67,5.48-7.96,2.18-2.31,4.65-4.11,7.41-5.4,2.76-1.28,5.94-1.8,9.53-1.53,5.65.26,10.29,1.8,13.95,4.61,3.65,2.81,6.54,6.59,8.67,11.34,2.1,4.75,3.64,10.2,4.61,16.35.95,6.15,1.59,12.69,1.93,19.62.31,6.93.41,13.96.27,21.07-.13,7.12-.2,13.95-.2,20.49-1.16.26-2.31.68-3.47,1.26-1.15.58-2.11.83-2.88.75-.76-.05-1.31-.63-1.65-1.73-.32-1.08-.21-3.22.31-6.42.13-2.31.35-5.87.67-10.68.31-4.83.45-10.19.39-16.07-.08-5.91-.43-12-1.07-18.28-.66-6.28-1.85-12.02-3.58-17.22-1.71-5.2-4.18-9.43-7.41-12.69-3.21-3.28-7.37-4.92-12.49-4.92-5.25,2.18-9.64,6.29-13.16,12.33-3.54,6.02-6.37,13.07-8.47,21.16-2.13,8.06-3.66,16.81-4.61,26.24-.97,9.43-1.52,18.63-1.66,27.61-.26-.13-.75-.2-1.46-.2s-1.44-.03-2.28-.08c-.84-.08-1.61-.19-2.33-.32-.71-.13-1.11-.25-1.22-.36ZM104.82,349.98c-6.41,1.81-10.9,3.97-13.47,6.46-2.57,2.5-3.69,4.9-3.35,7.21.31,2.31,1.81,4.4,4.49,6.26,2.71,1.84,5.98,3.05,9.81,3.62,3.86.58,8.04.26,12.53-.95,4.49-1.21,8.78-3.61,12.88-7.21-1.55-3.73-3.09-6.58-4.61-8.55-1.55-2-3.21-3.5-5-4.53-1.81-1.02-3.81-1.67-5.99-1.93-2.18-.26-4.61-.39-7.29-.39ZM79.81,363.45c0-7.3,2.02-12.62,6.07-15.95s9.34-5,15.88-5c2.55,0,4.95.07,7.21.2,2.23.13,4.37.45,6.42.95,2.05.52,4.07,1.3,6.07,2.32,2,1.02,4.08,2.49,6.26,4.41,0-.39.03-1.2.08-2.4.08-1.21.12-2.52.12-3.94v-6.54c-.13-2.31-.2-5.29-.2-8.94s-.29-7.41-.87-11.26c-.58-3.84-1.73-7.49-3.47-10.95-1.73-3.46-4.52-6.09-8.35-7.88-2.71,0-5.21.45-7.52,1.34-2.31.9-4.62,1.85-6.93,2.88-2.29,1.03-4.58,1.96-6.89,2.8-2.31.84-4.82,1.26-7.52,1.26,0-3.2,1-5.87,2.99-8,2-2.13,4.4-3.77,7.21-4.93,2.81-1.13,5.76-1.89,8.86-2.28,3.07-.4,5.77-.59,8.07-.59,2.31.39,4.45.84,6.42,1.34,2,.52,3.86,1.56,5.59,3.11,1.73,1.52,3.34,3.86,4.8,7.01,1.47,3.12,2.76,7.51,3.86,13.16,1.08,5.65,2.04,12.81,2.88,21.47.84,8.64,1.51,19.25,2.01,31.83.27,1.66-.27,3.1-1.61,4.33-1.37,1.21-3.2,2.23-5.52,3.07-2.29.84-4.87,1.53-7.76,2.09-2.89.57-5.82,1-8.79,1.26-2.94.26-5.75.46-8.43.59-2.7.13-4.95.2-6.73.2-2.31,0-4.65-.4-7.02-1.18-2.39-.76-4.57-1.88-6.54-3.35-2-1.47-3.61-3.27-4.84-5.4-1.21-2.1-1.81-4.44-1.81-7.02ZM15.95,281.12c0,2.7.04,5.21.12,7.52.05,2.31.23,4.56.55,6.74.34,2.18.76,4.41,1.26,6.7.53,2.31,1.23,4.95,2.13,7.92,3.96-.66,8.71-1.88,14.22-3.66,5.52-1.78,10.8-4.23,15.88-7.33,5.07-3.07,9.34-6.63,12.8-10.68,3.44-4.02,5.16-8.54,5.16-13.55,0-2.68-.63-5.08-1.89-7.21-1.29-2.13-2.93-3.89-4.93-5.28-2-1.42-4.2-2.51-6.62-3.27-2.45-.79-4.82-1.18-7.13-1.18-3.73,0-7.48.46-11.27,1.38-3.78.89-7.17,2.3-10.16,4.21-3.02,1.92-5.46,4.36-7.33,7.33-1.86,2.94-2.8,6.4-2.8,10.36ZM5.19,274.18c0-4.1,1.56-7.66,4.69-10.68,3.15-3,6.97-5.42,11.46-7.29,4.49-1.86,9.16-3.28,14.02-4.25,4.89-.95,9.06-1.42,12.53-1.42s6.96.58,10.48,1.73c3.52,1.16,6.63,2.78,9.34,4.88,2.68,2.13,4.75,4.82,6.22,8.08,1.5,3.28,1.98,7.04,1.46,11.27-.63,6.54-2.78,12.31-6.46,17.29-3.65,5.02-8.13,9.22-13.43,12.61-5.33,3.41-11.11,5.99-17.34,7.72-6.22,1.73-12.21,2.6-17.96,2.6,0,4.73.19,9.43.55,14.1.39,4.7.81,9.41,1.26,14.15.45,4.75.87,9.46,1.26,14.14.37,4.68.55,9.39.55,14.15,0,1.42-.12,2.73-.35,3.94-.27,1.23-1.42,2.17-3.47,2.8l-3.86-3.66c0-.13-.2-1.92-.59-5.35-.37-3.47-.9-7.96-1.61-13.47-.71-5.52-1.48-11.77-2.32-18.75-.81-6.98-1.62-14.01-2.4-21.07-.76-7.07-1.5-13.87-2.21-20.41s-1.31-12.18-1.81-16.9v-6.18Z"/>
  </g>
  <g class="cls-4">
    <path class="cls-3" d="M488.65,4.01c193.84,0,350.99,157.15,350.99,350.99s-157.14,350.99-350.99,350.99c-148.26,0-275.05-91.92-326.48-221.88h10.15c50.93,124.64,173.37,212.46,316.33,212.46,188.64,0,341.57-152.93,341.57-341.57S677.3,13.43,488.65,13.43c-142.96,0-265.4,87.82-316.33,212.46h-10.15C213.61,95.93,340.4,4.01,488.65,4.01Z"/>
  </g>
</svg>