<svg width="415" height="311" viewBox="0 0 415 311" fill="none" xmlns="http://www.w3.org/2000/svg">
<path d="M258.65 310.94C313.66 310.94 329.18 310.94 348.31 310.94C386 310.94 401.18 293.58 405.65 263.84C412.74 216.65 414.12 188.92 414.12 155.47C414.12 122.02 412.74 94.29 405.65 47.1C401.18 17.36 386 0 348.31 0C329.19 0 313.67 0 258.65 0H155.47C100.46 0 84.94 0 65.81 0C28.12 0 12.94 17.36 8.47 47.1C1.39 94.29 0 122.02 0 155.47C0 188.92 1.38 216.65 8.47 263.84C12.94 293.58 28.12 310.94 65.81 310.94C84.93 310.94 100.45 310.94 155.47 310.94H258.65Z" fill="white"/>
</svg>
