<?xml version="1.0" encoding="UTF-8"?>
<svg xmlns="http://www.w3.org/2000/svg" version="1.1" viewBox="0 0 612 612">
  <defs>
    <style>
      .cls-1 {
        fill: #f98232;
      }

      .cls-1, .cls-2, .cls-3, .cls-4, .cls-5, .cls-6, .cls-7, .cls-8, .cls-9, .cls-10 {
        stroke-width: 0px;
      }

      .cls-2 {
        fill: none;
      }

      .cls-3 {
        fill: #eab7b7;
      }

      .cls-4 {
        fill: #44644b;
      }

      .cls-5 {
        fill: #000;
      }

      .cls-6 {
        fill: #d6a1a1;
      }

      .cls-7 {
        fill: #060d5e;
      }

      .cls-8 {
        fill: #8e725e;
      }

      .cls-9 {
        fill: #fff;
      }

      .cls-10 {
        fill: #fc4d30;
      }
    </style>
  </defs>
  <g id="Layer_3" data-name="Layer 3">
    <circle class="cls-1" cx="312.73" cy="173.69" r="114.73"/>
  </g>
  <g id="Layer_1" data-name="Layer 1">
    <polygon class="cls-4" points="306.36 248.89 30.59 542.61 580.46 542.61 306.36 248.89"/>
  </g>
  <g id="Layer_2" data-name="Layer 2">
    <path class="cls-2" d="M364.51,215.27c-2.44,19.7-12.27,36.69-26.35,48.54l-1.08.84"/>
    <g>
      <path class="cls-3" d="M232.15,410.46c-.42-.11-.84-.23-1.26-.33,0-.26.01-.51.02-.76.04-1.23,1.31.16,1.31.16,0,0-.03.36-.07.93Z"/>
      <path class="cls-5" d="M494.43,479.78c.18,3.06-7.3,14.6-7.3,14.6h0s-2.99-2.97-2.99-2.97c0,0-.26.7-1.03,2.37-.11.23-.22.48-.35.74-1.17,2.46-3.22,6.56-6.68,12.85-6.55,11.88-21.22,19.94-24.94,21.01-2.69.77-6.99-1.32-6.99-1.32,0,0-3.6-2.45-3.49-3.35.09-.7.29-1.13.38-1.29.35.18.77.37,1.28.62,6.54,3.15,27.13-16.66,31.18-25.08,0,0,12.23-20.29,13.08-26.38,2.63,1.78,7.85,8.21,7.85,8.21Z"/>
      <path class="cls-3" d="M398.12,323.8c-.74,1.23-1,13.41-1.1,14.22s7.87,3.09,9.79,2.74c.63-.12.69-1.74.44-3.91l-9.13-13.05ZM421.7,466.18c-1.48-7.94-4.6-20.86-8.27-33.91,0,0,.12-.09-.02-.06-.45-1.6-.91-3.21-1.38-4.81-1.16-4-2.37-7.95-3.58-11.71-2.29-7.14-4.43-14.74-6.57-22.08-.77-2.65-1.54-5.27-2.32-7.82-1.5-4.92-3.03-9.59-4.64-13.78-2.55-6.61-5.29-12.21-7.34-16.92-.73-1.67-1.37-3.23-1.89-4.68-.49-1.38-.98-2.93-1.49-4.63-1.42-4.81-2.86-10.73-4.14-16.77.17.14,2.79,2.43,5.37,2.75s5.45-10.74,5.59-11.9-3.42-2.78-4.06-2.86-6.07,5.72-7.72,8.09c-.14-.71-.28-1.42-.42-2.13-.19-.96-.37-1.92-.54-2.87.03.03.21.19,1.16,1.05,1.17,1.05,7.77-5.74,6.22-6-1.56-.25-3.81-4.89-4.42-5.66-.6-.78-2.98.6-4.45,1.75-.12-.83-.24-1.63-.34-2.4l4.18-1.08s-2.16-5.33-1.89-7.54c.07-.55,0-.88-.16-1.06l.41-.38c.25.27.52.55.79.84.04,4.72,3.07,12.65,7.43,15.78,2.37,1.71,7.2,4.4,11.51,6.15,12.74,15.86,27.92,36.97,40.15,59.88,23.48,43.99,47.13,54.19,52.67,73.03,1.36,4.63-13.44,9.63-13.53,9.67-.19.08-.39.16-.61.23-5.17,1.76-19.2,1.89-30.67,2.34-7.98.32-14.72.8-16.39,2.1-4.17,3.25-7.73,4.24-7.73,4.24,0-.16,0-.35-.02-.55-.01-.25-.04-.54-.07-.84-.13-1.34-.42-3.19-.84-5.44ZM394.52,337.35c1.43-3,1.67-14.39.96-15.3-.72-.91-2.32-1.34-2.32-1.34l-5.81,13.64s5.74,6,7.16,3Z"/>
      <path class="cls-9" d="M448.73,468.37c-.6-.51-1.27-1.07-1.99-1.64v-.04c11.47-.46,25.5-.58,30.67-2.34,4.56,2.09,7.32,3.97,8.96,5.71.25.27.31.79.21,1.51-.85,6.09-13.08,26.38-13.08,26.38-4.05,8.42-24.64,28.23-31.18,25.08-.51-.25-.93-.43-1.28-.62-1.24-.64-1.6-1.15-1.88-3.41-.89-7.15,10.75-12.6,12.98-19.53l.54-2.85c.42-9.64-1.77-25-3.94-28.25Z"/>
      <path class="cls-5" d="M422.63,473.02c0,4.02-11.51,9.99-22.45,13.68-4.94,1.67-9.76,2.83-13.41,3.59h0s7.73-5.63,15.25-7.45c7.52-1.81,10.02-3.62,13.46-5.12.27-.12.53-.24.78-.37,2.86-1.46,4.03-3.38,5.96-4.87l.4-.02c.01.2.02.39.02.55Z"/>
      <path class="cls-5" d="M363.92,482.46c.01-.38.41-2.04,5.84-4.25,6.2-2.53,7.27-5.46,11.15-10.27,3.9-4.81-1.53-14.19-1.35-15.58s4.12-1.96,4.26-3.12-3.49,1.68-4.55,1.55-1.52-1.95-2.23-2.86,4.36-3.4,3.7-4.25-2.6,2.02-4.81,1.75-5.68-5.41-5.68-5.41c0,0,3.31-3.94,2.93-4.43-.38-.49-4.58,3.58-4.58,3.58,0,0-3.66-.45-5.33-2.6-.5-.65-.74-2.02-.83-3.61-.18-3.68.45-8.55.45-8.55,0,0,3.13.39,3.26-.66s-3.71-2.34-3.71-2.34l-.29-7.21s3.77-.95,3.86-1.64-2.23-.98-3.51-1.14-1.88-22.3-1.88-22.3c0,0-.86-1.11-1.51-.6s.79,18.35.79,18.35c0,0-5.45,3.8-6.06,3.95-.6.16-6.25-3.76-6.33-3.06s6.36,2.83,5.15,4.13c-1.22,1.29-2.5,6.82-3.44,7.13-.94.32-3.11-.81-3.24.23s2.9,1.3,2.9,1.3c0,0,.42,4.97-.17,5.43s-5.52-.69-6.76-.84h-.17c.58-6.53,1.31-14.38,2.43-23.64.2-.16,4.07-3.22,8.27-8.12,4.32-5.04,3.32-12.14,3.77-12.09s1.6,5.1,2.52,4.39c.91-.71-1.53-6.07-1.53-6.07l1.39-1.08s1.24,2.97,2.9,6.96c3.13,7.49,7.79,18.57,8.69,20.37,1.39,2.76.44,8.45,1.05,12.44.61,4,3.39,11.18,4.55,12.65,1.15,1.48,4.82,7.27,7.44,8.3,2.62,1.03,9.42-3.86,10.43-3.73s8.14,3.28,8.14,3.28c0,0-.47,3.79-.36,6.71.11,2.92,1.6,9.22,1.55,9.61s-6.45.14-6.53.76,7.96.99,7.96.99c0,0,.86.66.73,1.75s-3.54.02-3.27,1.08c.25,1.05,5.34.64,5.53.92,3.25,4.67,12.08,10.64,15.1,11.02.03.31.05.59.07.84l-.4.02c-1.92,1.49-3.1,3.41-5.96,4.87l-.08-.17c-5.21-.65-19.45.22-27.63,1.08-8.19.87-20.8,6.79-22.58,9.3h0c-2.5-.02-4.93-.03-6.79-.01,0,0-9.85-3.63-10.4-4.33s3.76-3.77,5.23-4.92c1.48-1.15,7.53,2.58,7.66,1.5s-7.4-3.59-7.4-3.59c0,0,.86-2.48,1.33-6.27s-1.42-7.55-1.24-9.02,6.71-4.54,6.14-5.27-5.21,2.81-6.29,2.67-3.24-5.23-3.24-5.23c0,0,3.35-2.6,3.04-2.99-.3-.39-2.21,1.73-3.6,1.55s-7.63-6.2-10.44-8.82l.36-2.94c.42-3.4.79-7.69,1.26-12.91,1.17-.92,7.52.3,7.52.3,0,0,.24.31.66,4.2.52,4.96,7.34,13.85,8.96,14.06s3.78,3.65,3.78,3.65c.08,1.89.94,23.77.94,23.77l.46,9.5Z"/>
      <path class="cls-9" d="M421.7,466.18c.42,2.25.71,4.1.84,5.44-3.02-.38-11.85-6.35-15.1-11.02-.19-.27-5.28.13-5.53-.92-.27-1.06,3.13,0,3.27-1.08s-.73-1.75-.73-1.75c0,0-8.03-.36-7.96-.99s6.48-.37,6.53-.76-1.44-6.69-1.55-9.61c-.11-2.92.36-6.71.36-6.71,0,0-7.14-3.16-8.14-3.28s-7.81,4.76-10.43,3.73c-2.62-1.03-6.29-6.82-7.44-8.3-1.16-1.47-3.94-8.65-4.55-12.65-.61-3.99.34-9.68-1.05-12.44-.9-1.8-5.55-12.88-8.69-20.37,1.13-1.57,3.03-6.7,1.91-14.14-1.11-7.43-8.12-10.77-9.1-12.02-.98-1.26-1.21-3.53-2.38-6.18-1.25-4.61-2.23-9.14-3.03-13.43.93.16,3.35,11.59,4.09,12.54.74.95,3.2,1.41,5.95,3.33,2.74,1.9,3.95,4.81,5.33,4.98s4.1-5.78,5.25-5.63-3.89,7.65-3.89,7.65c0,0,1.83,2.34,2.27,2.9.44.57,4.6-2.6,4.97-2.13.37.48-4.6,3.59-4.6,3.59,0,0,1.79,6.42,1.44,9.2s-1.19,7.07-1.37,8.54,4.65,4.27,3.26,4.65c-1.38.37-2.94-2.18-4.36-2.81-1.41-.65-2.61,2.1-1.94,2.97.68.87,3.91,11.19,5.17,10.21,3.09-2.4,8.34-2.03,9.34-1.9s1.93-6.67,2.89-6.16c.96.52-1.18,6.65-.6,7.38.57.74,5.05,2.9,8.75,6.65,3.7,3.76,5.78,12.25,5.78,12.25,0,0,6.94-2.19,6.82-1.27s-6.78,2.77-6.78,2.77c0,0,.06,3.31.46,7.04.4,3.74-2.47,7.3-1.39,7.44s5.94,3.33,5.94,3.33c0,0,1.44-2.72,3.15-4.82,1.71-2.11,5.26-4.1,7.17-4.99h0c.47,1.6.93,3.21,1.38,4.81-.14.03-.52.16-1.51.62-3.45,1.6-7.49,10.45-2.85,19.18,4.65,8.73,9.81,13.93,11.59,14.15.61.08.92.07,1.06.02ZM389.72,425.77c.28-2.24.28-11.1-4.08-15.88-4.34-4.78-12.04-7.43-13.41-4.49-1.36,2.95,4.28,17.4,5.72,20.32,1.44,2.93,4.27,7.28,4.27,7.28,3.56-2.77,7.21-4.99,7.49-7.23Z"/>
      <path class="cls-10" d="M421.7,466.18c-.15.05-.45.06-1.06-.02-1.78-.22-6.94-5.41-11.59-14.15-4.64-8.73-.6-17.58,2.85-19.18.99-.46,1.37-.6,1.51-.62,0,.02.01.04.02.06,3.67,13.05,6.79,25.97,8.27,33.91Z"/>
      <path class="cls-9" d="M416.17,477.19l.08.17c-.25.13-.51.25-.78.37-3.44,1.49-5.94,3.31-13.46,5.12-7.52,1.82-15.25,7.44-15.25,7.44h0c-3.88.82-6.45,1.16-6.45,1.16l-3.29-2.3c1.06-.23,2.56-.64,1.64-1.01-.87-.35-7-.51-12.71-.57h0c1.77-2.51,14.39-8.43,22.58-9.3,8.19-.86,22.42-1.73,27.63-1.08Z"/>
      <path class="cls-5" d="M412.04,427.4h0c-1.92.9-5.46,2.88-7.17,4.99-1.71,2.1-3.15,4.82-3.15,4.82,0,0-4.87-3.19-5.94-3.33s1.79-3.7,1.39-7.44c-.4-3.73-.46-7.04-.46-7.04,0,0,6.66-1.84,6.78-2.77s-6.82,1.27-6.82,1.27c0,0-2.08-8.5-5.78-12.25-3.69-3.75-8.17-5.91-8.75-6.65-.57-.74,1.56-6.87.6-7.38-.96-.51-1.88,6.28-2.89,6.16s-6.25-.5-9.34,1.9c-1.26.98-4.49-9.34-5.17-10.21-.67-.87.53-3.62,1.94-2.97,1.41.64,2.98,3.19,4.36,2.81,1.39-.38-3.45-3.18-3.26-4.65s1.02-5.75,1.37-8.54-1.44-9.2-1.44-9.2c0,0,4.98-3.11,4.6-3.59-.37-.47-4.54,2.7-4.97,2.13-.44-.56-2.27-2.9-2.27-2.9,0,0,5.05-7.5,3.89-7.65s-3.86,5.81-5.25,5.63-2.59-3.08-5.33-4.98c-2.75-1.91-5.2-2.38-5.95-3.33-.74-.96-3.16-12.38-4.09-12.54-1.79-9.62-2.62-18.03-3.41-23.37,0,0,3.3.79,4.54.95s.18,5.52,1.33,12.01c1.16,6.5,6.9,12.07,11.85,13.24,4.95,1.17,9.69-7.55,10.34-8.06.65-.5,4.16,5.34,4.9,4.77.75-.58-2.97-3.82-3.34-6.61-.35-2.79,2.95-7.33,3.71-9.69h0c.14.71.28,1.42.42,2.13.26,1.3.53,2.61.81,3.92h0c1.28,6.04,2.72,11.97,4.14,16.77.6,2.1.01,5.25-1.08,8.4-1.11,3.16-2.57,8.71-2.59,12.07-.03,3.37,3.23,11.31,3.12,12.17s-5.78,2.69-5.21,3.43,5.56-1.82,6.25-1.74,2.13,5.05,5.76,8.02c3.63,2.96,8.31,5.1,11.42,5.48,2.14,7.34,4.28,14.94,6.57,22.08,1.21,3.77,2.42,7.71,3.58,11.71Z"/>
      <path class="cls-9" d="M399.57,385.79c.77,2.55,1.55,5.17,2.32,7.82-3.12-.39-7.8-2.52-11.42-5.48-3.63-2.97-5.06-7.93-5.76-8.02s-5.68,2.47-6.25,1.74,5.11-2.58,5.21-3.43-3.15-8.79-3.12-12.17c.02-3.36,1.49-8.91,2.59-12.07,1.09-3.16,1.68-6.3,1.08-8.4.5,1.7,1,3.25,1.49,4.63.51,1.45,1.16,3.01,1.89,4.68h0c-1.66,2.59-3.66,9.79-2.31,14.11,1.34,4.32,4.89,12.45,7.79,14.38,2.89,1.93,6.59,4.95,6.5,2.21h0Z"/>
      <path class="cls-1" d="M407.25,336.85c.25,2.18.19,3.8-.44,3.91-1.92.35-9.89-1.93-9.79-2.74s.36-12.99,1.1-14.22l9.13,13.05Z"/>
      <path class="cls-10" d="M399.57,385.79c.09,2.74-3.6-.28-6.5-2.21-2.9-1.93-6.45-10.05-7.79-14.38-1.35-4.33.65-11.53,2.31-14.11h0c2.05,4.71,4.79,10.3,7.34,16.92,1.61,4.19,3.14,8.86,4.64,13.78h0Z"/>
      <path class="cls-10" d="M385.64,409.89c4.36,4.78,4.36,13.64,4.08,15.88s-3.92,4.46-7.49,7.23c0,0-2.83-4.35-4.27-7.28-1.44-2.92-7.08-17.38-5.72-20.32,1.36-2.94,9.07-.29,13.41,4.49Z"/>
      <path class="cls-9" d="M379.27,450.79c1.05.13,4.69-2.72,4.55-1.55s-4.09,1.73-4.26,3.12,5.25,10.77,1.35,15.58c-3.88,4.82-4.95,7.74-11.15,10.27-5.43,2.2-5.83,3.87-5.84,4.25l-.46-9.5s2.41.95,5.48-1.44c3.05-2.39,8.14-8.29,6.85-15.39-1.3-7.1-4.27-10.92-6.15-13.33s-4.72-3.44-6.11-3.61c-.46-.06-.73,1.03-.88,2.51l-.48-.05c.15-1.22.06-4.6-.14-8.67l.42-.02c.08,1.6.32,2.97.83,3.61,1.67,2.15,5.33,2.6,5.33,2.6,0,0,4.2-4.06,4.58-3.58.38.49-2.93,4.43-2.93,4.43,0,0,3.48,5.14,5.68,5.41s4.15-2.6,4.81-1.75-4.41,3.34-3.7,4.25,1.19,2.73,2.23,2.86Z"/>
      <path class="cls-5" d="M378.67,488.14c.92.37-.58.78-1.64,1.01l-.25-.18s-18.34.54-24.14,2.97c-4.34,1.81-8.03,1.24-9.61.84l.08-.34c-.84-1.08,9.29-4.77,14.63-4.87.43,0,.91,0,1.44-.02,1.86-.01,4.29-.01,6.79.02,5.71.06,11.84.22,12.71.57Z"/>
      <path class="cls-1" d="M395.48,322.05c.71.91.47,12.29-.96,15.3-1.43,3-7.16-3-7.16-3l5.81-13.64s1.59.43,2.32,1.34Z"/>
      <path class="cls-10" d="M375.79,456.13c1.3,7.11-3.8,13-6.85,15.39-3.06,2.38-5.48,1.44-5.48,1.44,0,0-.85-21.87-.94-23.77,0,0-.18-4.53.12-7.49.15-1.48.42-2.57.88-2.51,1.39.17,4.23,1.2,6.11,3.61s4.84,6.23,6.15,13.33Z"/>
      <path class="cls-1" d="M391.04,319.86c-.14,1.16-2.93,12.23-5.59,11.9s-5.21-2.6-5.37-2.75h0c-.28-1.31-.55-2.62-.81-3.92,1.65-2.36,7.08-8.16,7.72-8.09s4.2,1.7,4.06,2.86Z"/>
      <path class="cls-5" d="M398.74,321.53c-4.3-1.75-9.13-4.44-11.51-6.15-4.36-3.13-7.39-11.06-7.43-15.78,4.71,4.98,11.39,12.53,18.94,21.93Z"/>
      <path class="cls-1" d="M385.69,315.13c1.55.25-5.04,7.05-6.22,6-.94-.85-1.12-1.02-1.16-1.05h0c-.57-3.11-1.08-6.12-1.49-8.86,1.48-1.15,3.85-2.53,4.45-1.75.61.78,2.86,5.41,4.42,5.66Z"/>
      <path class="cls-9" d="M361.67,479.8c-.13,1.07-6.18-2.66-7.66-1.5-1.47,1.15-5.77,4.23-5.23,4.92s10.4,4.33,10.4,4.33c-.53,0-1.01,0-1.44.02-5.34.09-15.47,3.79-14.63,4.87l-.08.34c-.53-.13-.82-.25-.82-.25,0,0-2.96,3.55-5.87,1.78-2.92-1.77,3.41-8.55,3.74-11.18s-.7-6.14-5.83-14.96c-.49-.86,2.34,2.05,2.34,2.05,0,0,3.34,8.45,5.5,9.35s4.26-2.06,6.72-11.79c2.46-9.74-8.19-16.59-8.19-16.59,0,0-.47.37-2,2.54l.6-4.86.75-6.03c2.81,2.62,9.05,8.65,10.44,8.82s3.3-1.94,3.6-1.55c.31.39-3.04,2.99-3.04,2.99,0,0,2.16,5.1,3.24,5.23s5.72-3.41,6.29-2.67-5.96,3.81-6.14,5.27,1.7,5.24,1.24,9.02-1.33,6.27-1.33,6.27c0,0,7.54,2.5,7.4,3.59Z"/>
      <path class="cls-9" d="M375.14,332.64c.37,2.79,4.09,6.03,3.34,6.61-.74.57-4.24-5.27-4.9-4.77-.65.51-5.39,9.23-10.34,8.06-4.95-1.16-10.69-6.73-11.85-13.24-1.16-6.5-.09-11.86-1.33-12.01s-4.54-.95-4.54-.95c-.1-.69-.2-1.32-.3-1.9h0c1.19.59,4.72,1.82,5.16,1.48.43-.34.75-2.89.75-2.89,0,0-4.96-.97-6.48-1.16-.18-.63-.37-1.08-.59-1.36-.31-.41-.28-1.61-.01-3.37.87,3.48.48,3.43,2.49,3.68s4.31.06,4.31.06c0,0,2.21-3.88,4.26-7.08,2.04-3.2,4.46-3.14,4.65-4.68s-1.51-5.8-.95-6.23c.56-.44,2.05,5.58,4.28,5.39s6.11.41,7.36,2.02,3.02,5.39,4.33,5.55c1.2.15,1.17-.74,1.16-.89.14.88.26,1.78.38,2.71.05.38.1.77.16,1.17.1.77.22,1.57.34,2.4.42,2.75.92,5.75,1.49,8.86h0c.17.95.35,1.92.54,2.88h0c-.76,2.36-4.06,6.89-3.71,9.68ZM372.91,324.04c1.66-5.21,1.76-11.35-1.51-15.56-3.29-4.21-6.03-4.6-8.46-3.4-2.56,1.26-8.6,5.45-7.46,15.87,1.14,10.42,3.6,11.43,6.46,11.78s9.3-3.47,10.97-8.68Z"/>
      <path class="cls-1" d="M380.66,307.75l-4.18,1.08c-.06-.4-.11-.79-.16-1.17-.12-.93-.25-1.83-.38-2.71,0-.02,0-.02,0-.02-.32-2.07-.66-3.98-.99-5.66l.66-.03c1.22.15,2.54-.61,3.02-.08.16.18.22.5.16,1.06-.27,2.2,1.89,7.54,1.89,7.54Z"/>
      <path class="cls-9" d="M362.65,441.7c-.3,2.96-.12,7.49-.12,7.49,0,0-2.16-3.45-3.78-3.65s-8.44-9.09-8.96-14.06c-.43-3.89-.66-4.2-.66-4.2,0,0-6.34-1.22-7.52-.3.05-.61.11-1.22.16-1.86h.17c1.24.17,6.17,1.31,6.76.85s.17-5.43.17-5.43c0,0-3.03-.26-2.9-1.3s2.3.08,3.24-.23c.94-.31,2.22-5.85,3.44-7.13,1.22-1.3-5.23-3.44-5.15-4.13s5.73,3.22,6.33,3.06c.61-.16,6.06-3.95,6.06-3.95,0,0-1.44-17.84-.79-18.35s1.51.6,1.51.6c0,0,.61,22.14,1.88,22.3s3.6.45,3.51,1.14-3.86,1.64-3.86,1.64l.29,7.21s3.84,1.3,3.71,2.34-3.26.66-3.26.66c0,0-.64,4.88-.45,8.55l-.42.02c-.4-7.76-1.21-18.01-1.58-20.45,0,0-.82-.07-4.23,4.65-3.41,4.71-2.74,8.98-1.25,13.53,1.32,4.02,6.76,14.5,7.2,10.94l.48.05Z"/>
      <path class="cls-10" d="M362.17,441.65c-.44,3.56-5.89-6.92-7.2-10.94-1.48-4.55-2.16-8.82,1.25-13.53,3.41-4.72,4.23-4.65,4.23-4.65.37,2.44,1.18,12.69,1.58,20.45.2,4.07.3,7.44.14,8.67Z"/>
      <path class="cls-3" d="M379.02,298.77l-.41.38c-.48-.53-1.8.23-3.02.08l-.66.03c-.49-2.47-.93-4.45-1.18-5.69,1.05.9,2.86,2.67,5.27,5.2Z"/>
      <path class="cls-5" d="M375.93,304.95c.01.15.04,1.04-1.16.89-1.31-.16-3.08-3.95-4.33-5.55s-5.13-2.21-7.36-2.02-3.72-5.83-4.28-5.39c-.56.44,1.14,4.69.95,6.23s-2.61,1.48-4.65,4.68c-2.05,3.2-4.26,7.08-4.26,7.08,0,0-2.3.18-4.31-.06s-1.62-.2-2.49-3.68c.19-1.31.5-2.93.87-4.77,0,0,4.88-3.93,6.79-5.97,1.9-2.04,3.94-6.21,4.6-6.72s5.89,2.81,6.46,2.37-5.1-2.87-6.35-4.48.67-10.78.02-11.61c-.63-.83,6.87-1.58,7.05-3.05s-7.67,1.09-7.67,1.09c0,0-.72-2.09-2.75-4.69s-4.6-5.91-5.38-6.91c-.51-.65.19-2.73.95-4.04.4-.68.82-1.15,1.1-1.11.54.07-.57,4.56.74,4.72s5.89,1.2,5.89,1.2c0,0-.42-10.01-3.51-12.9h0c2.56-3.93,5.36-8.18,7.93-12.14,1.48-1.15,2.23-1.72,2.96-2.3s7.39.7,11.55-3.72c4.15-4.43,6.23-9.19,6.78-9.12l1.85.23c-1.5,6.18-3.14,11.48-4.68,16.15h-.01c-2.58,1.38-8.83,4.92-9.01,6.39s-6.2-3.12-6.36-1.81,5.56,2.57,5.44,3.58-1.71,6.77-2.38,5.9c-.68-.86-6.03-3.25-6.14-2.41s6.08,2.88,5.98,3.73-.59,8.28-.02,9.02c.57.74-4.48.07-4.61,1.07s2.77.42,5.43,1.14c2.66.72,5.83,4.18,6.58,7.02.75,2.84,2.68,5.1,2.68,5.1-.69,3.93-1.79,8.72-3.29,14.06-.03.13.05.63.22,1.45.25,1.24.7,3.21,1.18,5.69.33,1.67.68,3.59.99,5.66,0,0,0,0,0,.02Z"/>
      <path class="cls-10" d="M371.4,308.48c3.28,4.21,3.18,10.36,1.51,15.56-1.66,5.21-8.1,9.04-10.97,8.68s-5.32-1.36-6.46-11.78c-1.14-10.42,4.89-14.61,7.46-15.87,2.42-1.19,5.17-.81,8.46,3.4Z"/>
      <path class="cls-5" d="M388.47,196.43c-.15,1.49-.33,3.04-.53,4.65-.57,4.59-1.25,8.84-2,12.78-1.47-.18-3.07.72-3.68-.06-.61-.78-4.17-5.34-4.64-5.95-.14-.18.15-1.35.63-2.93,1.11-3.67,3.24-9.56,3.35-10.43.15-1.24,4.71,1.84,5.95,1.99.6.07.84.02.93-.05Z"/>
      <path class="cls-9" d="M388.5,196.26l-.02.17c-.09.07-.33.12-.93.05-1.24-.15-5.79-3.23-5.95-1.99-.11.86-2.23,6.75-3.35,10.43l-.6-.18c1.8-5.73,3.21-11.53,4.37-17.17h0c.9-.69,2.33-.46,3.08-1.03.74-.57,4.15-.65,4.15-.65h.01c-.13,3.17-.38,6.61-.77,10.39Z"/>
      <path class="cls-9" d="M385.95,213.86c-.09.52-.19,1.03-.3,1.54-.65-.08-3.52-.44-2.78.51.75.96,0,5.01-.04,5.4s.38.05,1.51.19c-.13.58-.27,1.14-.41,1.69l-1.85-.23c-.55-.07-2.62,4.69-6.78,9.12-4.16,4.42-10.82,3.14-11.55,3.72s-1.48,1.15-2.96,2.3c.43-.67.85-1.31,1.26-1.96h0c.91-1.42,1.77-2.78,2.57-4.06.7-.97,1.37-1.95,2.01-2.96h0s5.69-2.83,7.85-4.52c2.17-1.69,2.37-8.41,2.44-8.96s-2.15.29-3.62.85h0c.87-2,1.68-4.04,2.42-6.09.53-1.45,1.04-2.92,1.51-4.39.14-.43.27-.86.41-1.28l.6.18c-.48,1.58-.77,2.75-.63,2.93.47.61,4.03,5.17,4.64,5.95.61.78,2.22-.12,3.68.06Z"/>
      <path class="cls-10" d="M389.27,185.88h-.01s-3.41.08-4.15.65c-.75.57-2.18.34-3.08,1.03h0c.35-1.68.68-3.34.98-4.98l.37-3.01c.03.09.32.89,1.1-.65.83-1.63,2.54-13.57,2.99-17.21,1.44,7.62,2.17,14.79,1.8,24.17Z"/>
      <path class="cls-5" d="M385.65,215.39c-.42,2.13-.86,4.15-1.32,6.1-1.12-.14-1.56.2-1.51-.19s.79-4.44.04-5.4c-.74-.95,2.13-.59,2.78-.51Z"/>
      <path class="cls-9" d="M377.37,274.5c-.13,1.09-.31,2.28-.54,3.57,0,0-1.93-2.26-2.68-5.1-.75-2.84-3.92-6.3-6.58-7.02-2.66-.73-5.55-.15-5.43-1.14s5.18-.34,4.61-1.07c-.57-.74-.08-8.17.02-9.02s-6.08-2.87-5.98-3.73,5.46,1.55,6.14,2.41c.67.87,2.25-4.9,2.38-5.9s-5.6-2.26-5.44-3.58,6.18,3.28,6.36,1.81,6.43-5.01,9.01-6.39h.01c-1.19,3.61-2.33,6.84-3.32,9.8-.05.41-.09.81-.12,1.2h0c-1.87,2.21-4.47,6.12-4.16,8.04.32,1.92,2.15,4.82,1.99,6.12s-.29,3.65,1.17,3.83,2.97,1.25,2.97,1.25c-.05,1.45-.17,3.08-.4,4.92Z"/>
      <path class="cls-10" d="M377.77,269.58s-1.5-1.06-2.97-1.25-1.33-2.51-1.17-3.83-1.67-4.2-1.99-6.12c-.3-1.92,2.3-5.84,4.16-8.04h0c-.64,7.63,2.26,9.95,1.97,19.25Z"/>
      <path class="cls-10" d="M354.64,366.97v-.02c-.26-.48.03-5.87.03-5.87l-2.44-3.12-1.35,4.19-.64-.12c.27-1.45.55-2.93.84-4.43.29-1.46.57-2.95.88-4.46,1.16,2.66,1.4,4.92,2.38,6.18.98,1.26,7.98,4.59,9.1,12.02,1.12,7.44-.78,12.57-1.91,14.14-1.67-3.99-2.9-6.96-2.9-6.96-.57-1.38-3.32-9.59-3.99-11.55Z"/>
      <path class="cls-9" d="M360.88,97.74c3.59-7.16,7.09-12.24,9.73-15.55,2.77-3.47,4.6-5.01,4.6-5.01,1.83,2.34,1.48,6.38,6.15,12.37s14.44,22.82,12.94,34.88-4.34,21.45-8,24.98c-.68.18-1.68.46-2.88.81h0c-2.72.8-6.46,1.97-9.76,3.24-3.03,1.17-5.69,2.43-6.85,3.59-7.72.08-16.58,2.64-26.34.9-1.08-.19-2.17-.44-3.27-.75-1.61-.46-3.49-1.13-5.49-2-2.46-1.06-5.12-2.41-7.74-3.96-1.12-.66-2.25-1.36-3.34-2.1-1.25-1.23-2.6-2.41-3.04-2.26-.03,0-.05.02-.07.05-.7-.54-1.37-1.08-2.03-1.64-5.99-5.08-9.96-11.02-7.73-16.45,4.09-9.97,10.35-11.48,10.73-15.25.06-.58-.02-1.2-.27-1.92h0c.22-.27.43-.5.65-.66.72,1.37.56.27.94,2.58l-1,2.81c-1.73,4.07-2.37,4.85-1.25,5.34,1.86.83,3.57.61,3.57.61.27.74.3,1.81.4,2.84-2.3,1-4.18,1.69-4.22,1.96-.06.51,3.46,1.34,3.24,1.61-.78,1-2.49.7-4.77.42l-1.72-.21s3.93,3.64,6.36,3c2.43-.64,2.07.74,2,1.32-.4,3.25-2.79,7.21.81,7.65s11.14-1.36,12.52-1.19,2.45,1.12,2.45,1.12c1.97.66.08-.68,1.45-1,1.36-.33.49.55,3.25,1.53,2.76.97,3.01.37,5.22.65.22.03.43.04.63.04,1.77,0,2.64-1.07,3.45-1.63.9-.63.29-2.32-.29-2.4-.18-.02-.31-.04-.39-.03l.02-.61c.36.01.75-.03.79-.36.06-.47.96-.25,1.79-.14s2.06-1.01,2.06-1.01l.1-.77c.1-.77.8-1.22.8-1.22l-.93-.12-.91.73-.04.36c-.04.36-1.66.53-2.31.99-.66.45-.22-.25-.13-1s2.61-1.81,4.57-1.98c1.97-.18,4.79-4.93,4.9-5.75s1.25-.11,2.5-.27c1.26-.16,1.41-.98.95-1.04s.12-.98-.86-1.1-1.75.31-2.05-.62c-.29-.94-1.08-2.13-1.78-2.22-.1-.01-.17,0-.23.05l-1.52-.27c.43-.54.67-1.02.67-1.02,0,0,.69-.48,1.51-2.06.12-.22.24-.47.36-.75.98-2.19-2.32-2.65-2.82-2.3-.52.36,1.28,1.48,1.15,2.51-.02.13-.05.24-.09.34-.31.66-1.2.55-1.2.55,0,0,.09-.73-.72-.83s.72.83-.44,1.63c-1.15.8-3.33-2.51-3.33-2.51l.66-5.28c0-.08,0-.16-.02-.26.46-1.27.93-2.5,1.39-3.69.03-.06.05-.13.07-.19,1.47-3.74,2.98-7.08,4.47-10.07Z"/>
      <path class="cls-4" d="M387.46,161.71c-.45,3.63-2.16,15.58-2.99,17.21-.79,1.54-1.07.74-1.1.65h0c.08-.63.15-1.25.24-1.86.26-2.13.52-4.16.76-6.1.92-7.29,1.69-13.21,2.2-17.13-.05,1.38.03,2.89.32,4.34.2.98.39,1.94.57,2.89Z"/>
      <path class="cls-10" d="M340.63,451.18s10.65,6.86,8.19,16.59c-2.46,9.73-4.56,12.69-6.72,11.79s-5.5-9.35-5.5-9.35c1.1-8.85,1.56-12.59,2.05-16.5,1.52-2.16,2-2.54,2-2.54Z"/>
      <path class="cls-9" d="M357.23,379.61s2.44,5.36,1.53,6.07c-.92.71-2.06-4.33-2.52-4.39s.55,7.05-3.77,12.09c-4.2,4.9-8.07,7.96-8.27,8.12.4-3.41.87-7.01,1.4-10.81.08.05.53.33,1.3.43.85.11,2.62-2.81,5.63-10.25,3-7.42-.74-12.32-3.03-14.73.04-.23.08-.46.12-.69.09-.51.19-1.03.28-1.56.05.01.11.03.17.04.86.22,1.68-.46,1.77-.54,0,0,0,0,0,0l2.78,3.56v.02c.67,1.97,3.42,10.17,4,11.55l-1.39,1.08Z"/>
      <path class="cls-5" d="M386.29,149.42c.62-.17.97-.26.97-.26,0,0-.61,2.38-.7,5.32-.51,3.92-1.28,9.84-2.2,17.13-4.56-.57-7-1.26-10.63,1.58-3.66,2.84-4.49,7.05-5.81,6.89s-5.13-1.58-5.25-.65,4.08,1.21,3.88,2.84.49,6.18-1.13,5.98-4.68.44-4.77,1.13,4.85-.5,4.66,1.05-.15,6.25,1.2,8c1.35,1.74,3.52,4.59,3.36,5.83s-3.15,2.59-2.68,3.2c.48.61,3-2.68,3.65-1.86.63.83,4.29,4.74,4.88,4.81-.74,2.05-1.55,4.09-2.42,6.09-1.9,4.41-4.1,8.66-6.68,12.63-.64,1.01-1.31,1.99-2.01,2.96-.8,1.28-1.66,2.64-2.57,4.06h0c-1.25.2-6.04,7.27-7.91,7.82-1.87.55-2.82-1.92-2.59-3.78s-.08-3.69-.7-3.77-.02,4.55-.87,4.45-3.52,1.12-4.48,1.88c-.95.74-2.15,3.62-3.6,4.14-1.15.41-4.88-2.76-4.96-2.07s4.44,2.75,3.83,3.85c-.61,1.11-2,4.77-2,4.77,0,0-6.75-1.93-6.88-.85s6.56.9,6.44,1.9-1.1,5.04-1.8,5.58-5.33-.66-5.41-.04,4.84.84,4.76,1.46-2.34,10.14-.5,12.5c-2.18,1.94-4.21,3.22-5.49,2.84-3.14-.91-2.22-31.27-1.89-33.9s1.63,4.04,8.05-7.09c2.97,1.06,8.43-.04,11.05-.96,2.63-.93,8.29-4.23,11.37-9.42,3.08-5.19.39-14.27-.18-15.01s4.98-2.13,4.72-3.26c-.25-1.13-5.87,2.48-5.76,1.55s-4.86-5.43-5.64-6.42,3.09-11.08,2.34-11.18c.29-.8.58-1.59.87-2.38,1.64-4.5,3.23-8.86,4.67-12.81.56.72,1.78.96,1.86.27s1.43-7.67,2.78-7.89c1.36-.23,5.64.07,7.81-1.62,2.17-1.69,4.77-4.27,5.77-4.15s3.43,4.93,4.26,4.3c.82-.65-3.43-4.94-2.48-5.69.95-.74,2.77-3.69,2.94-5.08s-.07-5.52.97-5.84h0c1.2-.35,2.19-.63,2.88-.81Z"/>
      <path class="cls-9" d="M384.37,171.61c-.25,1.94-.5,3.97-.76,6.1-4.05.44-10.89,2.42-12.35,10.32-1.45,7.9,1.03,12.16,5.98,17.98-.48,1.47-.98,2.94-1.51,4.39-.59-.07-4.24-3.98-4.88-4.81-.65-.82-3.17,2.47-3.65,1.86-.47-.61,2.53-1.96,2.68-3.2s-2.01-4.09-3.36-5.83c-1.36-1.74-1.4-6.45-1.2-8s-4.74-.35-4.66-1.05,3.14-1.34,4.77-1.13.93-4.35,1.13-5.98-3.99-1.91-3.88-2.84,3.94.49,5.25.65,2.15-4.05,5.81-6.89c3.64-2.85,6.07-2.15,10.63-1.58Z"/>
      <path class="cls-10" d="M383.61,177.71c-.08.61-.16,1.23-.24,1.85h0c-.12.99-.25,1.99-.37,3.01-.3,1.64-.63,3.31-.98,4.98-1.16,5.64-2.57,11.44-4.37,17.17-.14.42-.27.85-.41,1.28-4.96-5.82-7.43-10.08-5.98-17.98,1.46-7.9,8.29-9.88,12.35-10.32Z"/>
      <path class="cls-10" d="M376.93,215.64c-.07.55-.27,7.27-2.44,8.96-2.17,1.69-7.85,4.53-7.85,4.53h0c2.57-3.97,4.78-8.22,6.68-12.64h0c1.47-.56,3.68-1.38,3.62-.85Z"/>
      <path class="cls-9" d="M379.5,161.15c-.95.75,3.3,5.04,2.48,5.69-.83.63-3.25-4.17-4.26-4.3s-3.6,2.46-5.77,4.15c-2.17,1.69-6.45,1.39-7.81,1.62-1.36.22-2.7,7.2-2.78,7.89s-1.31.45-1.86-.27c1.38-3.8,2.63-7.24,3.68-10.09.02-.05.04-.1.06-.16.76-1.43,8.89-5.72,9.98-7.24,1.14-1.58,1.45-3.71.45-4.99,3.3-1.27,7.04-2.44,9.76-3.24-1.04.32-.8,4.45-.97,5.84s-1.99,4.34-2.94,5.08Z"/>
      <path class="cls-5" d="M351.85,363.39s0,0,0,0l-.96-1.24,1.35-4.19,2.44,3.12s-.29,5.39-.04,5.87l-2.78-3.56Z"/>
      <path class="cls-10" d="M349.5,366.13c2.29,2.41,6.03,7.31,3.03,14.73-3.01,7.43-4.78,10.35-5.63,10.25-.77-.1-1.22-.38-1.3-.43,1.02-7.43,2.29-15.6,3.9-24.55Z"/>
      <path class="cls-9" d="M356.41,287.55c1.25,1.61,6.91,4.04,6.35,4.48s-5.8-2.88-6.46-2.37-2.7,4.68-4.6,6.72c-1.91,2.04-6.79,5.97-6.79,5.97,2.29-11.49,6.84-31.53-1.08-37.66l-.11-.09c.83-1.1,1.44-1.99,1.73-2.49l1.74-2.96c.24-.4.5-.81.76-1.24l.67.41c-.77,1.31-1.46,3.39-.95,4.04.78,1,3.34,4.3,5.38,6.91s2.75,4.69,2.75,4.69c0,0,7.85-2.56,7.67-1.09s-7.69,2.22-7.05,3.05c.65.82-1.28,10-.02,11.61ZM352.92,280.85c1.5-7.58-3.08-14.28-5.26-12.58-.91.71,1.14,3.51,1.7,9.39.56,5.87-1.22,9.85-1.22,9.85,0,0,2.81,4.86,2.4,3.08-.41-1.77.9-2.16,2.38-9.74Z"/>
      <path class="cls-10" d="M350.88,362.15l.96,1.24c-.1.08-.92.75-1.77.54-.05-.01-.11-.03-.17-.04.11-.61.23-1.23.34-1.86l.64.12Z"/>
      <path class="cls-3" d="M348.93,339.71c.8,4.29,1.78,8.82,3.03,13.43-.3,1.51-.59,2.99-.88,4.46,0,0-1.72,1.34-3.34,1.14s-.86-2.99-1.97-2.13c-1.11.86,1.27,1.63-.36,2.9-1.62,1.27-5.33-.66-7.65-.95l.13-1.04c3.17.39,6.38.79,6.38.79,0,0-2.44-12.66-3.95-14.62-1.53-1.95-2.82-6.7-2.82-6.7,0,0-3.34-.47-6.43-.7l.05-.87c2.25.16,4.21.1,4.28-.46.11-.89-3.45-2.53-6.83-3.26l.2-.96c1.91.4,3.74.56,3.56-.52-.33-2.05-8.62-7.33-12.91-7.86l-.18.14c-.9-1.18-1.64-2.06-1.78-2.25,1.52.86,2.99,1.53,4.39,1.06,3.5-1.18,8.04-3.61,8.88-6.68.81-2.97-.52-6.61-.18-9.65.05-.47.2-.91.41-1.33,7.13,4.08,13.12,6.85,13.12,6.85.22.28.41.73.59,1.36.2.67.38,1.54.56,2.58.1.58.2,1.21.3,1.9.79,5.35,1.62,13.75,3.41,23.37Z"/>
      <path class="cls-4" d="M351.08,357.6c-.28,1.5-.56,2.97-.84,4.43-.11.63-.23,1.25-.34,1.86-1.81-.43-3.67-.68-5.32-.93-2.17-.34-3.98-.68-4.88-1.43-.11-.09-.2-.18-.28-.28-1.26-1.63-1.67-2.68-1.67-2.68,2.32.29,6.03,2.22,7.65.95,1.63-1.27-.75-2.04.36-2.9,1.11-.86.35,1.93,1.97,2.13s3.34-1.14,3.34-1.14Z"/>
      <path class="cls-6" d="M349.9,363.88c-.1.52-.19,1.04-.28,1.56h0c-1.74-.22-4.56.2-5.22-.65-.04-.05-.08-.08-.09-.08l.27-1.76c1.66.25,3.52.5,5.32.93Z"/>
      <path class="cls-4" d="M349.5,366.13c-1.6,8.95-2.87,17.12-3.9,24.55,0,0-.01,0-.01,0,0,0-.93-1.49-.41-5.66.31-2.52.61-7,.83-10.34.14-2.2.24-3.91.28-4.23.09-.76-2.21-5.76-1.98-5.73.01,0,.05.03.09.08.66.85,3.48.43,5.22.65h0c-.04.23-.08.46-.12.69Z"/>
      <path class="cls-5" d="M338.63,453.72c-.49,3.92-.95,7.65-2.05,16.5,0,0-2.83-2.91-2.34-2.05-7.5-2.83-109.26-21.29-111.94-13.62,2.61-7.89,5.52-17.86,7.41-27.16,1.28-6.3,1.06-12.42,1.18-17.25.42.11.84.22,1.26.33-.18,2.43-.59,8.82.09,9.17,1.66-.57,3.11-5.04,3.93-8.08,33.32,9.14,69.74,22.15,103.06,37.3l-.6,4.86Z"/>
      <path class="cls-3" d="M258.73,410.49s-.06-.04-.13-.08c-.83-.4,2.19-11.5,2.44-13.53s-3.84-6-5.35-7.19c0,0,0,6.71.12,8.49.13,1.78.72,3.21.49,7.41-.2,3.64,2.28,4.88,2.42,4.9ZM153.45,341.2c-.06.08-.12.16-.19.24-3.55,4.55-12.51,18.46-10.71,18.68s10.36-1.93,11.79-5.29.91-11.09-.9-13.63ZM191.64,401.35c-20.06-3.54-37.23-4.85-49.45-3.35-38.24,4.67-42.74,9.64-62.31,17.72-19.56,8.09-10.61,19.26-8.25,21.55-5.27-3.74-5.69-8.61-5.51-10.66.56-6.66,4.9-16.7,10.43-23.31,4.59-5.5,44.2-46.59,64.56-64.3-1.45,7.67-5.56,28.86-1.15,19.23,3.98-8.69,7.53-17.03,14.73-25.15-1.36-.17-4.48.16-7.33.77,1.31-1,2.44-1.76,3.33-2.26,0,0,0,0,.01,0,1.33-.18,2.8-.23,4.34-.03,1.74.22,5.2-5.01,7.35-8.58.87-.7,1.79-1.42,2.73-2.18.11.12.23.25.34.37-2.46,4.16-6.95,9.64-6.34,10.43s6.75,8.79,5.96,15.16c-.48,3.87,8.86-14.24,6-21.71,1.42.62,2.9,1.08,4.41,1.38,3.85.79,6,5.73,9.25,6.27,3.64.6,8.13.51,10.32-1.82.53-.56.95-1.21,1.33-1.92.69,10.27.54,11.74,4.54,13.9l.04.05c-.83.62-1.61,1.29-2.33,2h0c6.59.82,13.07,8.94,19.9,3.62,5.91-4.6,18.63-11.41,18.63-11.41-.25.72-.48,1.4-.64,2.07h0c-5.71,4.45-14.14,8.59-16.9,10.74-1.39,1.08,1.53,6.23,2,7.58.99,2.85,2.04,8.34,1.82,10.51,9.48-6.37,20.11-20.13,20.11-20.13.38.07.76.14,1.15.2-1.42,3.13-4.46,8.99-6.55,15.44-2.09,6.45-2.94,13.26.62,17.83.98,1.26,8.4-8.48,10.53-13.89l1.28.29c-.33,2.67-8.85,14.96-10.09,15.93-1.24.96,1.31,7.46,2.69,7.63s2.15-2.09,3.16-5.49c.78-2.66,2.94-5.94,4.03-8.68l1.21.46c-.1.27-1.79,4.72-3.65,8.65-1.92,4.06-1.05,8.46-.51,10.7.55,2.24,6.57,8.5,6.93,8.22.35-.29.84-2.07.41-4.3-.42-2.23-.73-5.04-.76-13.28,0-2.57-.16-4.33-.38-5.59h1.21c.19.94.36,1.74.51,2.33.29,1.15.02,3.65.02,3.65,0,0,6.67,5.06,7.19,7.48.52,2.42,4.7-12.25,4.94-14.22s.03-4-3.15-6.33c-.7-.51-1.67-1.29-2.79-2.2l1.41-.39c2.54,2.23,3.95,3.51,4.42,3.14.76-.58.61-17-1.81-20.1h0c3.4-2.16,2.91-8.05,4.8-11.34.52-.91,1.17-1.68,1.86-2.37,0,0,1.53,5.18,3.15,7.27,1.63,2.09,7.43-5.79,7.57-6.94s-4.5-3.59-3.86-8.72c.01-.1-.09-.16-.26-.2h0c.46-1.52.81-2.81,1.03-3.89.77,4.42,2.55,9.07,4.98,12.17,1.21,1.56,2.75,2.43,4.47,2.81l-.15,1.21c-1.09-.23-2.41-.74-4.05-1.83-.58-.39-4.52,7.09-3.2,8.78.69.9,3.57,2.24,6.37,3.12.08.11.7,1.17.97,6.07.3,5.21,11.93,7.59,11.93,7.59,0,0-2.48-9.57-2.01-13.38.56-.08,1.23-.23,1.96-.44.12,4.37.25,13.69,3.23,15.36,2.96,1.66,6.68,2.12,6.68,2.12,0,0-.85-12.11-2.98-14.84l-3.1-3.98c1.32-.55,2.63-1.17,3.75-1.8h0c3.43.43,7.82,2.01,8.84,3.31,1.01,1.3,2.4,1.47,2.4,1.47,0,0-.46-3.41-.81-3.86s4.19,1.34,6.39,1.61l4.17.52-1.37-1.75c-.35-.45-3.57-4.97-3.98-7.26-.26-1.43-.98-3.98-1.63-5.71l1.07.11c.76,1.86,2.29,3.77,3.12,6.87,1.16,4.33,4.25,8.9,7.78,9.65l-.32,1.4c-1.19-.35-2.71-.93-2.71-.93-.36,2.89.15,17.79,5.46,21.51.62-1.23.92-3.05,1.03-4.93l1.07.05c-.18,3.62-.58,6.88-.67,7.64-.13,1.04,2.59,6.14,3.7,5.29.9-.71,2.72-8.17,2.95-12.49l.84.04c-.21,3.34-.51,7.83-.83,10.34-.52,4.17.41,5.66.41,5.66,0,0,0,0,.01,0-.53,3.8-1,7.4-1.4,10.81-1.12,9.26-1.85,17.11-2.43,23.62-.05.63-.11,1.25-.16,1.86-.46,5.22-.84,9.51-1.26,12.91l-.36,2.94-.75,6.03c-33.32-15.15-69.74-28.15-103.06-37.3-1.34-.37-2.69-.74-4.02-1.09.04-.57.07-.93.07-.93,0,0-1.27-1.39-1.31-.16,0,.25-.01.5-.02.76-13.84-3.67-27.08-6.64-39.25-8.78ZM323.65,377.41c.91-.71-2.5-7.79-4.38-10.2s-9.03-8.77-9.03-8.77c1.07,4.61,4.27,13.95,5.77,14.14s6.74,5.54,7.64,4.83ZM323.08,368.27s.87-7.01,0-8.12c-.86-1.11-9.65-4.73-12.79-5.95l.29,1.45s1.62,2.08,4.87,4.37c3.25,2.29,7.64,8.25,7.64,8.25ZM208.08,372.73c3.4.42,12.6-2.28,12.85-4.3s-3.3-18.93-3.59-16.6c-.34,2.72-5.3,8.6-6.4,11.13-1.09,2.53-6.26,9.34-2.86,9.77ZM213.86,354.53c.15-1.23,1.04-2.07,1.04-2.07-5.24.45-14.9-5.15-16.13-5.3s-1.92-1.02-2.01-.25-7.87,4.6-4.61,5.55c3.25.96,21.56,3.3,21.71,2.06ZM202.83,372.62c1.44-2.8,3.7-9.58,3.7-9.58-2.95,2.29-23.14,8.11-20.2,8.48s15.04,3.91,16.5,1.1ZM184.32,368.76s23.72-6.47,26-10.9c0,0-18.28-3.02-18.95-2.48-11.08,8.64-7.05,13.38-7.05,13.38ZM163.43,348.74c2-1.56-3.32-12.49-5.35-15.1,0,0-4.01,7.04-2.31,7.25s1.58,12.59,1.58,12.59c0,0,4.07-3.18,6.08-4.74Z"/>
      <path class="cls-10" d="M373.65,153.47c1,1.28.69,3.4-.45,4.99-1.1,1.52-9.23,5.81-9.98,7.24,1.61-4.37,2.73-7.31,3.1-8.01.1-.21.27-.41.49-.62,1.16-1.15,3.82-2.42,6.85-3.59Z"/>
      <path class="cls-6" d="M346.01,374.67l-.84-.04c.05-.98.02-1.8-.12-2.34-.75-2.92-6.28-9.6-6.28-9.6l.93-1.16c.89.75,2.71,1.09,4.88,1.43l-.27,1.76c-.23-.03,2.07,4.98,1.98,5.73-.04.32-.14,2.03-.28,4.23Z"/>
      <path class="cls-4" d="M345.17,374.63c-.23,4.32-2.05,11.79-2.95,12.49-1.11.86-3.83-4.25-3.7-5.29.09-.76.5-4.01.67-7.64.07-1.37.11-2.79.08-4.15-.09-4.96-.7-5.74-.5-7.36,0,0,5.53,6.69,6.28,9.6.14.54.17,1.36.12,2.34Z"/>
      <path class="cls-9" d="M362.05,236.14c-.41.64-.83,1.29-1.26,1.96-2.57,3.97-5.37,8.22-7.93,12.14-.5.77-.99,1.53-1.46,2.26.22-1.8,1.05-3.81-.81-4.05-2.16-.27-8.14,2.37-10.38,10.41-2.26,8.04-2.68,9.48-1.28,9.3,1.31-.17,2.46-.69,2.59-.76-1.84,2.24-4.06,4.7-6.14,6.56-1.84-2.36.42-11.89.5-12.5s-4.84-.84-4.76-1.46,4.71.58,5.41.04,1.67-4.57,1.8-5.58-6.58-.82-6.44-1.9,6.88.85,6.88.85c0,0,1.39-3.66,2-4.77.61-1.1-3.92-3.15-3.83-3.85s3.81,2.48,4.96,2.07c1.45-.51,2.65-3.4,3.6-4.14.95-.75,3.62-1.98,4.48-1.88s.24-4.52.87-4.45.93,1.93.7,3.77.72,4.33,2.59,3.78c1.87-.55,6.66-7.62,7.91-7.82Z"/>
      <path class="cls-5" d="M351.13,313.02s-.32,2.55-.75,2.89c-.44.35-3.97-.89-5.16-1.48h0c-.18-1.04-.36-1.91-.56-2.58,1.52.19,6.48,1.16,6.48,1.16Z"/>
      <path class="cls-9" d="M363.01,207.17c.26,1.13-5.29,2.52-4.72,3.26s3.26,9.82.18,15.01c-3.08,5.19-8.74,8.49-11.37,9.42-2.63.92-8.08,2.03-11.05.96.22-.38.44-.78.67-1.2.13-.22.24-.45.37-.69.41-.77.88-1.73,1.4-2.88,2.17.65,12.26.33,15-6.62,2.75-6.95,2.46-10.29,1.14-12.97-1.32-2.67-2.73-6.48-6.13-5.6.65-1.72,1.3-3.48,1.95-5.24.19-.51.38-1.01.56-1.52.99-2.66,1.97-5.33,2.94-7.97.75.09-3.13,10.17-2.34,11.18s5.75,5.5,5.64,6.42,5.51-2.69,5.76-1.55Z"/>
      <path class="cls-4" d="M344.26,358.31s-3.21-.4-6.38-.79l-2.78-.34c-.14-.02-.29-.04-.43-.07-3.53-.75-6.61-5.33-7.78-9.65-.83-3.1-2.36-5.01-3.12-6.87-.35-.85-.53-1.69-.41-2.63l.54-.59c.55-.58,4.19,3.29,4.3,2.36s-3.43-2.25-2.19-3.21c.53-.42,2.72-.39,5.04-.22,3.09.23,6.43.7,6.43.7,0,0,1.29,4.74,2.82,6.7,1.52,1.96,3.95,14.62,3.95,14.62Z"/>
      <path class="cls-9" d="M352.86,250.24c3.09,2.89,3.51,12.9,3.51,12.9,0,0-4.57-1.04-5.89-1.2s-.2-4.65-.74-4.72c-.28-.04-.7.44-1.1,1.11l-.67-.41c1.01-1.63,2.17-3.46,3.43-5.42h0c.48-.74.97-1.5,1.46-2.27h0Z"/>
      <path class="cls-10" d="M347.66,268.27c2.18-1.7,6.76,5,5.26,12.58-1.48,7.58-2.79,7.97-2.38,9.74.41,1.78-2.4-3.08-2.4-3.08,0,0,1.79-3.97,1.22-9.85-.56-5.88-2.61-8.68-1.7-9.39Z"/>
      <path class="cls-3" d="M366.81,157.06c-.22.21-.38.42-.49.62-.37.7-1.48,3.65-3.1,8.01-.03.06-.05.11-.06.16-1.05,2.85-2.3,6.28-3.68,10.09-1.44,3.96-3.02,8.31-4.67,12.81-5.73-1.88-8.55-1.59-8.74-.08-.52,2.6.47,9.75.47,9.75,1.15.14,3.54-.02,3.94.49l.52.19c-.18.51-.37,1.02-.56,1.52-2.85-.35-6-1.4-13.52,2.37-2.13,1.07-3.51,2.62-4.4,4.4l-1.15-.5c.22-1.74,3.87-4.58,3.87-4.58,0,0-3.18-10.4-6.04-9.22-1.55.64-3.77,2.69-5.32,4.63.66-3.3.45-6.71-1.31-9.88-.38-.69-2.7,4.92-8.36,7.88-1.63.86-1.36,8.24-1.05,12.67-.58-.36-1.12-.62-1.68-.79-.07-4.43.09-9.35-.65-9.59-.14-.04-.48-.15-.97-.32,1.28-1.27,2.55-2.54,3.8-3.81l-.05.4c2.31-1.2,8.76-7.44,8.96-9.77h0c7.39-8.11,13.33-15.59,16.08-20.99.91-1.77,1.47-3.31,1.62-4.58l.18-.98c9.76,1.75,18.62-.82,26.34-.9ZM343.2,198.94c1.04.13.19-11.03-1.32-11.22s-8.89.95-8.62,3.05c.27,2.09,4.89,9.9,4.89,9.9,0,0,3.99-1.86,5.04-1.73Z"/>
      <path class="cls-6" d="M339.19,374.2l-1.07-.05c.15-2.84-.14-5.82-.48-7.13-.55-2.18-2.85-3.12-1.87-3.88s.65-4.27-.4-4.4c-.26-.03-.63-.12-1.03-.24l.32-1.4c.14.03.29.05.43.07l2.78.34-.13,1.04s.41,1.04,1.67,2.68c.08.1.17.2.28.28l-.93,1.16c-.2,1.62.41,2.4.5,7.36.03,1.36-.01,2.79-.08,4.15Z"/>
      <path class="cls-4" d="M338.13,374.15c-.1,1.88-.41,3.69-1.03,4.93-5.31-3.72-5.82-18.62-5.46-21.51,0,0,1.52.58,2.71.93.4.12.77.2,1.03.24,1.04.13,1.37,3.65.4,4.4s1.32,1.69,1.87,3.88c.33,1.32.63,4.29.48,7.13Z"/>
      <path class="cls-6" d="M363.22,165.69c-.01.05-.04.11-.06.16,0-.05.02-.1.06-.16Z"/>
      <path class="cls-10" d="M350.59,248.46c1.86.23,1.03,2.25.81,4.05h0c-1.26,1.96-2.43,3.79-3.43,5.42-.27.43-.52.84-.76,1.24l-1.74,2.96c-.29.49-.9,1.38-1.73,2.49-.62.83-1.37,1.79-2.19,2.79,0,0,0,0-.01,0-.14.07-1.28.59-2.59.76-1.4.18-.98-1.26,1.28-9.3,2.24-8.04,8.23-10.67,10.38-10.41Z"/>
      <path class="cls-9" d="M309.52,287.16c-.38-.53-.72-1.06-1-1.59-.69-1.26-1.36-2.66-2-4.19-.09-.23-.19-.47-.29-.71-1.28-3.18-2.36-6.84-3.04-10.71-1.16-6.64-1.07-13.9,1.44-20.43.08-.22.16-.43.26-.64,1.31-3.18,3.22-6.18,5.86-8.83.13-.12.26-.25.38-.38.71-.68,1.46-1.33,2.27-1.96,1.8-1.4,4.04-2.32,6.46-2.9.45-.12.9-.21,1.36-.29,1.79-.34,3.64-.51,5.46-.58.18,0,.36-.01.54-.01,3.49-.09,6.8.21,9.19.51l.3.17c-.23.42-.46.82-.67,1.2-6.42,11.14-7.74,4.59-8.05,7.09-.33,2.63-1.25,32.99,1.89,33.9,1.28.37,3.31-.9,5.49-2.84,2.08-1.86,4.3-4.33,6.14-6.56,0,0,.01,0,.01,0,.82-1,1.57-1.96,2.19-2.79l.11.09c7.92,6.13,3.37,26.17,1.08,37.66-.37,1.84-.68,3.46-.87,4.77-.26,1.77-.3,2.96.01,3.37,0,0-5.99-2.77-13.12-6.85-.34-.19-.67-.39-1.01-.59-1.65-.96-3.35-1.98-5.04-3.06-.46-.3-.93-.59-1.39-.9-5.27-3.44-10.29-7.3-13.3-11.05-.24-.3-.47-.6-.68-.9Z"/>
      <path class="cls-10" d="M354.63,211.46c1.31,2.68,1.6,6.02-1.14,12.97-2.74,6.95-12.83,7.27-15,6.62,2.48-5.44,6.14-14.87,10.01-25.19,3.41-.88,4.81,2.93,6.13,5.6Z"/>
      <path class="cls-5" d="M317.03,108.45c-1.48-.14-1.29.16-1.49.3-.14.09-.41.12-.81.11-.25-.01-.56-.05-.93-.09-.93-.12-12.84-3.09-.81-2.19.22.02.46.05.71.07,1.44.15,3.16.25,3.81-2.22.77-2.9-.54-2.73.55-4.86,1.09-2.13,3.6-4.86,5.46-4.63s.93.12,2.28,1.01c.17.12,3.32,2.8,3.54,2.91l.03.12c1.99-.54,4.22-.75,7.38-.36,8.68,1.08,19.31,8.94,19.65,9.19-.02.06-.05.13-.07.19-.46,1.19-.93,2.42-1.39,3.69.02.09.03.18.02.26l-.66,5.28s2.17,3.31,3.33,2.51c1.16-.8-.37-1.73.44-1.63s.72.83.72.83c0,0,.89.11,1.2-.55l1.4.2c-.82,1.59-1.51,2.06-1.51,2.06,0,0-.24.48-.67,1.02-.63.79-1.69,1.74-3.07,1.57l-2.32-.29c.13,1.27,1.97,4.5,4.63,3.88,2.67-.61.44-2.12,1.46-2s2.14,1.21,1.51-.22c-.54-1.23-1.01-2.41-.7-2.67.05-.04.13-.06.23-.05.7.09,1.49,1.28,1.78,2.22.3.93,1.07.5,2.05.62s.4,1.04.86,1.1.3.89-.95,1.04c-1.25.16-2.4-.56-2.5.27s-2.93,5.58-4.9,5.75c-1.95.17-4.48,1.23-4.57,1.98s-.53,1.45.13,1c.65-.46,2.27-.63,2.31-.99l.04-.36.91-.73.93.12s-.71.44-.8,1.22l-.1.77s-1.25,1.11-2.06,1.01-1.73-.32-1.79.14c-.04.32-.43.37-.79.36-.16,0-.31-.03-.43-.04-.4-.05-1.48,1.5-2.82,1.63-1.34.11-3.17.86-2.89,1.19.29.33,2.3,1.03,2.86.65.57-.39.49.24.49.24v1.01c-.21,0-.42,0-.64-.04-2.2-.27-2.45.32-5.22-.65-2.76-.98-1.88-1.86-3.25-1.53-1.36.32.53,1.66-1.45,1,0,0-1.06-.95-2.45-1.12s-8.93,1.63-12.52,1.19-1.21-4.41-.81-7.65c.07-.58.43-1.96-2-1.32-2.43.64-6.36-3-6.36-3l1.72.21c2.28.28,3.99.58,4.77-.42.22-.28-3.3-1.1-3.24-1.61.03-.27,1.92-.96,4.22-1.96,3.95-1.71,9.14-4.35,8.38-7.41-.29-1.18-.26-2.32-.03-3.38.69-3.34,3.14-5.88,2.52-6.19-.83-.42-6.62-.82-7.68-.09-.67.46-1.73,1.44-2.87,2.06-.69.37-1.4.61-2.07.53-.31-.04-.61.08-.9.3-.22.16-.44.39-.65.66h0c-.19.23-.37.49-.54.76-.97,1.5-1.86,3.51-2.65,4.13s.97-2.82,1.98-4.88c.35-.72.61-1.26.62-1.4.03-.21.16-.35.4-.5.35-.22.93-.48,1.71-1.01,1.33-.91,1.41-1.56,1.49-2.24s-1.78,2.22-3.76,1.97c-.17-.02-.31-.04-.45-.05ZM357.02,121.7c1.07.13,1.64-1.14,1.64-1.14,0,0-1.16-.14-1.8.3-.65.45-4.04-2.14-3.73-1.25.69,1.98,2.82,1.95,3.89,2.09ZM324.66,139.45c1.66,0,5.32-1.43,5.32-1.72,0-.29-2.71-.19-3.76.39s-1.57,1.34-1.57,1.34Z"/>
      <path class="cls-10" d="M370.61,82.2c-2.64,3.31-6.14,8.38-9.73,15.55-.33-.37-13.38-15.05-27.86-16.85-2.18-.27-4.16-.31-5.95-.17l-.02-.17c3.66-10.45,25.29-15.69,29.63-20.33,4.34-4.65,9.8-.86,11.59,2.33,1.5,2.67,2.24.67.99,10.76-.6,4.87,1.35,8.89,1.35,8.89Z"/>
      <path class="cls-1" d="M354.82,188.75c-.29.79-.58,1.58-.87,2.38-.97,2.64-1.95,5.31-2.94,7.97l-.52-.19c-.4-.51-2.79-.35-3.94-.49,0,0-.99-7.15-.47-9.75.19-1.51,3.01-1.8,8.74.08Z"/>
      <path class="cls-9" d="M361.44,124.62c.63,1.43-.5.35-1.51.22s1.21,1.39-1.46,2c-2.67.62-4.5-2.61-4.63-3.88l2.32.29c1.38.17,2.43-.78,3.07-1.57l1.52.27c-.31.26.16,1.45.7,2.67Z"/>
      <path class="cls-5" d="M358.94,115.55c.51-.36,3.81.11,2.82,2.3-.12.28-.24.52-.36.75l-1.4-.2c.04-.1.07-.21.09-.34.13-1.03-1.67-2.15-1.15-2.51Z"/>
      <path class="cls-5" d="M330.88,216.13c.06-2.86.31-6.06,1.65-8.74.89-1.78,2.27-3.33,4.4-4.4,7.53-3.77,10.68-2.72,13.52-2.37-.65,1.76-1.31,3.51-1.95,5.24-3.86,10.32-7.53,19.75-10.01,25.19-.52,1.15-.99,2.11-1.4,2.88-.13.23-.25.46-.37.69l-.3-.17c-2.39-.3-5.7-.6-9.19-.51-.56-1.26-1.23-2.63-1.11-3.38.61-3.89,3.13-6.12,2.8-8.73-.12-.95-.44-2.27-1.14-3.26-.72-1-1.65-1.63-2.69-2.1l4.69-.37,1.11.02Z"/>
      <path class="cls-4" d="M329.7,355.2l-4.17-.52c-2.2-.27-6.75-2.07-6.39-1.61s.81,3.86.81,3.86c0,0-1.39-.17-2.4-1.47-1.02-1.3-5.4-2.88-8.84-3.31,2.12-1.21,3.53-2.43,2.93-3.19-.82-1.05-4.69-8.91-5.71-8.12-.59.46-1.25.88-1.93,1.24l-.52-1.75c1.22-.74,2.31-1.51,3.23-2.21,1.17-.92,1.83-2.08,2.11-3.4l.2.04,1.69-1.33h.01c-.44,2.17-1.38,5.64-2.35,5.52-1.24-.15,6.63,9.21,7.93,8.19.86-.67,3.79-5.14,5.4-8.48.24.03.61.77,1.01,1.81.66,1.73,1.37,4.29,1.63,5.71.42,2.29,3.63,6.81,3.98,7.26l1.37,1.75Z"/>
      <path class="cls-9" d="M358.66,120.56s-.57,1.27-1.64,1.14-3.19-.1-3.89-2.09c-.32-.89,3.08,1.7,3.73,1.25.63-.45,1.8-.3,1.8-.3Z"/>
      <path class="cls-4" d="M332.32,330.23c.18,1.08-1.66.92-3.56.52-1.71-.36-3.48-.92-3.92-.97-.92-.11-2.07-1.59-2.07-1.59h-.04c-.74-1.83-2.28-4.05-3.51-5.68l.18-.14c4.29.53,12.58,5.82,12.91,7.86Z"/>
      <path class="cls-4" d="M335.39,334.96c-.07.56-2.02.62-4.28.46-2.83-.21-6.15-.74-6.84-1.02-1.23-.51.37-3.01.37-3.01,1.07-.15,2.48,0,3.92.31,3.37.73,6.94,2.37,6.83,3.26Z"/>
      <path class="cls-3" d="M331.11,335.43l-.05.87c-2.33-.17-4.51-.2-5.04.22-1.24.96,2.31,2.29,2.19,3.21s-3.76-2.94-4.3-2.36l-.54.59c-.12.94.07,1.78.41,2.63l-1.07-.11c-.4-1.04-.77-1.78-1.01-1.81.83-1.73,1.31-3.15.96-3.59-1.01-1.3-11.7-3.01-11.7-3.01-.04.29-.12.79-.24,1.38h-.01s-1.69,1.33-1.69,1.33l-.2-.04c1-4.63-2.66-11.05-5.28-14.42l-.35-.09c.64-.17,1.28-.38,1.95-.59.75.5,1.72,1.74,1.95,2.04s7.76-1.93,7.86-2.8c.79.4,1.57.89,2.35,1.33-1.06-.33-7.41,1.51-9,2.75-1.13.88,2.84,7.57,2.84,7.57,0,0,8.99,2.76,11.51.8.75-.58.63-1.74.08-3.11h.04s1.15,1.46,2.07,1.57c.44.05,2.21.62,3.92.97l-.2.96c-1.44-.31-2.85-.46-3.92-.31,0,0-1.6,2.51-.37,3.01.69.28,4.01.81,6.84,1.02Z"/>
      <path class="cls-4" d="M319.27,367.21c1.88,2.41,5.29,9.48,4.38,10.2-.91.71-6.13-4.64-7.64-4.83s-4.7-9.53-5.77-14.14c0,0,7.16,6.36,9.03,8.77Z"/>
      <path class="cls-10" d="M360.88,97.74c-1.49,2.99-3,6.33-4.47,10.07-.34-.24-10.97-8.11-19.65-9.19-3.16-.39-5.39-.18-7.38.36l-.03-.12c-.21-.11-3.36-2.79-3.54-2.91-1.35-.9-.43-.79-2.28-1.01s-4.37,2.5-5.46,4.63c-1.09,2.13.23,1.97-.55,4.86-.65,2.47-2.37,2.37-3.81,2.22h0c-3.81-4.55-2.98-8.78-2.28-12.42,1.12-5.75,5.32-12.7,15.62-13.51,1.79-.14,3.77-.1,5.95.17,14.49,1.8,27.54,16.48,27.86,16.85Z"/>
      <path class="cls-9" d="M330.54,304.99c-.33,3.04.99,6.68.18,9.65-.84,3.08-5.38,5.5-8.88,6.68-1.4.47-2.88-.2-4.39-1.06h0s-.07-.06-.13-.08c-.78-.44-1.56-.93-2.35-1.33-1.05-.54-2.12-.93-3.16-.84-2.46.2-4.64.95-6.66,1.6-.67.22-1.31.42-1.95.59-3.92,1.06-7.34.85-11.26-6.07-.11-.18-.21-.37-.31-.56-.16-.31-.27-.64-.34-1.01-.17-.91-.1-1.98,0-3.16l.24.02c-.08.88-.07,1.68.17,2.31,1.65,4.34,4.71,6.82,7.54,7.61,3.24.91,5.39-1.11,12.56-2.22,2.54-.39,7.48,4.17,11.81,2.6,6.1-2.2,6.41-4.4,5.84-13.32-.07-1.22.14-2.31.5-3.33h0c.34.19.68.39,1.01.58-.21.43-.36.86-.41,1.33Z"/>
      <path class="cls-5" d="M351.9,138.07c.58.07,1.19,1.77.29,2.4-.81.56-1.68,1.63-3.45,1.63v-1.01s.4-.27,1.07-.74c.68-.46,1.36-1.11,1.43-1.73.05-.43.07-.56.26-.58.09,0,.21,0,.39.03Z"/>
      <path class="cls-4" d="M323.08,360.16c.87,1.11,0,8.12,0,8.12,0,0-4.39-5.95-7.64-8.25-3.25-2.29-4.87-4.37-4.87-4.37l-.29-1.45c3.14,1.21,11.93,4.83,12.79,5.95Z"/>
      <path class="cls-9" d="M351.53,137.42l-.02.61c-.19.02-.21.15-.26.58-.08.62-.75,1.27-1.43,1.73-.67.47-1.06.74-1.06.74,0,0,.08-.63-.49-.24-.57.39-2.58-.32-2.86-.65-.28-.33,1.55-1.08,2.89-1.19,1.34-.13,2.41-1.68,2.82-1.63.12.01.27.03.43.04Z"/>
      <path class="cls-1" d="M341.88,187.72c1.5.19,2.35,11.35,1.32,11.22s-5.04,1.73-5.04,1.73c0,0-4.63-7.82-4.89-9.9-.27-2.09,7.1-3.23,8.62-3.05Z"/>
      <path class="cls-3" d="M329.44,306.4c.57,8.92.26,11.12-5.84,13.32-4.33,1.57-9.27-3-11.81-2.6-7.17,1.11-9.32,3.13-12.56,2.22-2.82-.79-5.89-3.27-7.54-7.61-.24-.63-.26-1.43-.17-2.31.24-2.49,1.3-5.61.63-7.23-2.55-6.17-4.98-7.26-2.67-12.65.86-2.02,1.7-3.6,4.8-4.39,1.27-.32,5.74.19,7.11-.24,1.64-.52,3.33-2.11,5.11-3.52.64,1.52,1.31,2.93,2,4.19.29.52.63,1.05,1,1.59-2.56-.54-4.8-.27-6.13,1.17-3.82,4.12-7.18,11.71-4.72,15.09,2.46,3.4,5.54,10.59,10.76,9.85,2.1-.29,4.56-1.47,4.56-1.47,5.06-2.01,11.31-6.54,10.88-11.75l.03-.05c1.69,1.08,3.39,2.1,5.04,3.06h0c-.36,1.02-.57,2.12-.5,3.33Z"/>
      <path class="cls-1" d="M322.66,335.07c.35.45-.13,1.87-.96,3.59-1.61,3.34-4.54,7.81-5.4,8.48-1.31,1.02-9.17-8.34-7.93-8.19.97.12,1.91-3.35,2.35-5.52.12-.59.2-1.08.24-1.38,0,0,10.7,1.71,11.7,3.01Z"/>
      <path class="cls-1" d="M322.74,328.2c.55,1.36.67,2.52-.08,3.11-2.52,1.96-11.51-.8-11.51-.8,0,0-3.96-6.69-2.84-7.57,1.59-1.24,7.94-3.08,9-2.75.04.02.08.05.13.07h0c.15.2.89,1.07,1.78,2.25,1.23,1.63,2.77,3.84,3.51,5.69Z"/>
      <path class="cls-9" d="M324.87,300.05c.43,5.21-5.82,9.74-10.88,11.75,0,0-2.46,1.18-4.56,1.47-5.22.74-8.3-6.45-10.76-9.85-2.45-3.38.91-10.97,4.72-15.09,1.33-1.44,3.57-1.71,6.13-1.17.21.29.44.6.68.9-1.16-.41-2.19-.6-2.98-.48-4.43.66-9.4,11.94-8.17,13.64s3.5,8.65,6.18,10.09c1.25.68,4.12,1.44,6.77.33,2.88-1.21,12.93-4.94,12.21-10.42-.09-.66-.34-1.37-.72-2.11h0c.46.3.93.6,1.39.89l-.03.05Z"/>
      <path class="cls-1" d="M324.22,301.23c.72,5.48-9.33,9.21-12.21,10.42-2.65,1.1-5.52.35-6.77-.33-2.68-1.45-4.95-8.39-6.18-10.09s3.74-12.99,8.17-13.64c.79-.12,1.81.07,2.98.48,3,3.75,8.02,7.61,13.3,11.05h0c.38.75.63,1.46.72,2.12ZM311.47,300.43c.21-1.27-1.52-2.73-2.04-2.81-.51-.08-2.24-.09-2.34.54-.1.64-.77,2.37-.45,2.81.32.45.38.79,1.43.88,3.09.3,3.19-.14,3.4-1.42Z"/>
      <path class="cls-10" d="M340.46,157.96l-.18.98c-.16,1.27-.71,2.81-1.62,4.58l-.03-.02c-.53.78-1.06,1.55-1.55,2.2-1.98,2.6-12.4,14.08-15.66,14.17-3.24.09-4.29-7.98-1.95-14.01,2.27-5.85,9.86-9.76,12.22-10.65,2,.87,3.88,1.55,5.49,2,1.1.31,2.19.55,3.27.75Z"/>
      <path class="cls-9" d="M322.58,184.5h0c-2.79,3.07-5.79,6.21-8.91,9.38h0c-1.26,1.28-2.52,2.55-3.8,3.82-.12-.04-.24-.09-.38-.14l-.05.05c-5.19-.64-15.85.83-17.9,5.99-2.06,5.17-5.38,13.91-3.07,13.38l.29.33c-4.36,3.81-8.47,7.22-12.03,9.99-1.03.8-2.24,1.77-3.59,2.85l-.13-.16c-.31-.89,8.88-8.16,9.4-9.25.44-.92,1.81-6.71,2.54-10.53,2.31-3.91,4.51-7.95,6.62-12.06,1.57-1.23,3.46-2.57,4.78-3.04,2.65-.93,6.86-2.08,8.26-2.57s1.75-6.06,2.7-4.99-.63,3.6-.58,5.16c.05,1.55,3.05,1.4,3.52.41.48-.99,8.29-8.48,6.84-9.17-3.52-1.69-5.52-6.56-5.86-7.51s-6.83,1.25-6.79.16c.02-1.08,6.47-1.9,6.88-2.74.4-.85.35-5.81,2.06-10.79,1.72-4.98,8.39-10.63,8.39-10.63,0,0-4.74-4.91-4.24-5.5,1,.76,2.04,1.5,3.1,2.21,1.28,1.26,2.46,2.57,2.46,2.57,0,0,.33-.17.88-.47,2.62,1.55,5.28,2.9,7.74,3.96-2.37.9-9.95,4.8-12.22,10.65-2.34,6.03-1.3,14.1,1.95,14.01,3.25-.09,13.68-11.58,15.66-14.17.5-.65,1.02-1.42,1.55-2.2l.03.02c-2.75,5.4-8.69,12.88-16.08,20.99Z"/>
      <path class="cls-1" d="M322.6,201.93c-.2-.15-.35-.29-.44-.41-.44-.57.4-2.15,1.72-3.79,1.56-1.95,3.78-3.99,5.32-4.63,2.86-1.18,6.04,9.22,6.04,9.22,0,0-3.65,2.85-3.87,4.58,0,0-6.79-3.41-8.77-4.97Z"/>
      <path class="cls-6" d="M331.38,206.89l1.15.5c-1.34,2.68-1.59,5.88-1.65,8.74l-1.11-.02s-.48-5.59.56-6.41c0,0-9.21-3.92-11.49-.74l-.11-.07c1.46-2.22,3.02-4.83,3.88-6.96,1.98,1.56,8.77,4.97,8.77,4.97Z"/>
      <path class="cls-1" d="M317.44,320.26s-.09-.05-.13-.07c.06.01.1.04.13.07Z"/>
      <path class="cls-1" d="M329.77,216.11l-4.69.37c-1.91-.86-4.18-1.16-6.17-2.24-.32-.42-.77-1.85-.58-3.42-.01-.79.17-1.4.5-1.86,2.28-3.18,11.49.74,11.49.74-1.05.82-.56,6.41-.56,6.41Z"/>
      <path class="cls-9" d="M325.08,216.48c1.03.46,1.96,1.09,2.69,2.1.71.98,1.02,2.31,1.14,3.26.33,2.61-2.19,4.84-2.8,8.73-.12.75.55,2.12,1.11,3.38-.18,0-.36,0-.54.01-.53-1.34-1.2-2.9-1.16-3.27.82-6.64,3.86-7.44,1.89-11.37-1.65-3.29-7.34-2.98-9.79-4.82-1.02-.76-2.96-4.24-3.84-4.98-.19-.16-.38-.31-.57-.44-.02-.22-.04-.44-.06-.68.26.16.53.34.82.55.54.4,1.6,1.84,2.57,3.06h0c.65.82,1.27,1.55,1.66,1.82.23.15.46.29.7.42,2,1.07,4.27,1.38,6.17,2.24Z"/>
      <path class="cls-4" d="M308.06,357.94c2.13,2.73,2.98,14.84,2.98,14.84,0,0-3.71-.46-6.68-2.12-2.98-1.67-3.11-10.98-3.23-15.36,1.17-.33,2.5-.8,3.82-1.35l3.1,3.98Z"/>
      <path class="cls-1" d="M295.97,345.26c.09-.51.2-.8.34-.79.67.08,4.5-.67,7.69-2.39.69-.37,1.35-.78,1.93-1.24,1.02-.79,4.89,7.08,5.71,8.12.59.76-.81,1.99-2.93,3.19h0c-1.12.64-2.42,1.25-3.75,1.8-1.32.55-2.65,1.02-3.82,1.35-.73.21-1.4.36-1.96.44-.63.09-1.13.09-1.43-.03-1.86-.72-2.18-8.02-1.78-10.46Z"/>
      <path class="cls-3" d="M311.49,208.22c.55.15,1.11.42,1.72.86.19.13.37.27.57.44.88.74,2.82,4.22,3.84,4.98,2.45,1.84,8.15,1.53,9.79,4.82,1.97,3.93-1.07,4.73-1.89,11.37-.05.37.63,1.93,1.16,3.27-1.82.07-3.67.24-5.46.58,1.53-6.88-.48-16.27-5.02-16.83-4.92-.61-12.1.89-13.26,4.4-1.17,3.51-4.74,9.44-1.51,12.8,1.3,1.36,3.41,2.51,3.41,2.51,1.68,1.08,3.78,2.08,5.91,2.67-2.65,2.65-4.55,5.64-5.86,8.83h0c-.25-.15-.51-.33-.77-.51-3.36-2.29-2.63-8.2-4.22-9.82-4.5-4.58-7.05-5.07-8.07-7.86-.89-2.43-.7-5.92,1.57-9.34.31-.47.84-.88,1.48-1.26,1.91-1.14,4.78-1.99,5.61-3.33,1.84-2.97,2.43-5,3.66-6.39.84-.96,1.99-1.61,4.04-2.07,1.17-.26,2.21-.44,3.34-.12Z"/>
      <path class="cls-3" d="M311.8,318.01c1.05-.08,2.11.3,3.16.84-.11.86-7.63,3.1-7.86,2.8s-1.21-1.54-1.95-2.04c2.02-.65,4.2-1.41,6.66-1.6Z"/>
      <path class="cls-9" d="M316.2,217.7c4.55.56,6.55,9.95,5.02,16.83-.46.08-.91.18-1.36.29h0c1.29-5.21.86-12.71-1.14-14.77-2.76-2.84-13.41-.58-14,1.18-.59,1.76-4.4,6.97-4.06,9.64.16,1.25,1.1,3.7,3.25,5.03,1.29.79,4.23,2.74,7.21,3.78-.13.12-.26.25-.38.38-2.13-.59-4.23-1.59-5.91-2.67,0,0-2.12-1.15-3.41-2.51-3.22-3.36.35-9.29,1.51-12.8,1.16-3.51,8.34-5.01,13.26-4.4Z"/>
      <path class="cls-5" d="M303.54,320.3c2.62,3.37,6.28,9.8,5.28,14.42-.28,1.32-.94,2.49-2.11,3.4-.92.71-2.01,1.48-3.23,2.21-2.4,1.46-5.27,2.84-8.11,3.55-2.1.53-4.17.7-6.04.29-1.72-.38-3.27-1.25-4.47-2.81-2.43-3.11-4.2-7.75-4.98-12.17.63-2.99.41-4.49-.42-5.33.1-2.88.82-5.26,2.32-6.43,4.39-3.41,10.16-3.31,10.16-3.31,3.92,6.91,7.34,7.12,11.26,6.07l.35.09Z"/>
      <path class="cls-1" d="M318.72,220.05c2.01,2.07,2.44,9.56,1.14,14.77h0c-2.42.58-4.67,1.51-6.46,2.91-.81.63-1.56,1.28-2.27,1.96-2.98-1.05-5.92-2.99-7.21-3.78-2.16-1.32-3.09-3.77-3.25-5.03-.35-2.67,3.46-7.88,4.06-9.64.58-1.76,11.24-4.02,14-1.18ZM311.69,229.74c1.02-.51,1.17-2.51.97-2.92s-1.08-1.65-1.59-1.4c-.51.25-2.09.67-2.25,1.12-.15.46-.36.69.11,1.48,1.38,2.37,1.75,2.22,2.77,1.71Z"/>
      <path class="cls-3" d="M309.44,297.62c.51.08,2.24,1.54,2.04,2.81-.2,1.28-.3,1.72-3.4,1.42-1.04-.1-1.11-.44-1.43-.88-.32-.44.34-2.17.45-2.81.1-.63,1.83-.62,2.34-.54Z"/>
      <path class="cls-4" d="M322.57,187.85c1.77,3.17,1.97,6.57,1.31,9.88-1.32,1.65-2.16,3.23-1.72,3.79.09.11.24.26.44.41-.86,2.12-2.42,4.74-3.88,6.96-.8,1.21-1.56,2.29-2.17,3.13-.98-1.22-2.04-2.66-2.57-3.06-.28-.21-.55-.39-.82-.55-.32-4.42-.58-11.81,1.05-12.67,5.66-2.96,7.98-8.56,8.36-7.88Z"/>
      <path class="cls-9" d="M329.99,137.73c0,.29-3.66,1.73-5.32,1.72,0,0,.52-.76,1.57-1.34s3.76-.68,3.76-.39Z"/>
      <path class="cls-6" d="M303.48,340.34l.52,1.75c-3.19,1.71-7.02,2.47-7.69,2.39-.14-.02-.25.28-.34.79l-.6-1.37c2.84-.71,5.71-2.09,8.11-3.55Z"/>
      <path class="cls-8" d="M332.4,108.2c.63.32-1.83,2.86-2.52,6.19l-1.12-.25s-.7-.78-4.46-2.12c-.05-.02-.09-.03-.13-.05-.11-.04-.22-.07-.31-.1-.43-.64-1.16-1.65-1.4-1.53l-.62-.17c1.14-.62,2.2-1.6,2.87-2.06,1.06-.73,6.85-.33,7.68.09Z"/>
      <path class="cls-4" d="M322.58,184.5c-.2,2.33-6.65,8.57-8.96,9.77l.05-.4h0c3.12-3.17,6.11-6.31,8.91-9.38Z"/>
      <path class="cls-4" d="M299.17,355.75c-.47,3.81,2.01,13.38,2.01,13.38,0,0-11.63-2.38-11.93-7.59-.27-4.9-.89-5.96-.97-6.07,2.52.79,4.99,1.22,5.76.62,1.63-1.27.35-10.43-1.03-10.6-.87-.11-2.03.3-3.84-.09l.15-1.21c1.87.41,3.94.25,6.04-.29l.6,1.37c-.41,2.44-.09,9.74,1.78,10.46.3.12.8.12,1.43.03Z"/>
      <path class="cls-3" d="M318.91,214.24c-.23-.13-.47-.27-.7-.42-.39-.26-1.01-.99-1.66-1.81h0c.62-.84,1.38-1.93,2.17-3.13l.11.07c-.33.46-.52,1.07-.5,1.86-.2,1.58.26,3.01.58,3.42Z"/>
      <path class="cls-8" d="M325.97,114.8c1.45-.37,2.79-.65,2.79-.65l1.12.25c-.23,1.06-.27,2.2.03,3.38.77,3.06-4.43,5.7-8.38,7.41-.1-1.03-.12-2.1-.4-2.84,0,0-1.71.22-3.57-.61-1.12-.49-.48-1.27,1.25-5.34l1-2.81c-.38-2.31-.22-1.21-.94-2.58.3-.23.6-.34.9-.3.67.08,1.39-.16,2.07-.53l.62.17c.41.29.83,1.44.93,1.72-.03.02-.06.04-.09.07-.83-.48-.96-1.28-1.43-.84.33.12.9.72,1.24,1.09-.59,1.02-.26,3.39-.26,3.39.67-.32,1.93-.68,3.11-.98Z"/>
      <path class="cls-7" d="M323.96,151.24c-.55.3-.88.47-.88.47,0,0-1.18-1.31-2.46-2.57,1.09.74,2.21,1.44,3.34,2.1Z"/>
      <path class="cls-8" d="M324.3,112.03c3.77,1.34,4.46,2.12,4.46,2.12,0,0-1.34.28-2.79.65.16-1.79-.85-2.45-1.67-2.77Z"/>
      <path class="cls-9" d="M306.22,280.68c.1.24.2.48.29.71-1.78,1.41-3.47,3-5.11,3.52-1.37.43-5.85-.09-7.11.24-3.1.79-3.94,2.37-4.8,4.39-2.31,5.39.13,6.48,2.67,12.65.67,1.62-.4,4.74-.63,7.23l-.24-.02c.13-1.62.32-3.45-.01-5.32-.07-.4-.17-.8-.3-1.21-1.2-3.82-5.35-7.53-3.78-11.73.15-.41.36-.83.63-1.25.71-1.09,1.29-1.96,1.9-2.67.08-.09.15-.18.23-.26.66-.73,1.38-1.29,2.34-1.75.23-.11.47-.21.72-.31.27-.11.56-.21.87-.31,1-.33,4.52-.24,6.39-.48.37-.05.68-.11.88-.19,1.95-.74,3.5-2.07,5.06-3.24Z"/>
      <path class="cls-3" d="M312.65,226.82c.21.41.06,2.4-.97,2.92-1.02.51-1.39.66-2.77-1.71-.47-.8-.26-1.02-.11-1.48.15-.46,1.74-.87,2.25-1.12.51-.25,1.39.99,1.59,1.4Z"/>
      <path class="cls-5" d="M317.08,183.95c1.44.7-6.36,8.18-6.84,9.17-.48,1-3.47,1.14-3.52-.41-.05-1.55,1.53-4.09.58-5.16s-1.3,4.5-2.7,4.99-5.61,1.65-8.26,2.57c-1.32.46-3.21,1.81-4.78,3.04,8.71-16.96,15.99-35.36,23.93-52.87.66.56,1.33,1.1,2.03,1.64-.51.59,4.24,5.5,4.24,5.5,0,0-6.68,5.65-8.39,10.63-1.71,4.98-1.65,9.95-2.06,10.79-.4.84-6.85,1.67-6.88,2.74-.03,1.09,6.45-1.11,6.79-.16s2.34,5.82,5.86,7.51Z"/>
      <path class="cls-3" d="M306.22,280.68c-1.56,1.18-3.12,2.5-5.06,3.24-.2.08-.51.14-.88.19.88-1.82,1.9-5.31.94-5.43s-7.26-1.34-7.75-.96-.68,5.1-1.59,5.33c-.91.23,1.14,1.85,1.14,1.85-.26.1-.5.21-.72.31,0,0-1.07-.53-1.45-.58-.12-.01-.24.13-.36.36l-.89-.38c1.32-2.03,2.37-4.95,2.72-9.23l.97.08s8.71,2.06,8.87.76.44-3.19.44-3.19c.09-.76.03-1.9-.15-3l.74-.07c.67,3.87,1.76,7.53,3.04,10.71Z"/>
      <path class="cls-3" d="M313.16,208.4c.02.24.03.47.06.68-.61-.44-1.17-.71-1.72-.86,0-.2-.01-.4,0-.61.55.17,1.09.42,1.68.79Z"/>
      <path class="cls-1" d="M288.29,355.46c-2.8-.88-5.67-2.23-6.37-3.12-1.31-1.69,2.62-9.17,3.2-8.78,1.64,1.09,2.97,1.61,4.05,1.83,1.81.38,2.97-.02,3.84.09,1.38.17,2.67,9.34,1.03,10.6-.77.61-3.24.18-5.76-.62Z"/>
      <path class="cls-8" d="M323.31,112.14s.06-.05.09-.07c.13-.1.3-.15.49-.14.08,0,.18.02.28.05.04.02.08.03.13.05.82.32,1.83.98,1.67,2.77-1.18.3-2.44.66-3.11.98,0,0-.33-2.37.26-3.39.05-.1.11-.18.19-.24Z"/>
      <path class="cls-5" d="M324.17,111.98c-.1-.03-.2-.05-.28-.05-.01-.01-.02-.03-.03-.05.09.03.2.06.31.1Z"/>
      <path class="cls-8" d="M323.86,111.88s.02.03.03.05c-.19-.01-.36.04-.49.14-.1-.28-.52-1.42-.93-1.72.24-.12.97.89,1.4,1.53Z"/>
      <path class="cls-9" d="M311.49,207.61c0,.21,0,.41,0,.61-1.13-.32-2.17-.14-3.34.12-2.05.46-3.19,1.11-4.04,2.07l-.04-.04c-.22-.5-.42-.97-.58-1.43.86-.91,1.98-1.52,3.55-1.6,1.9-.1,3.19-.12,4.44.26Z"/>
      <path class="cls-8" d="M323.31,112.14c-.07.06-.13.15-.19.24-.33-.36-.9-.97-1.24-1.09.47-.44.59.37,1.43.84Z"/>
      <path class="cls-3" d="M303.18,269.97l-.74.07c-.29-1.76-.88-3.41-1.56-3.18-1.11.37-8.18,3.24-7.76,3.7.51.56.37,3.17.37,3.17l-.21,1.73-.97-.08c.06-.68.1-1.38.12-2.13.69-5.56-7.74-9.67-11.68-10.15s-5.88-.51-10.27,2.79c-.11-.43-.2-.85-.29-1.26l3.53-2.75s-.03-6.02-1.24-8.87c.3-.02.59-.06.88-.08.44,3.19,2.1,9.17,2.1,9.17,1.96-.58,4.41-.93,4.97-.21.28.35,1.27-2.12,1.97-4.74l1.25.16h0c-.57,2.56-1.04,4.98-1.04,4.98,1.62.2,3.56,1.62,4.14,1.69.36.04,2.76-3.04,4.3-5.78-.16,1.26.7,2.36.7,2.36-1.58,2.28-3.25,4.58-3.25,4.58,1.65.91,3.37,3.13,3.67,3.52s7.3-1.92,7.74-5.4c.13-1.08-.33-2.25-1.05-3.34,2.81-1.99,3.13-3.06,3.4-4.48.4-2.13,1.41-4.75,1.92-6.13.14.08.29.16.44.24h0c-2.52,6.53-2.6,13.79-1.44,20.43Z"/>
      <path class="cls-4" d="M310.84,198.02c.74.24.58,5.16.65,9.59-1.24-.39-2.53-.36-4.44-.26-1.57.07-2.68.69-3.55,1.6-.72-2.01-.86-3.5-.87-4.25,2.43-2.3,4.86-4.64,7.24-6.99.48.17.83.28.97.32Z"/>
      <path class="cls-1" d="M302.6,273.04s-.28,1.89-.44,3.19-8.87-.76-8.87-.76l.21-1.73s.14-2.61-.37-3.17c-.42-.47,6.65-3.33,7.76-3.7.68-.23,1.27,1.41,1.56,3.18.18,1.1.25,2.24.15,3Z"/>
      <path class="cls-1" d="M301.21,278.69c.96.12-.06,3.61-.94,5.43-1.86.24-5.38.16-6.39.48-.31.1-.6.2-.87.31,0,0-2.05-1.62-1.14-1.85.91-.23,1.1-4.95,1.59-5.33s6.79.84,7.75.96Z"/>
      <path class="cls-9" d="M298.68,238.42c-.26-.28-.52-.54-.79-.79-2.15-1.97-4.55-3.25-6.09-4.98-1.86-2.1-2.44-4.87.21-10.38.45-.93,1.5-1.61,2.73-2.34l.11.18c-.64.38-1.16.79-1.48,1.26-2.27,3.42-2.46,6.9-1.57,9.34,1.02,2.79,3.57,3.28,8.07,7.86,1.59,1.61.87,7.52,4.22,9.82.26.18.52.35.77.5h0c-.09.21-.18.43-.26.65h0c-.15-.08-.3-.16-.44-.24-.77-.42-1.49-.89-2.13-1.35-2.37-1.7-.86-6.62-2.8-8.91-.18-.22-.37-.42-.56-.62Z"/>
      <path class="cls-4" d="M304.18,249.3c-.51,1.38-1.52,3.99-1.92,6.13-.26,1.42-.59,2.49-3.4,4.48-1.57-2.4-4.35-4.33-4.43-3.69-.05.43-1.32,2.36-2.68,4.32-.03-.14-.36-2.32-.57-2.59.89-1.63,1.44-3.1,1.01-3.66-.23-.29-.59-.6-1.03-.91.13-.75.26-1.52.38-2.34.65-4.32,3.95-10.14,7.14-12.63.19.19.38.4.56.62,1.94,2.29.43,7.21,2.8,8.91.64.46,1.36.92,2.13,1.35Z"/>
      <path class="cls-8" d="M317.48,108.5c1.98.25,3.84-2.64,3.76-1.97s-.16,1.33-1.49,2.24c-.78.54-1.36.79-1.71,1.01-.3-.29-.69-.77-1.01-1.33.14.01.28.03.45.05Z"/>
      <path class="cls-10" d="M302.63,204.69c-4.71,4.46-9.43,8.75-13.88,12.63h0s-.29-.34-.29-.34c-2.3.53,1.02-8.21,3.07-13.38,2.05-5.16,12.71-6.64,17.9-5.99l.05-.05c.13.05.26.09.38.14-2.38,2.35-4.81,4.7-7.24,6.99Z"/>
      <path class="cls-5" d="M318.22,111.68c.25.71.33,1.34.27,1.92-.15-.34-.45-.74-.81-1.16.17-.27.35-.53.54-.76Z"/>
      <path class="cls-5" d="M318.04,109.78c-.24.16-.38.29-.4.5-.02.14-.27.68-.62,1.4h0c-.84-.91-1.95-2.2-2.26-2.83.4.01.67-.01.81-.11.2-.14,0-.44,1.49-.3.31.56.71,1.04,1.01,1.33Z"/>
      <path class="cls-1" d="M298.87,259.9c.72,1.08,1.18,2.26,1.05,3.34-.43,3.48-7.43,5.79-7.74,5.4s-2.02-2.6-3.67-3.52c0,0,1.68-2.3,3.25-4.58h0c1.35-1.97,2.62-3.9,2.68-4.33.08-.64,2.86,1.29,4.43,3.69Z"/>
      <path class="cls-3" d="M291.62,313.57c.1.19.21.38.31.56,0,0-5.77-.11-10.16,3.31-1.49,1.17-2.22,3.54-2.32,6.43-1.86-1.9-6.79-.5-12.09-5.4-2.5-2.3-1.5-8.04-4.39-9.62-1.07-.58-2.33-1.16-3.63-1.61,1.84-.14,1.99-4.48,1.01-6.2-.49-.87-9.42.12-9.42.12-.2,1.62.24,3.4-.31,4.44l-.77-.19c.39-.91.17-1.83.05-3.51,0-3.57-.66-5.95-1.75-7.59.37.06.75.09,1.12.08.2,0,.38-.02.57-.05.71.9,1.57,4.22,1.14,4.56-.44.34,9.36,1.7,9.19-.08-.17-1.78-.53-7.74-3.98-8.17,1.08-.88,2.21-1.72,3.54-2.28.14-.06.32-.11.54-.16-.12,1,1.86,3.69,2.89,3.81s7.57-4.41,7.13-4.98c-.23-.28-.68-.38-.65-.66l-.03-.08c.63-.34,1.21-.71,1.76-1.15,1.25,3.52,7.37,5.48,11.19,4.49,1.74-.66,4.79-1.55,7.04-5.02l.89.38c-.25.51-.47,1.44-.53,1.96-.08.08-.15.17-.23.26-1.03.8-3.58,1.81-3.63,2.25s1.1,1.67,1.1,1.67c-1.57,4.2,2.58,7.91,3.78,11.73.13.41.22.81.3,1.21,0,0-1.96-.29-2.06.48s1.01,7.77,1.01,7.77c0,0-.35.27,1.05.23.07.37.18.71.34,1.01ZM288.93,312.34c.53.07-1.15-4.93-.94-6.61s-1.75-1.2-3.28-.95c-1.5.53-5.05,1.26-5.17,2.19s2.98,7.03,3.9,7.15.34-.15,2.27-.93l1.93-.78s.75-.14,1.28-.07ZM286.3,300.29c2.05-.83-1.95-9.49-1.95-9.49,0,0-.82.88-2.19.98-1.36.11-3.99-.36-3.99-.36-.36,2.94-3.18,10.44-1.32,10.67,1.6.2,5.7-.71,6.77-.95.16-.03.26-.06.26-.06,0,0,.36.04,2.42-.79ZM280.18,316.39c.93-.73,2.31-1.24,1.76-1.96-.56-.72-3.88-6.78-5.36-6.26-1.47.52-6.8,6.14-6.79,7.6-.37,1.08.47,2.56,2.07,2.76,2.31.29,4.83,2.4,6.09,1.42s.34-2.08,2.25-3.57ZM274.04,300.71c1.2-2.12,2.88-9.29,2.88-9.29,0,0-4.73-1.9-4.61-2.89-.56-.73-8.63,4.29-7.45,5.81,1.18,1.51,1.54,1.83,1.54,1.83,3.1,3.98,6.44,6.65,7.64,4.55Z"/>
      <path class="cls-9" d="M304.08,210.37l.04.04c-1.23,1.39-1.81,3.42-3.66,6.39-.83,1.34-3.7,2.19-5.61,3.33l-.11-.18c1.53-.91,3.33-1.92,4.62-3.64,1.59-2.13,2.29-5.41,4.14-7.35.16.45.35.93.58,1.43Z"/>
      <path class="cls-1" d="M291.28,309.4c-.1,1.19-.18,2.26,0,3.16-1.4.04-1.05-.23-1.05-.23,0,0-1.11-7-1.01-7.77s2.06-.48,2.06-.48c.34,1.86.15,3.69.01,5.32Z"/>
      <path class="cls-3" d="M303.5,208.94c-1.86,1.95-2.55,5.23-4.14,7.35-1.29,1.72-3.09,2.73-4.62,3.64-1.23.73-2.28,1.41-2.73,2.34-2.66,5.51-2.07,8.29-.21,10.38-1.44.19-4.79.6-6.25.89-4.52.9-8.9,2.38-11.95,4.91-.11-1.69-.54-3.29-1.37-4.76-.78-1.4-9.61,7.16-12.51,12.17l-1.21-.51c.41-1.45,3.82-5.5,6.98-8.92,2.89-2.4,5.46-4.51,7.63-6.27,1.35-1.09,2.56-2.05,3.59-2.85,3.56-2.78,7.67-6.18,12.03-9.99h0c4.44-3.87,9.17-8.16,13.88-12.62,0,.76.15,2.24.87,4.25Z"/>
      <path class="cls-1" d="M287.99,305.73c-.21,1.68,1.47,6.68.94,6.61s-1.28.07-1.28.07l-1.93.78c-1.93.78-1.34,1.05-2.27.93s-4.01-6.22-3.9-7.15,3.66-1.66,5.17-2.19c1.52-.25,3.49-.74,3.28.95Z"/>
      <path class="cls-3" d="M287.92,246.47c-1.86.74-10.53.14-15.47-.47.2-.6.38-1.21.54-1.81h0c4.85,1.18,14.72,1.88,17.03.3,1.15-.78,5.84-5.11,7.87-6.85.27.25.53.51.79.79-3.19,2.48-6.49,8.3-7.14,12.63-.12.81-.25,1.59-.38,2.34-.34-.24-.73-.47-1.14-.7.69-3.48,1.32-6.48,1.32-6.48-1.18.85-3.6,2.71-6.22,4.78-.67.53-1.36,1.08-2.04,1.62-.05-.68-.24-1.13-.65-1.18-.67-.08-1.81-.32-3.07-.54.93-.1,1.76-.27,2.43-.55,2.73-1.11,5.92-3.7,6.12-3.87Z"/>
      <path class="cls-1" d="M290.85,284.63c.38.05,1.45.58,1.45.58-.96.46-1.68,1.02-2.34,1.75.06-.52.28-1.45.53-1.96.12-.23.24-.38.36-.36Z"/>
      <path class="cls-5" d="M292.31,275.39c-.35,4.28-1.4,7.2-2.72,9.23-2.25,3.47-5.3,4.36-7.04,5.02-3.81.99-9.94-.97-11.19-4.49h0c.98-.79,1.84-1.78,2.64-3.13,2.87-4.82-1.34-9.54-2.81-13.69-.29-.84-.53-1.65-.72-2.44,4.4-3.3,6.49-3.26,10.27-2.79s12.37,4.59,11.68,10.15c-.02.75-.06,1.46-.12,2.13Z"/>
      <path class="cls-1" d="M289.73,287.22c-.61.71-1.19,1.58-1.9,2.67-.27.42-.48.84-.63,1.25,0,0-1.16-1.24-1.1-1.67s2.61-1.45,3.63-2.25Z"/>
      <path class="cls-4" d="M291.76,260.53h0s-.86-1.09-.7-2.35c.05-.08.09-.16.13-.24.21.26.54,2.45.57,2.59Z"/>
      <path class="cls-1" d="M292.2,254.29c.43.55-.12,2.02-1.01,3.66-.06-.07-.1-.01-.13.24-1.54,2.74-3.94,5.83-4.3,5.78-.58-.07-2.52-1.49-4.14-1.69,0,0,.46-2.41,1.04-4.97.6-2.75,1.33-5.66,1.74-5.98.51-.4,2.8.37,4.64,1.36.41.22.8.46,1.14.7.44.31.81.62,1.03.91Z"/>
      <path class="cls-4" d="M297.89,237.63c-2.03,1.74-6.73,6.06-7.87,6.85-2.31,1.59-12.18.88-17.03-.3-1.79-.43-2.89-.93-2.69-1.39.72-1.71,1.86-3.13,3.31-4.33h0c3.05-2.54,7.43-4.02,11.95-4.91,1.46-.29,4.81-.7,6.25-.89,1.54,1.73,3.94,3.01,6.09,4.98Z"/>
      <path class="cls-1" d="M284.35,290.8s4,8.66,1.95,9.49c-2.06.84-2.42.79-2.42.79,0,0-.09.02-.26.06-1.07.25-5.17,1.15-6.77.95-1.86-.23.96-7.73,1.32-10.67,0,0,2.62.47,3.99.36,1.37-.1,2.19-.98,2.19-.98Z"/>
      <path class="cls-3" d="M279.11,333.28c-.64,5.13,4.01,7.56,3.86,8.72s-5.94,9.03-7.57,6.94c-1.63-2.09-3.15-7.27-3.15-7.27,2.22-2.19,4.92-3.46,5.56-5.37.4-1.18.75-2.25,1.04-3.22h0c.17.04.27.1.26.2Z"/>
      <path class="cls-4" d="M291.34,246.21s-.62,3-1.32,6.48c-1.84-1-4.12-1.76-4.64-1.36l-.27-.34c2.62-2.07,5.04-3.93,6.22-4.78Z"/>
      <path class="cls-1" d="M281.93,314.43c.56.72-.82,1.23-1.76,1.96-1.9,1.49-.99,2.58-2.25,3.57s-3.78-1.13-6.09-1.42c-1.59-.2-2.43-1.68-2.07-2.76,0-1.46,5.32-7.08,6.79-7.6,1.48-.52,4.81,5.54,5.36,6.26Z"/>
      <path class="cls-3" d="M279.46,323.87c.83.83,1.05,2.33.42,5.33-.33-1.86-.48-3.67-.42-5.33Z"/>
      <path class="cls-9" d="M248.59,349.01c-.59-.23-1.2-.39-1.81-.53-.69-.16-1.39-.28-2.08-.4-.39-.07-.77-.13-1.15-.2-2.02-.37-3.92-.88-5.38-2.46-.94-1.01-1.47-2.45-1.74-3.5-.23-.91-.14-1.8.1-2.74.16-.66.39-1.35.64-2.07.09-.26.18-.53.27-.81.45-1.35.87-2.84.93-4.58.05-1.52-2.93-4.84-2.8-6.23.02-.22.01-.54,0-.9-.1-1.61-.51-4.27-.26-5.16.29-1.04.69-1.71,1.2-2.28h0c.52-.57,1.16-1.03,1.91-1.68.22-.19.48-.34.75-.46,1.72-.73,4.28-.23,5.92-1.44.58-.43,1.13-.96,1.65-1.53,1.1-1.18,2.13-2.55,3.29-3.65.62-.6,1.28-1.13,2.01-1.51.23-.12.47-.22.73-.29,1.85-.58,4.29-.15,6.59.66,1.3.45,2.55,1.03,3.63,1.61,2.89,1.58,1.88,7.32,4.39,9.62,5.3,4.89,10.23,3.5,12.09,5.4-.06,1.65.09,3.47.42,5.33-.23,1.08-.57,2.37-1.03,3.89-.29.97-.64,2.04-1.04,3.22-.65,1.91-3.35,3.18-5.56,5.37-.69.68-1.34,1.46-1.86,2.37-1.88,3.3-1.39,9.18-4.8,11.34-.53.35-1.16.59-1.91.73-3.5.61-5.83-.17-8.69-1.79-1.11-.62-4.23-4.3-5.43-4.89-.32-.16-.64-.29-.97-.41ZM276.4,337.5c2.07-4.16,3.7-9.45,2.36-12.06-1.54-3-6.36-1.84-12.05-6.35-2.01-1.59-2.02-8.32-6.1-10.44-5.76-2.98-7.59-1.72-13.75,4.76-3.61,3.79-9.38,2.09-10.78,6.33-.48,1.45.17,3.73.21,6.12.01.78,2.71,4.96,2.71,5.65,0,7.57-3.31,8.89-.55,13.03,2.31,3.47,8.65,2.34,11.67,4.06,1.25.72,3.9,4.36,5,5.06,2.69,1.74,5.1,2.23,7.17,1.49,5.52-1.97,3.99-5.45,6.79-11.5,1-2.16,6.18-3.84,7.32-6.14Z"/>
      <path class="cls-3" d="M278.76,325.44c1.34,2.61-.29,7.9-2.36,12.06-1.14,2.3-6.32,3.98-7.32,6.14-2.8,6.05-1.27,9.53-6.79,11.5-2.07.74-4.48.25-7.17-1.49-1.09-.71-3.75-4.35-5-5.06-3.01-1.72-9.36-.58-11.67-4.06-2.76-4.14.54-5.46.55-13.03,0-.69-2.7-4.87-2.71-5.65-.05-2.39-.69-4.67-.21-6.12,1.4-4.24,7.17-2.54,10.78-6.33,6.16-6.48,7.99-7.74,13.75-4.76,4.08,2.12,4.09,8.85,6.1,10.44,5.69,4.52,10.52,3.36,12.05,6.35ZM266.25,338.96c.82-4.11,3.33-12.2-.76-15.53-1.64-1.34-4.18-2.35-4.18-2.35-6.05-2.89-16.11-4.53-17.73,3.57-1.63,8.1,2.08,20.13,7.69,20.14,5.62,0,14.15-1.73,14.97-5.83Z"/>
      <path class="cls-4" d="M287.92,246.47c-.2.16-3.39,2.76-6.12,3.87-.67.28-1.51.45-2.43.55-2.59-.45-5.66-.84-6.06.31-.99.05-1.94.13-2.79.29-.15.02-.29.06-.44.09-3.46.78-5.8,1.23-6.33-.07-.53-1.3,3.9-6.69,5.35-6.08.37.16,1.64.37,3.35.58,4.94.61,13.61,1.22,15.47.47Z"/>
      <path class="cls-4" d="M285.12,250.99l.27.34c-.4.32-1.13,3.23-1.74,5.98h0s-1.25-.16-1.25-.16c.44-1.68.76-3.42.68-4.54.68-.55,1.37-1.09,2.04-1.62Z"/>
      <path class="cls-1" d="M279.36,250.88c1.26.22,2.4.46,3.07.54.4.05.6.5.65,1.18.08,1.11-.24,2.86-.68,4.54-.69,2.63-1.69,5.1-1.97,4.74-.56-.72-3.01-.37-4.97.21,0,0-1.66-5.97-2.1-9.17-.1-.68-.14-1.24-.1-1.58,0-.06.02-.11.04-.16.4-1.15,3.47-.76,6.06-.31Z"/>
      <path class="cls-4" d="M264.35,374.94c3.18,2.33,3.4,4.37,3.15,6.33s-4.42,16.64-4.94,14.22c-.52-2.42-7.19-7.48-7.19-7.48,0,0,.27-2.5-.02-3.65-.15-.59-.32-1.4-.51-2.35-1.02-5.12-2.48-14.43-2.8-17.35,0,0,5.57,4.86,9.53,8.1,1.11.91,2.09,1.69,2.79,2.2Z"/>
      <path class="cls-4" d="M265.59,355.39c2.41,3.1,2.56,19.52,1.81,20.1-.47.37-1.88-.91-4.42-3.14-1.69-1.48-3.88-3.39-6.63-5.52-6.87-5.33-6.75-12.98-7.76-17.81.33.12.65.26.97.41,1.19.59,4.32,4.27,5.43,4.89,2.85,1.62,5.19,2.4,8.69,1.79.75-.13,1.38-.38,1.91-.73h0Z"/>
      <path class="cls-1" d="M276.92,291.42s-1.68,7.17-2.88,9.29c-1.21,2.11-4.55-.56-7.64-4.55,0,0-.36-.31-1.54-1.83-1.18-1.52,6.89-6.54,7.45-5.81-.12.99,4.61,2.89,4.61,2.89Z"/>
      <path class="cls-5" d="M265.5,236.43c-.18.15-.35.3-.54.45,7.69-7.79,14.19-16.85,19.98-26.65-.73,3.81-2.11,9.61-2.54,10.53-.52,1.09-9.71,8.36-9.4,9.25l.13.16c-2.18,1.76-4.74,3.87-7.63,6.27Z"/>
      <path class="cls-4" d="M258.6,410.41c.07.03.11.06.13.08-.14-.02-2.62-1.26-2.42-4.9.23-4.2-.36-5.63-.49-7.41-.13-1.78-.12-8.49-.12-8.49,1.5,1.19,5.6,5.17,5.35,7.19s-3.28,13.14-2.44,13.53Z"/>
      <path class="cls-6" d="M262.98,372.35l-1.41.39c-3.95-3.24-9.53-8.1-9.53-8.1.33,2.92,1.79,12.23,2.8,17.35h-1.21c-.48-2.76-1.31-3.1-1.8-4.37l-.23-.03s0,0,0,.01l-1.21-.46c.3-.77.52-1.5.6-2.16.37-3.01-.4-7.23-.4-7.23l-1.28-.29c.41-1.03.63-1.9.57-2.51-.35-3.74-3.01-16.09-3.09-16.48.61.14,1.21.3,1.81.53,1.01,4.83.89,12.49,7.76,17.81,2.75,2.13,4.93,4.04,6.63,5.52Z"/>
      <path class="cls-9" d="M271.2,268.33c1.47,4.15,5.68,8.87,2.81,13.69-.8,1.35-1.66,2.34-2.64,3.12h0c-.55.44-1.12.82-1.76,1.15-.8.43-1.66.79-2.63,1.14-1.06.38-4.98.41-6.71.77-.22.05-.4.1-.54.16-1.34.56-2.47,1.4-3.54,2.28-2.01,1.63-3.82,3.38-6.35,3.69-.19.03-.37.04-.57.05-.37.01-.75-.01-1.12-.08-1-.16-1.96-.54-2.66-.89-1.1-.54-1.83-1.5-2.54-2.64-.55-.89-1.09-1.89-1.77-2.91-.58-.86-1.27-1.74-2.16-2.57-.39-.36-1.17-.58-2.08-.76-.68-.13-1.42-.25-2.11-.37-1.06-.19-1.98-.42-2.37-.81-.84-.87-1.6-1.78-2.23-2.72-.57-.86-.82-1.57-.92-2.28-.11-.81-.05-1.62-.05-2.68,0-2.13,2.74-3.92,2.91-6.3.1-1.42-.15-2.96-.39-4.5.37-.31.74-.63,1.11-.94.06,1.16.18,2.49.33,4,.52,5.2-4.54,8.47-2.24,12.29.79,1.31.39,1.28,2.22,2.81.61.5,5.53,1.17,6.06,1.63,5.73,4.94,4.57,8.3,9.52,8.92,4.14.51,7.41-5.04,10.68-6.2,1.35-.48,5.85-.12,7.1-.49,3.07-.9,5.01-2.4,5.8-4.46,2.11-5.47.44-7.31-2.33-13.38-.98-2.16-.84-6.46-1.84-8.82-1.8-4.28-4.87-6.33-7.73-7.02-3.27-.79-5.05-.92-12.18.44-1.01.2-2.07.08-3.26-.02.33-.28.66-.56.99-.83.73.05,1.47.05,2.24-.03,2.81-.32,5.7-.65,8.52-.44.68.05,1.36.13,2.02.26,1.96.35,3.86,1.04,5.65,2.24,1.32.88,2.57,2.04,3.75,3.56,1.12,1.44,1.41,3.65,1.97,6.24.09.41.18.83.29,1.26.19.79.43,1.61.72,2.44Z"/>
      <path class="cls-9" d="M265.5,323.43c4.09,3.33,1.58,11.42.76,15.53-.82,4.1-9.36,5.83-14.97,5.83-5.61,0-9.32-12.05-7.69-20.14,1.62-8.1,11.68-6.46,17.73-3.57,0,0,2.54,1,4.18,2.35ZM264.37,340.17c.41-2.06,3.29-9.39,2.54-12.34-.35-1.38-1.75-4-4.35-5.19-2.85-1.3-12.41-6.14-15.95-1.89s-1.97,18.95,1.52,21.75c3.49,2.8,15.83-.26,16.24-2.32Z"/>
      <path class="cls-1" d="M266.91,327.83c.76,2.95-2.12,10.28-2.54,12.34-.41,2.06-12.76,5.12-16.24,2.32-3.49-2.8-5.05-17.5-1.52-21.75s13.1.59,15.95,1.89c2.6,1.19,4,3.81,4.35,5.19ZM258.35,333.82c.1-.54.31-.82-.33-1.65-1.88-2.46-2.9-1.79-3.98-1.08-1.08.72-.97,2.98-.68,3.41.29.43,2.08,1.25,2.61.9.54-.36,2.26-1.04,2.37-1.58Z"/>
      <path class="cls-3" d="M270.04,269.06c2.76,6.07,4.44,7.91,2.33,13.38-.79,2.05-2.73,3.56-5.8,4.46-1.25.37-5.75.01-7.1.49-3.27,1.16-6.55,6.71-10.68,6.2-4.94-.61-3.79-3.98-9.52-8.92-.53-.46-5.45-1.13-6.06-1.63-1.83-1.53-1.44-1.5-2.22-2.81-2.29-3.83,2.76-7.09,2.24-12.29-.15-1.51-.27-2.84-.33-4,.11-.09.21-.18.31-.27,4.07-3.45,8.03-6.82,11.84-10.04,1.19.1,2.25.22,3.26.02,7.13-1.36,8.91-1.23,12.18-.44,2.85.69,5.93,2.74,7.73,7.02,1,2.36.86,6.66,1.84,8.82ZM257.35,284.03c3.66-4.25,9.88-12.58,7.3-15.88-2.58-3.31-6.97-10.44-12.16-9.51-2.09.37-6.57,2.32-6.57,2.32-6.14,2.7-11.4,10.28-6.31,16.79,5.07,6.51,14.07,10.53,17.74,6.28Z"/>
      <path class="cls-1" d="M270.29,287.04c.44.57-6.1,5.1-7.13,4.98s-3.01-2.82-2.89-3.81c1.73-.36,5.65-.38,6.71-.77.96-.35,1.83-.71,2.63-1.14l.03.08c-.03.28.42.38.65.66Z"/>
      <path class="cls-1" d="M273.72,261.88l-3.53,2.75c-.56-2.59-.85-4.8-1.97-6.24-1.18-1.51-2.44-2.67-3.75-3.56,2.05-1.54,4.52-3.03,6.06-3.26.22-.03.42-.04.59-.02.57.07,1.02.63,1.36,1.46,1.21,2.85,1.24,8.87,1.24,8.87Z"/>
      <path class="cls-4" d="M273.36,252.93c-.29.03-.58.06-.88.08-.34-.82-.79-1.38-1.36-1.46-.17-.02-.38-.02-.59.02v-.09c.84-.16,1.79-.24,2.78-.29-.02.05-.04.1-.04.16-.04.34,0,.9.1,1.58Z"/>
      <path class="cls-4" d="M254.78,400.88c.43,2.23-.06,4.02-.41,4.3-.36.28-6.38-5.97-6.93-8.22-.54-2.24-1.41-6.64.51-10.7,1.86-3.93,3.55-8.38,3.65-8.65,0,0,0-.01,0-.01l.23.03c.49,1.27,1.32,1.62,1.8,4.39.22,1.26.37,3.02.38,5.59.03,8.24.34,11.05.76,13.28Z"/>
      <path class="cls-4" d="M272.98,244.18h0c-.16.61-.33,1.21-.54,1.82-1.72-.21-2.98-.42-3.35-.58-1.45-.61-5.88,4.78-5.35,6.08.53,1.3,2.86.86,6.33.07.14-.03.29-.06.44-.09v.09c-1.52.23-3.99,1.72-6.04,3.26-1.8-1.2-3.7-1.89-5.65-2.24-.05-1.8-.07-3.37,0-4.37.03-.61.37-1.42.91-2.36,2.9-5.01,11.73-13.57,12.51-12.17.82,1.47,1.25,3.07,1.37,4.76h0c-1.45,1.2-2.59,2.62-3.31,4.33-.2.47.9.97,2.69,1.39Z"/>
      <path class="cls-3" d="M258.03,332.17c.63.83.43,1.11.33,1.65-.11.54-1.83,1.22-2.37,1.58-.54.35-2.33-.47-2.61-.9-.29-.43-.39-2.69.68-3.41,1.08-.71,2.1-1.39,3.98,1.08Z"/>
      <path class="cls-9" d="M264.66,268.15c2.57,3.29-3.64,11.63-7.3,15.88-3.67,4.25-12.67.23-17.74-6.28-5.08-6.51.18-14.1,6.31-16.79,0,0,4.48-1.95,6.57-2.32,5.19-.92,9.58,6.21,12.16,9.51ZM253.55,284.93c4.4-.82,12.09-12.9,10.79-14.56s-7.89-10.36-9.88-10.61c-1.42-.18-4.38-.41-6.54,1.27-2.47,1.93-10.2,6.42-9.29,11.88.91,5.45,10.52,12.83,14.92,12.01Z"/>
      <path class="cls-1" d="M264.34,270.37c1.29,1.66-6.39,13.74-10.79,14.56-4.4.81-14.01-6.56-14.92-12.01-.91-5.45,6.82-9.95,9.29-11.88,2.16-1.68,5.12-1.45,6.54-1.27,1.99.25,8.59,8.95,9.88,10.61ZM253.3,274.34c.08-.64.69-2.39.35-2.82s-.41-.77-1.46-.83c-3.1-.18-3.26,1.03-3.41,2.31s1.63,2.68,2.14,2.74,2.31-.76,2.39-1.4Z"/>
      <path class="cls-1" d="M252.75,306.55c-.26,0-2.66.02-2.13-.97.55-1.04.11-2.82.31-4.44,0,0,8.93-.98,9.42-.12.98,1.72.83,6.06-1.01,6.2-2.3-.81-4.74-1.24-6.59-.66v-.03Z"/>
      <path class="cls-1" d="M260.17,298.81c.17,1.78-9.63.42-9.19.08.43-.34-.44-3.66-1.14-4.56,2.54-.31,4.35-2.06,6.35-3.69,3.45.43,3.81,6.39,3.98,8.17Z"/>
      <path class="cls-4" d="M250.99,374.99c-.08.66-.3,1.38-.6,2.16-1.09,2.74-3.25,6.02-4.03,8.68-1.01,3.4-1.77,5.66-3.16,5.49s-3.93-6.67-2.69-7.63c1.24-.97,9.76-13.26,10.09-15.93,0,0,.78,4.22.4,7.23Z"/>
      <path class="cls-4" d="M249.88,364.96c.06.61-.16,1.48-.57,2.51-2.13,5.41-9.55,15.15-10.53,13.89-3.56-4.57-2.72-11.38-.62-17.83,2.09-6.45,5.12-12.31,6.55-15.44.69.12,1.39.24,2.08.4.08.39,2.74,12.73,3.09,16.48Z"/>
      <path class="cls-4" d="M264.96,236.88c.18-.15.36-.3.54-.45-3.16,3.42-6.57,7.47-6.98,8.92,0,0-.03-1.08.04-2.52,2.22-1.89,4.36-3.87,6.41-5.95Z"/>
      <path class="cls-3" d="M252.75,306.55v.03c-.24.08-.49.18-.72.29-.73.38-1.39.91-2.01,1.51h0s-.31-.9-.36-.47-3.06,3.25-3.39,3.52c-.34.26.47.6.47.6-.52.57-1.07,1.09-1.65,1.53,0,0,.24-1.4-.68-.68s-5.2,1.75-5.24,2.12c-.28.11-.53.26-.75.46-.75.65-1.39,1.11-1.91,1.68.08-.22.82-2.28-.15-1.93-1.02.36-4.75-.39-4.99-1.11-.39-1.15-6.06,8.64-3.44,9.58,2.67.96,5.72,1.6,7.63.9.02.37.03.68,0,.9-.13,1.39,2.85,4.71,2.8,6.23-.06,1.74-.48,3.23-.93,4.58-2.57-.95-9.13-1.42-16.43-.51l.15-1.37c-.68-.86-1.57-2.86-2.4-3.08-1.64-.45-7.95-.33-11,.98-.03.01-.06.03-.08.05l-.75-1.05s5.36-2.09,8.84-1.66.29-5.94-11.05-10.86c.15-.16.28-.33.39-.52,1-1.72,1.79-2.6,1.64-4.78-.07-1.12-1.96-4.46-2.25-5.63-.34-1.35-4.24-3.51-4.69-4.97-.51-1.62-.61-3.12-.63-4.51,2.12-.46,8.23-2.19,10.34-4.15h0c-.11,2.6.24,7.34,1.22,8.61,1.32,1.69,10.54-1.46,10.14-1.99-.41-.52.4-5.39,1.15-5.97,0,0-6.53-3.08-10.18-3.04,1.46-1.65,2.82-3.45,3.99-5.19,1.45,2.4,7.59,5.42,7.59,5.42l1.51.87c-2.18,3.53-2.41,8.29-.4,10.88,3.92,5.04,5.81,10.02,12.14,9.1s8.23-3.02,10.87-5.07c1.36-1.06,2.02-1.77,2.32-2.47l.77.19c-.53.99,1.87.97,2.13.97ZM224.13,322.38c2.16.27,5.29-8.89,4.14-9.37-1.68-.73-2.69-2.31-2.69-2.69.04-1.7-7.94,6.23-8.1,7.48s4.48,4.32,6.65,4.59ZM215.38,314.39c2.4.93,9.19-5.76,8.38-6.81-.82-1.04-1.93-2.3-2.19-3.88-.24-1.47-8.86,3.14-10.25,4.22-1.39,1.08,1.67,5.54,4.06,6.47Z"/>
      <path class="cls-3" d="M258.52,245.35l1.21.51c-.54.94-.88,1.76-.91,2.36-.06.99-.04,2.57,0,4.37-.67-.13-1.34-.2-2.02-.26-.59-1.89-1.53-3.81-3.05-5.7.31-.22.62-.45.93-.7,1.17,1.36,1.95,2.29,1.95,2.29.03-.84.05-2.21.05-3.85.64-.51,1.26-1.02,1.88-1.54-.07,1.44-.04,2.52-.04,2.52Z"/>
      <path class="cls-4" d="M258.59,242.21c2.25-1.89,4.39-3.67,6.37-5.33-2.05,2.08-4.19,4.07-6.41,5.95,0-.2.02-.41.03-.62Z"/>
      <path class="cls-3" d="M258.59,242.21c-.01.22-.03.42-.03.62-.62.52-1.24,1.03-1.88,1.54,0-.18,0-.37,0-.55.64-.55,1.28-1.08,1.91-1.61Z"/>
      <path class="cls-1" d="M250.02,308.37h0c-1.16,1.11-2.19,2.48-3.29,3.66,0,0-.8-.34-.47-.6.33-.26,3.34-3.09,3.39-3.52s.36.46.36.46Z"/>
      <path class="cls-5" d="M249.9,301.89c.12,1.68.34,2.6-.05,3.51-.3.71-.96,1.41-2.32,2.47-2.63,2.05-4.53,4.15-10.87,5.07s-8.22-4.06-12.14-9.1c-2.01-2.59-1.78-7.35.4-10.88.83-1.35,1.95-2.51,3.33-3.31.6-.35,1.27-.63,1.97-.82,1.69-.46,3.66-.42,5.89.32,2.11.82,4.51,1.09,6.72,1.71l.11-.07c.71,1.14,1.44,2.1,2.54,2.64.71.35,1.67.72,2.66.89,1.09,1.64,1.75,4.02,1.75,7.59Z"/>
      <path class="cls-3" d="M253.65,271.52c.34.43-.27,2.18-.35,2.82s-1.87,1.46-2.39,1.4-2.29-1.46-2.14-2.74.32-2.5,3.41-2.31c1.05.06,1.12.4,1.46.83Z"/>
      <path class="cls-5" d="M256.67,244.37c0,1.65-.02,3.02-.05,3.85,0,0-.79-.93-1.95-2.29.68-.51,1.35-1.03,2-1.56Z"/>
      <path class="cls-4" d="M256.68,243.82c0,.19,0,.37,0,.55-.66.53-1.33,1.05-2,1.56-.07-.08-.14-.16-.21-.25.75-.63,1.48-1.25,2.22-1.86Z"/>
      <path class="cls-9" d="M236.17,411.55c-.82,3.04-2.27,7.51-3.93,8.08-.68-.35-.27-6.73-.09-9.17,1.33.35,2.68.72,4.02,1.09Z"/>
      <path class="cls-4" d="M238.17,345.42c1.46,1.58,3.36,2.09,5.38,2.46,0,0-10.63,13.75-20.11,20.13.21-2.17-.83-7.66-1.82-10.51-.47-1.36-3.39-6.5-2-7.58,2.76-2.15,11.19-6.29,16.9-10.74h0c-.24.94-.33,1.84-.1,2.74.27,1.05.81,2.49,1.74,3.5Z"/>
      <path class="cls-4" d="M253.74,246.63c1.52,1.89,2.46,3.81,3.05,5.7-2.82-.22-5.71.11-8.52.44-.76.09-1.5.08-2.24.03,1.74-1.47,3.44-2.91,5.09-4.31h.01c.89-.6,1.75-1.22,2.61-1.86Z"/>
      <path class="cls-3" d="M254.46,245.68c.07.09.14.18.21.25-.31.24-.62.47-.93.7-.05-.07-.11-.13-.16-.2.29-.25.59-.5.88-.74Z"/>
      <path class="cls-4" d="M253.58,246.43c.06.07.11.14.16.2-.86.64-1.72,1.26-2.61,1.85.82-.7,1.63-1.38,2.44-2.06Z"/>
      <path class="cls-1" d="M244.4,312.88c.92-.72.68.68.68.68-1.64,1.22-4.2.72-5.92,1.44.05-.37,4.33-1.41,5.24-2.12Z"/>
      <path class="cls-9" d="M230.89,410.13c-.11,4.83.11,10.95-1.18,17.25-1.89,9.31-4.8,19.28-7.41,27.16-.02.04-.03.08-.04.11-.63,1.81-1.22,3.57-1.8,5.27-.02.05-.04.1-.06.15-2.35,6.6-4.08,10.51-3.9,9.09.53-4.25-11.44-14.67-19.01-19.45-7.57-4.78-26.43-3.28-31.6-3.92-2.68-.33-3.99,1.13-5.07,1.63-.34.16-.67.22-.94.18-.54-.07-.88-.49-.75-1.16,1.26-6.02,33.34-38.56,33.34-38.56l-1.39-.17-6.09,4.74s2.46-3.78,6.62-11.11c12.17,2.14,25.41,5.11,39.25,8.78Z"/>
      <path class="cls-4" d="M237.43,336.3c-.09.28-.18.55-.27.81,0,0-12.73,6.81-18.63,11.41-6.82,5.32-13.3-2.8-19.9-3.61h0c.72-.72,1.51-1.38,2.33-2,1.45-1.08,3.04-2.03,4.73-2.85.45-.21.9-.42,1.36-.62.74-.32,1.48-.62,2.24-.9.5-.18,1.01-.36,1.52-.52,3.35-1.08,6.84-1.8,10.19-2.22,7.3-.92,13.86-.45,16.43.51Z"/>
      <path class="cls-3" d="M242.94,290.77l-.11.07c-2.21-.62-4.61-.89-6.72-1.71-2.23-.74-4.2-.78-5.89-.32l-.1-.4s3.84-1.5,4.56-.58l.15-3.68c.69.12,1.43.24,2.11.37l-.48,3.9s1.13-.09,2.2.27c.67.22,1.29.94,1.73.99s.78-1.85.78-1.85c.68,1.02,1.22,2.02,1.77,2.91Z"/>
      <path class="cls-9" d="M220.47,459.93c.58-1.7,1.17-3.46,1.8-5.27-.62,1.89-1.23,3.66-1.8,5.27Z"/>
      <path class="cls-1" d="M241.17,287.86s-.33,1.9-.78,1.85-1.06-.77-1.73-.99c-1.08-.37-2.2-.27-2.2-.27l.48-3.9c.9.18,1.69.4,2.08.76.89.82,1.58,1.7,2.16,2.57Z"/>
      <path class="cls-3" d="M244.95,253.63s.07,0,.1,0c-3.8,3.22-7.77,6.58-11.84,10.04l11.74-10.04Z"/>
      <path class="cls-1" d="M236.35,315.2c.98-.34.23,1.72.15,1.93h0c-.51.58-.92,1.25-1.2,2.29-.24.89.16,3.55.26,5.16-1.92.7-4.96.06-7.63-.9-2.62-.95,3.04-10.74,3.44-9.58.24.71,3.97,1.47,4.99,1.11Z"/>
      <path class="cls-5" d="M207.22,458.9c-3.47-2.92-7.49-5.08-10.76-7.12-5.02-3.14-7.68-3.25-11.35-3.44-.79-.04-1.63-.08-2.55-.16-8.37-.72-16.55-.88-17.69-1.23s-3.69.97-3.69.97l-.34-.49c1.08-.51,2.38-1.97,5.07-1.63,5.18.64,24.04-.86,31.6,3.92,7.57,4.78,19.53,15.21,19.01,19.45-.18,1.42,1.55-2.48,3.9-9.09-2.35,6.92-4.36,12.59-6.98,14.49,1.21-.92,1.81-2.67.78-5.85-1.35-4.15-3.96-7.28-6.99-9.82Z"/>
      <path class="cls-9" d="M214.22,468.72c1.03,3.18.43,4.92-.78,5.85-.13.1-.27.19-.42.27-.07.04-.14.08-.22.11-.08.04-.17.08-.26.12-1.96.73-4.58.39-7.14-.32-.05-.01-.09-.03-.15-.04-2.34-.67-4.6-1.63-6.21-2.35,3.14-5.49,6.7-11.28,8.19-13.46,3.03,2.55,5.65,5.68,6.99,9.82Z"/>
      <path class="cls-10" d="M213.02,474.84c.14-.09.28-.17.42-.27-.14.11-.27.2-.42.27Z"/>
      <path class="cls-10" d="M212.8,474.96c.08-.03.15-.07.22-.11-.07.05-.14.09-.22.11Z"/>
      <path class="cls-1" d="M234.83,284.17l-.15,3.68c-.72-.92-4.56.58-4.56.58,0,0-2.9-4.93-3.99-7.54-.77-1.83,1-2.33,3.18-2.53.1.71.35,1.42.92,2.28.63.94,1.39,1.85,2.23,2.72.38.4,1.31.62,2.37.81Z"/>
      <path class="cls-1" d="M228.27,313.01c1.15.48-1.98,9.64-4.14,9.37s-6.8-3.35-6.65-4.59,8.14-9.17,8.1-7.48c0,.38,1.01,1.97,2.69,2.69Z"/>
      <path class="cls-3" d="M230.12,288.42l.1.4c-.71.19-1.37.47-1.97.82l-1.66-.55c.27-.11.5-.16.66-.14.85.11-2.64-8.13-4.97-9.24-.77-.37-1.84-.06-2.9.61.78-1.89.71-2.81-.55-1.82-1.71,1.33-3.73,1.93-5.69,2.23,1.42-1.2,2.84-2.41,4.25-3.61,2.2-.8,3.95-1.8,4.07-2.76.03-.25.06-.51.08-.76,3.45-2.93,6.88-5.85,10.25-8.71.24,1.54.5,3.08.39,4.5-.17,2.37-2.91,4.17-2.91,6.3,0,1.05-.07,1.87.05,2.68-2.18.2-3.95.7-3.18,2.53,1.09,2.6,3.99,7.54,3.99,7.54Z"/>
      <path class="cls-3" d="M226.59,289.1l1.66.55c-1.39.8-2.5,1.96-3.33,3.31l-1.51-.87c.12-1,2.03-2.52,3.18-2.99Z"/>
      <path class="cls-9" d="M125.83,492.14c-.49-2.21.36-2.75,2.87-3.96,6.5-3.13,8.06,1.32,15.34,1.21l2.87-.41c9.26-2.68,25.76-8.41,28.15-11.52h0c2.78-4.49,4.87-9.65,6.41-14.36,2.61-7.99,3.63-14.7,3.63-14.7v-.07c3.67.19,6.33.3,11.35,3.44,3.27,2.04,7.28,4.2,10.76,7.12-1.49,2.18-5.04,7.97-8.19,13.46-2.32,4.05-4.42,7.94-5.29,10.07,0,.01-.01.02-.02.03-1.79,4.56-3.36,9.28-4.39,13.74-.17,9.98.3,19.93-3.2,20.11-12.67.67-11.32-5.17-26.61-8.48-15.28-3.31-32-8.99-33.63-15.39-.03-.11-.05-.22-.08-.32Z"/>
      <path class="cls-1" d="M219.37,280.32c1.06-.67,2.14-.98,2.9-.61,2.34,1.11,5.83,9.35,4.97,9.24-.16-.02-.39.04-.66.14-1.16.47-3.06,1.99-3.18,2.99,0,0-6.14-3.02-7.59-5.42-.1-.17-.18-.33-.23-.49-.53-1.65,1.61-4.49,3.78-5.85Z"/>
      <path class="cls-4" d="M221.15,334.42l-.15,1.37c-3.34.42-6.84,1.13-10.19,2.22l-.25-.75s-1.23-1.38-2.12-2.7c-.66-.97-1.14-1.9-.76-2.19.02-.02.05-.04.08-.05,3.05-1.31,9.36-1.43,11-.98.84.22,1.72,2.22,2.4,3.08Z"/>
      <path class="cls-4" d="M220.92,368.43c-.25,2.01-9.45,4.72-12.85,4.3s1.76-7.23,2.86-9.77c1.1-2.53,6.06-8.41,6.4-11.13.29-2.32,3.84,14.6,3.59,16.6Z"/>
      <path class="cls-1" d="M223.76,307.59c.81,1.05-5.98,7.74-8.38,6.81-2.39-.93-5.45-5.39-4.06-6.47,1.39-1.08,10.01-5.69,10.25-4.22.26,1.58,1.37,2.84,2.19,3.88Z"/>
      <path class="cls-4" d="M214.9,352.46s-.89.83-1.04,2.07-18.46-1.11-21.71-2.06c-3.26-.95,4.51-4.77,4.61-5.55s.78.1,2.01.25,10.9,5.75,16.13,5.3Z"/>
      <path class="cls-1" d="M220.87,300.87c.4.53-8.81,3.67-10.14,1.99-.98-1.27-1.33-6.01-1.22-8.61.04-.89.13-1.53.26-1.69.41-.49,1.15-.69,2.06-.7,3.66-.04,10.18,3.04,10.18,3.04-.75.58-1.55,5.45-1.15,5.97Z"/>
      <path class="cls-4" d="M204.71,318.8c11.35,4.91,14.54,11.29,11.05,10.86s-8.84,1.66-8.84,1.66c0,0-3.79-4.87-7.19-9.23l-.11-.09c1.29-1.54,3.83-1.9,5.08-3.21Z"/>
      <path class="cls-4" d="M221.53,273.59c-.03.25-.05.51-.08.76-.12.96-1.88,1.96-4.07,2.76,1.39-1.18,2.77-2.35,4.16-3.52Z"/>
      <path class="cls-4" d="M218.82,278.49c1.27-.99,1.33-.07.55,1.82-2.17,1.36-4.31,4.21-3.78,5.85.05.16.13.32.23.49-1.16,1.75-2.52,3.54-3.99,5.19-.91,0-1.65.21-2.06.7-.14.17-.23.8-.26,1.69h0c-2.11,1.96-8.22,3.69-10.34,4.15-.04-2.06.09-3.84-.65-5.31,4.77-4.03,9.68-8.18,14.6-12.36,1.96-.3,3.98-.9,5.69-2.23Z"/>
      <path class="cls-3" d="M210.56,337.26l.25.75c-.51.17-1.02.34-1.52.52-.93-1.18-2.33-2.98-2.33-2.98l1.48-.99c.89,1.31,2.12,2.7,2.12,2.7Z"/>
      <path class="cls-5" d="M187.86,517.95c.28.36-3.03,9.17-3.03,9.17-10.25,1.65-23.11-7.26-23.11-7.26l1.51-5.02s-5.36-2.38-10.87-2.82c-15.04-1.18-21.54-5.38-26.22-8.9-2.32-1.74-2.97-4.2-2.97-4.2l1.95-6.37.72-.42c.02.1.05.21.08.32,1.63,6.4,18.35,12.08,33.63,15.39,15.28,3.3,13.93,9.14,26.61,8.48l1.08.27c-.09.06-.21.29.63,1.36Z"/>
      <path class="cls-4" d="M206.53,363.04s-2.26,6.78-3.7,9.58c-1.45,2.81-13.57-.74-16.5-1.1s17.24-6.18,20.2-8.48Z"/>
      <path class="cls-3" d="M208.44,334.56l-1.48.99s-1.12,2.33.09,3.88c-.46.19-.91.41-1.36.62l-.12-.36c.14-1.16-1.04-3.01-.14-6.51.24-.92-3.21-4.12-7.02-9.02.3-.68.63-1.32,1.02-1.89.07-.1.13-.18.2-.27l.11.09c3.4,4.35,7.19,9.23,7.19,9.23l.75,1.05c-.37.29.1,1.22.76,2.19Z"/>
      <path class="cls-4" d="M206.96,335.55s1.4,1.8,2.33,2.98c-.76.28-1.5.58-2.24.9-1.22-1.55-.09-3.88-.09-3.88Z"/>
      <path class="cls-4" d="M205.58,339.69l.12.36c-1.69.82-3.28,1.77-4.73,2.85l-.04-.05c-4-2.16-3.85-3.63-4.54-13.9.78-1.49,1.33-3.23,2.03-4.78,3.81,4.89,7.26,8.09,7.02,9.02-.89,3.5.29,5.34.14,6.51Z"/>
      <path class="cls-9" d="M196.38,328.95c-.37.71-.8,1.36-1.33,1.92-2.19,2.33-6.67,2.42-10.32,1.82-3.25-.54-5.4-5.48-9.25-6.27-1.51-.3-2.99-.76-4.41-1.38-2.09-.92-4.02-2.19-5.63-3.88-.11-.12-.23-.24-.34-.37.17-.14.34-.27.52-.42,2.17,2.01,3.89,3.03,10.27,5.26,2.42.85,5.92,5.74,10.47,6.39,6.42.92,7.72-.88,11.41-9.02,2.16-4.77,8.17-5.06,8.1-9.52-.02-1.53-1.38-3.47-2.21-5.71-.27-.74-4.2-3.78-4.42-4.44-1.66-4.79-1.01-7.42-1.59-9.53.28-.24.56-.47.84-.71.74,1.47.61,3.25.65,5.31.02,1.39.12,2.89.63,4.51.45,1.45,4.36,3.61,4.69,4.97.29,1.18,2.18,4.51,2.25,5.63.14,2.18-.64,3.05-1.64,4.78-.11.19-.24.36-.39.52-1.25,1.31-3.79,1.67-5.08,3.21-.07.08-.14.17-.2.27-.39.57-.72,1.22-1.02,1.89-.7,1.55-1.24,3.29-2.03,4.78Z"/>
      <path class="cls-3" d="M205.89,313.48c.07,4.46-5.94,4.75-8.1,9.52-3.69,8.14-4.99,9.94-11.41,9.02-4.56-.65-8.05-5.54-10.47-6.39-6.39-2.23-8.1-3.25-10.27-5.26,1.77-1.43,3.67-2.96,5.65-4.58.79,1.59,1.89,2.85,3.48,3.43,2,.72,6.85,1.28,6.85,1.28,3.96.44,9.1,0,12.39-2.15,2.25-1.46,3.63-3.73,3.17-7.06-.58-4.23-2.85-8.99-5.65-12.33,2.01-1.7,4.07-3.42,6.15-5.17.58,2.11-.08,4.74,1.59,9.53.22.66,4.15,3.7,4.42,4.44.83,2.24,2.18,4.18,2.21,5.71Z"/>
      <path class="cls-5" d="M191.11,407.72l1.39.17s-32.08,32.54-33.34,38.56c-.14.67.21,1.09.75,1.16l-1.59-.12c-8.47-2.18-40.15-5.5-65.46-5.38-10.84.06-17.35-2.09-21.23-4.85-2.36-2.3-11.31-13.47,8.25-21.55,19.57-8.08,24.07-13.04,62.31-17.72,12.22-1.5,29.39-.19,49.45,3.35-4.15,7.33-6.62,11.11-6.62,11.11l6.09-4.74Z"/>
      <path class="cls-4" d="M210.32,357.86c-2.29,4.42-26,10.9-26,10.9,0,0-4.03-4.74,7.05-13.38.68-.53,18.95,2.48,18.95,2.48Z"/>
      <path class="cls-9" d="M185.11,448.33v.07s-1.02,6.71-3.63,14.7l-.33-.11c-2.72-1.06-10.33-5.68-13.28-8.13-2.95-2.45-5.83-5.43-7.03-7.43l.34.49s2.55-1.33,3.69-.97,9.33.51,17.69,1.23c.92.08,1.76.13,2.55.16Z"/>
      <path class="cls-9" d="M197.18,311.3c.46,3.33-.93,5.59-3.17,7.06l-.3-.16c.87-.52,1.54-1.24,1.9-2.21,1.4-3.73-1.48-11.71-4.78-16.43.22-.19.46-.39.69-.58,2.8,3.35,5.07,8.1,5.65,12.33Z"/>
      <path class="cls-1" d="M190.84,299.55c3.3,4.73,6.17,12.7,4.78,16.43-.36.97-1.03,1.69-1.9,2.21-3.77,2.25-11.26.9-13.78,1.25-2.72.38-5.17-1.32-6.3-2.18-.41-.31-.99-1.18-1.15-2.46,2.49-2.04,5.13-4.23,7.89-6.52.1.2.3.41.69.67,2.59,1.71,2.56.64,3.34-.38.78-1.03.71-3.03.3-3.35-.08-.07-.24-.13-.44-.18,2.03-1.7,4.12-3.45,6.24-5.23.11-.08.21-.17.32-.26Z"/>
      <path class="cls-9" d="M193.71,318.19l.3.16c-3.29,2.15-8.44,2.58-12.39,2.15,0,0-4.85-.56-6.85-1.28-1.59-.58-2.7-1.85-3.48-3.43.39-.32.79-.65,1.2-.99.16,1.28.75,2.15,1.15,2.46,1.13.86,3.58,2.55,6.3,2.18,2.51-.35,10.01,1,13.78-1.25Z"/>
      <path class="cls-3" d="M184.71,305.22c.41.31.48,2.32-.3,3.35-.78,1.03-.75,2.1-3.34.38-.4-.26-.59-.47-.69-.67h0c1.28-1.06,2.57-2.14,3.89-3.24h0c.2.05.35.11.44.18Z"/>
      <path class="cls-1" d="M190.52,299.81c-2.12,1.79-4.21,3.53-6.24,5.23h0s-.08-.02-.13-.03c2.93-2.4,5.5-4.49,6.38-5.2Z"/>
      <path class="cls-3" d="M184.14,305.01s.09.02.13.03c-1.32,1.1-2.61,2.18-3.89,3.24,0-.02-.02-.05-.03-.06,0-.03.03-.09.12-.19,1.23-1.01,2.48-2.03,3.67-3.01Z"/>
      <path class="cls-3" d="M183.92,304.97c.08,0,.15.02.22.04-1.19.97-2.44,2-3.67,3.01.62-.72,3.45-3.05,3.45-3.05Z"/>
      <path class="cls-1" d="M180.38,308.28h0c-2.76,2.3-5.4,4.48-7.89,6.53.02-.19,3.84-3.37,7.98-6.78-.09.1-.12.17-.12.19,0,.02.02.05.03.06Z"/>
      <path class="cls-4" d="M171.08,325.04c2.85,7.47-6.48,25.58-6,21.71.79-6.37-5.36-14.39-5.96-15.16s3.87-6.27,6.34-10.43c1.61,1.69,3.54,2.96,5.63,3.88Z"/>
      <path class="cls-4" d="M158.08,333.64c2.02,2.61,7.34,13.54,5.35,15.1-2,1.56-6.08,4.74-6.08,4.74,0,0,.12-12.38-1.58-12.59s2.31-7.25,2.31-7.25Z"/>
      <path class="cls-4" d="M162.39,322.97c-2.15,3.57-5.61,8.79-7.35,8.58-1.54-.19-3.01-.14-4.34.03,2.01-1.13,6.12-4.2,11.69-8.61Z"/>
      <path class="cls-4" d="M153.45,341.2c1.81,2.55,2.33,10.28.9,13.63s-9.95,5.52-11.79,5.29,7.15-14.13,10.71-18.68c.07-.08.13-.16.19-.24Z"/>
      <path class="cls-4" d="M147.36,333.85c2.86-.62,5.98-.94,7.33-.77-7.2,8.12-10.75,16.46-14.73,25.15-4.41,9.63-.3-11.57,1.15-19.23h0s6.17-5.09,6.17-5.09c.02-.02.05-.04.07-.06Z"/>
      <path class="cls-5" d="M147.29,333.91l-6.17,5.08c2.34-2.03,4.42-3.76,6.17-5.08Z"/>
    </g>
  </g>
</svg>